<svg id="SvgjsSvg1046" xmlns="http://www.w3.org/2000/svg" version="1.1" xmlns:xlink="http://www.w3.org/1999/xlink" xmlns:svgjs="http://svgjs.com/svgjs" width="18" height="15"><defs id="SvgjsDefs1047"></defs><path id="SvgjsPath1048" d="M1371.99 691C1371.88 691.23 1370 693 1370 693C1370 693 1369.61 683.61 1370 684C1369.61 683.28 1369.34 683 1369 683C1368.66 683 1368.39 683.28 1368 684C1368.39 683.61 1368 693 1368 693C1368 693 1366.12 691.23 1366.01 691C1365.87 690.98 1365.5 690.95 1365.01 691C1365.02 691.41 1364.98 691.77 1365.01 692C1365.19894 692.01989 1368.5028399999999 695.68873 1368.9920299999999 695.99516C1368.99381 695.8357900000001 1372.80488 692.01948 1372.9899999999998 692C1373.0199999999998 691.78 1372.9899999999998 691.38 1372.9899999999998 691C1372.4899999999998 690.95 1372.0999999999997 690.98 1371.9899999999998 691ZM1369 696C1368.99743 695.99849 1368.99478 695.99688 1368.99203 695.99516C1368.99198 695.99937 1368.99459 696.00103 1369 696ZM1380.99 687.0003C1380.99 686.6203 1381.02 686.2203000000001 1380.99 686.0003C1380.8048900000001 685.98081 1376.99382 682.1645100000001 1376.99203 682.00514C1376.5028300000001 682.3115799999999 1373.1989400000002 685.98041 1373.0100000000002 686.0003C1372.9800000000002 686.2303 1373.0200000000002 686.5903000000001 1373.0100000000002 687.0003C1373.5000000000002 687.0503 1373.8700000000001 687.0203 1374.0100000000002 687.0003C1374.1200000000001 686.7703 1376.0000000000002 685.0003 1376.0000000000002 685.0003C1376.0000000000002 685.0003 1376.3900000000003 694.3903 1376.0000000000002 694.0003C1376.3900000000003 694.7203000000001 1376.6600000000003 695.0003 1377.0000000000002 695.0003C1377.3400000000001 695.0003 1377.6100000000001 694.7203000000001 1378.0000000000002 694.0003C1377.6100000000001 694.3903 1378.0000000000002 685.0003 1378.0000000000002 685.0003C1378.0000000000002 685.0003 1379.8800000000003 686.7703 1379.9900000000002 687.0003C1380.1000000000001 687.0203 1380.4900000000002 687.0503 1380.9900000000002 687.0003ZM1376.99203 682.00513C1376.99477 682.00341 1376.9974300000001 682.0018 1377 682.0002900000001C1376.9946 681.99926 1376.99199 682.0009200000001 1376.99203 682.00513Z " fill="#4a4a4a" fill-opacity="1" transform="matrix(1,0,0,1,-1364,-682)"></path></svg>