<svg id="SvgjsSvg1026" xmlns="http://www.w3.org/2000/svg" version="1.1" width="28" height="29">
    <defs id="SvgjsDefs1027"></defs>
    <path id="SvgjsPath1028"
          d="M811.022 1849.01L803.4530000000001 1849.01L803.7610000000001 1850.44C803.7990000000001 1850.6200000000001 803.797 1850.79 803.777 1850.97L810.043 1850.97L810.043 1874.04L785.954 1874.04L785.954 1850.97L792.222 1850.97C792.202 1850.79 792.201 1850.6200000000001 792.239 1850.44L792.547 1849.01L784.977 1849.01C784.437 1849.01 784 1849.45 784 1849.99L784 1875.02C784 1875.56 784.437 1876 784.977 1876L811.0219999999999 1876C811.5619999999999 1876 811.9999999999999 1875.56 811.9999999999999 1875.02L811.9999999999999 1849.99C811.9999999999999 1849.45 811.5619999999999 1849.01 811.0219999999999 1849.01ZM788.349 1856.63C787.932 1856.98 787.879 1857.5800000000002 788.231 1857.99L789.672 1859.65C789.861 1859.8700000000001 790.1370000000001 1859.99 790.427 1859.99C790.451 1859.99 790.475 1859.99 790.5 1859.99C790.815 1859.97 791.101 1859.8 791.268 1859.53L793.861 1855.45C794.148 1855 794.005 1854.41 793.54 1854.13C793.0749999999999 1853.8500000000001 792.467 1853.99 792.1809999999999 1854.44L790.3029999999999 1857.4L789.7409999999999 1856.75C789.3889999999999 1856.34 788.7669999999998 1856.29 788.3489999999998 1856.63ZM806.413 1863L795.569 1863C794.6909999999999 1863 793.982 1863.45 793.982 1864C793.982 1864.56 794.6909999999999 1865.01 795.569 1865.01L806.413 1865.01C807.291 1865.01 808.001 1864.56 808.001 1864C808.001 1863.45 807.2909999999999 1863 806.413 1863ZM806.413 1858.01L795.569 1858.01C794.6909999999999 1858.01 793.982 1858.45 793.982 1859C793.982 1859.55 794.6909999999999 1859.99 795.569 1859.99L806.413 1859.99C807.291 1859.99 808.001 1859.55 808.001 1859C808.001 1858.45 807.2909999999999 1858.01 806.413 1858.01ZM806.413 1868.01L795.569 1868.01C794.6909999999999 1868.01 793.982 1868.45 793.982 1869C793.982 1869.55 794.6909999999999 1869.99 795.569 1869.99L806.413 1869.99C807.291 1869.99 808.001 1869.55 808.001 1869C808.001 1868.45 807.2909999999999 1868.01 806.413 1868.01ZM790.5 1866.99C789.673 1866.99 789.002 1867.67 789.002 1868.5C789.002 1869.34 789.6719999999999 1870.01 790.5 1870.01C791.327 1870.01 791.998 1869.34 791.998 1868.5C791.998 1867.67 791.327 1866.99 790.5 1866.99ZM790.5 1862.01C789.673 1862.01 789.002 1862.68 789.002 1863.5C789.002 1864.33 789.6719999999999 1865 790.5 1865C791.327 1865 791.998 1864.33 791.998 1863.5C791.998 1862.68 791.327 1862.01 790.5 1862.01ZM793.689 1852.02L802.309 1852.02C802.52 1852.02 802.7199999999999 1851.92 802.852 1851.74C802.985 1851.57 803.036 1851.33 802.991 1851.11L802.2769999999999 1847.59C802.2069999999999 1847.24 801.924 1847 801.5949999999999 1847L794.4039999999999 1847C794.0749999999999 1847 793.7919999999999 1847.24 793.7219999999999 1847.59L793.0069999999998 1851.11C792.9639999999998 1851.33 793.0149999999999 1851.57 793.1469999999998 1851.74C793.2789999999998 1851.92 793.4789999999998 1852.02 793.6889999999999 1852.02Z "
          fill="#4a72f5" transform="matrix(1,0,0,1,-784,-1847)"></path>
</svg>