<svg id="SvgjsSvg1029" xmlns="http://www.w3.org/2000/svg" version="1.1" xmlns:xlink="http://www.w3.org/1999/xlink" xmlns:svgjs="http://svgjs.com/svgjs" width="25" height="32"><defs id="SvgjsDefs1030"></defs><path id="SvgjsPath1031" d="M1107.44 2424.01L1087.51 2424.01C1086.1299999999999 2424.01 1085 2422.9 1085 2421.53L1085 2395.51C1085 2394.15 1086.13 2393.0400000000004 1087.51 2393.0400000000004L1101.39941 2393.0400000000004C1101.49369 2393.0332600000006 1101.58987 2393.0532500000004 1101.67469 2393.1004900000003C1101.7417 2393.1359700000003 1101.79967 2393.1855100000002 1101.84419 2393.2449300000003L1109.76237 2401.27185C1109.87665 2401.36289 1109.9499999999998 2401.50187 1109.9499999999998 2401.65999L1109.9499999999998 2421.52999C1109.9499999999998 2422.89999 1108.8199999999997 2424.00999 1107.4399999999998 2424.00999ZM1101.94 2394.75181L1101.94 2401.1600000000003L1108.2613800000001 2401.1600000000003ZM1100.93 2394.03L1087.51 2394.03C1086.68 2394.03 1086.01 2394.69 1086.01 2395.51L1086.01 2421.53C1086.01 2422.3500000000004 1086.68 2423.02 1087.51 2423.02L1107.44 2423.02C1108.27 2423.02 1108.94 2422.35 1108.94 2421.53L1108.94 2402.15L1101.43 2402.15C1101.16 2402.15 1100.93 2401.9300000000003 1100.93 2401.6600000000003ZM1097.47 2417.58C1097.35985 2417.58 1097.25635 2417.54338 1097.1724100000001 2417.48169C1097.15423 2417.46894 1097.13669 2417.45503 1097.1200000000001 2417.44L1092.7900000000002 2413.17C1092.6000000000001 2412.9700000000003 1092.6000000000001 2412.66 1092.7900000000002 2412.4700000000003C1092.9900000000002 2412.2700000000004 1093.3100000000002 2412.2700000000004 1093.5000000000002 2412.4700000000003L1096.9700000000003 2415.8963000000003L1096.9700000000003 2405.9200000000005C1096.9700000000003 2405.6500000000005 1097.2000000000003 2405.4200000000005 1097.4700000000003 2405.4200000000005C1097.7500000000002 2405.4200000000005 1097.9800000000002 2405.6500000000005 1097.9800000000002 2405.9200000000005L1097.9800000000002 2415.8864200000007L1101.4400000000003 2412.4700000000007C1101.6400000000003 2412.270000000001 1101.9600000000003 2412.270000000001 1102.1500000000003 2412.4700000000007C1102.3500000000004 2412.6600000000008 1102.3500000000004 2412.9700000000007 1102.1500000000003 2413.1700000000005L1097.8300000000004 2417.4400000000005C1097.7909700000005 2417.4751200000005 1097.7473800000005 2417.5041600000004 1097.7009900000003 2417.5265000000004C1097.6315000000002 2417.5606900000002 1097.5529400000003 2417.5800000000004 1097.4700000000003 2417.5800000000004Z " fill="#4a72f5" transform="matrix(1,0,0,1,-1085,-2393)"></path></svg>