<svg id="SvgjsSvg1062" xmlns="http://www.w3.org/2000/svg" version="1.1" xmlns:xlink="http://www.w3.org/1999/xlink" xmlns:svgjs="http://svgjs.com/svgjs" width="7" height="14"><defs id="SvgjsDefs1063"></defs><path id="SvgjsPath1064" d="M395.33 4975.53L395.33 4974.08C395.33 4973.53 395.69 4973.41 395.95 4973.41C396.21 4973.41 397.53 4973.41 397.53 4973.41L397.53 4971.01L395.34999999999997 4971C392.93999999999994 4971 392.39 4972.79 392.39 4973.93L392.39 4975.530000000001L391 4975.530000000001L391 4978.000000000001L392.39 4978.000000000001C392.39 4981.180000000001 392.39 4985.000000000001 392.39 4985.000000000001L395.33 4985.000000000001C395.33 4985.000000000001 395.33 4981.140000000001 395.33 4978.000000000001L397.31 4978.000000000001L397.56 4975.530000000001Z " fill="#ffffff" fill-opacity="1" transform="matrix(1,0,0,1,-391,-4971)"></path></svg>