<?xml version="1.0" encoding="UTF-8" standalone="no"?>
<svg width="14px" height="12px" viewBox="0 0 14 12" version="1.1" xmlns="http://www.w3.org/2000/svg" xmlns:xlink="http://www.w3.org/1999/xlink">
    <!-- Generator: Sketch 39.1 (31720) - http://www.bohemiancoding.com/sketch -->
    <title>Google</title>
    <desc>Created with Sketch.</desc>
    <defs></defs>
    <g id="Page-1" stroke="none" stroke-width="1" fill="none" fill-rule="evenodd">
        <g id="Desktop-HD-Copy-3" transform="translate(-468.000000, -4972.000000)" fill="#FFFFFF">
            <g id="Group-13" transform="translate(0.000000, 4835.000000)">
                <g id="Group-7" transform="translate(391.000000, 136.000000)">
                    <path d="M82.9541194,1.60456978 C83.8261153,1.99467589 83.9274438,2.65889782 83.9274438,3.75962198 C83.9274438,5.59605595 82.2010536,5.82140851 82.2010536,6.60304102 C82.2010536,7.3842001 84.4921242,8.00960079 84.4921242,9.94592844 C84.4921242,13.1804004 80.4741878,12.99813 80.4741878,12.99813 C80.4741878,12.99813 77,13.1231155 77,10.5192519 C77,7.91538827 80.9422968,8.01954281 81.1440024,8.01954281 C81.093576,7.42302133 80.693495,7.52244158 80.693495,7.22796828 L80.693495,6.49888647 C80.693495,6.49888647 77.7112023,6.83218101 77.7112023,3.95751561 C77.7112023,1.08332363 81.122595,1 81.122595,1 L84.4921242,1 C84.4921242,1.51083069 82.9541194,1.33045396 82.9541194,1.60456978 L82.9541194,1.60456978 Z M80.7662802,8.51096289 C79.3752731,8.60470198 78.3039502,9.49853733 78.3729297,10.508363 C78.4409578,11.5181886 79.6245507,12.260053 81.0155578,12.1663139 C82.4060892,12.0725748 83.4788392,11.1792129 83.4098598,10.1684404 C83.341356,9.15956164 82.1577631,8.4172238 80.7662802,8.51096289 L80.7662802,8.51096289 Z M82.2895377,3.31317773 C81.9736592,2.15800915 81.0469554,1.40383557 80.2182501,1.6287147 C79.3900204,1.85264697 78.9737649,2.96994116 79.2891677,4.12510974 C79.6050462,5.27933145 80.5317499,6.03397847 81.3604553,5.80957277 C82.1896363,5.58469364 82.6049404,4.46739944 82.2895377,3.31317773 L82.2895377,3.31317773 Z M88.0999894,3.91680065 L88.0999894,6.24370784 L87.6247445,6.24370784 L87.6247445,3.91680065 L85.2718303,3.91680065 L85.2718303,3.32501347 L87.6247445,3.32501347 L87.6247445,1.08427049 L88.0999894,1.08427049 L88.0999894,3.32501347 L90.5,3.32501347 L90.5,3.91680065 L88.0999894,3.91680065 L88.0999894,3.91680065 Z" id="Google"></path>
                </g>
            </g>
        </g>
    </g>
</svg>