<svg id="SvgjsSvg1068" xmlns="http://www.w3.org/2000/svg" version="1.1" xmlns:xlink="http://www.w3.org/1999/xlink" xmlns:svgjs="http://svgjs.com/svgjs" width="14" height="13"><defs id="SvgjsDefs1069"></defs><path id="SvgjsPath1070" d="M474.93 4974.76C474.93 4976.6 473.2 4976.820000000001 473.2 4977.6C473.2 4978.38 475.49 4979.01 475.49 4980.950000000001C475.49 4984.18 471.47 4984.000000000001 471.47 4984.000000000001C471.47 4984.000000000001 468 4984.120000000001 468 4981.520000000001C468 4978.920000000001 471.94 4979.020000000001 472.14 4979.020000000001C472.09 4978.420000000001 471.69 4978.520000000001 471.69 4978.230000000001C471.69 4977.930000000001 471.69 4977.500000000002 471.69 4977.500000000002C471.69 4977.500000000002 468.71 4977.830000000002 468.71 4974.960000000002C468.71 4972.080000000002 472.12 4972.000000000002 472.12 4972.000000000002C472.12 4972.000000000002 475.23 4972.000000000002 475.49 4972.000000000002C475.49 4972.510000000002 473.95 4972.330000000002 473.95 4972.600000000002C474.83 4972.9900000000025 474.93 4973.660000000003 474.93 4974.760000000002ZM469.37 4981.51C469.44 4982.52 470.62 4983.26 472.02 4983.17C473.40999999999997 4983.07 474.47999999999996 4982.18 474.40999999999997 4981.17C474.34 4980.16 473.15999999999997 4979.42 471.77 4979.51C470.38 4979.6 469.29999999999995 4980.5 469.37 4981.51ZM471.22 4972.63C470.39000000000004 4972.85 469.97 4973.97 470.29 4975.13C470.61 4976.28 471.53000000000003 4977.03 472.36 4976.81C473.19 4976.580000000001 473.6 4975.47 473.29 4974.31C472.97 4973.160000000001 472.05 4972.400000000001 471.22 4972.63ZM479.1 4974.92L481.5 4974.92L481.5 4974.33L479.1 4974.33L479.1 4972.08L478.62 4972.08L478.62 4974.33L476.27 4974.33L476.27 4974.92L478.62 4974.92L478.62 4977.24L479.1 4977.24Z " fill="#ffffff" fill-opacity="1" transform="matrix(1,0,0,1,-468,-4972)"></path></svg>