<svg id="SvgjsSvg1052" xmlns="http://www.w3.org/2000/svg" version="1.1" xmlns:xlink="http://www.w3.org/1999/xlink" xmlns:svgjs="http://svgjs.com/svgjs" width="9" height="16"><defs id="SvgjsDefs1053"></defs><path id="SvgjsPath1054" d="M873 3337.41C873 3334.98 871.178 3333 868.939 3333L865.016 3333L865.016 3343.27L864 3343.27L864 3344.36L865.016 3344.36L865.016 3349L866.067 3349L866.067 3344.36L869.64 3344.36L869.64 3343.27L866.067 3343.27L866.067 3341.82L868.939 3341.82C871.178 3341.82 873 3339.84 873 3337.4100000000003ZM868.939 3334.09C870.5989999999999 3334.09 871.949 3335.58 871.949 3337.4100000000003C871.949 3339.2400000000002 870.5989999999999 3340.7200000000003 868.939 3340.7200000000003L866.067 3340.7200000000003L866.067 3334.09Z " fill="#000000" transform="matrix(1,0,0,1,-864,-3333)"></path></svg>