<svg id="SvgjsSvg1008" xmlns="http://www.w3.org/2000/svg" version="1.1" xmlns:xlink="http://www.w3.org/1999/xlink" xmlns:svgjs="http://svgjs.com/svgjs" width="41" height="41"><defs id="SvgjsDefs1009"></defs><path id="SvgjsPath1010" d="M579.001 1377.49L571.967 1370.41C571.809 1370.25 571.597 1370.17 571.382 1370.17L550.2819999999999 1370.17C549.8249999999999 1370.17 549.454 1370.54 549.454 1371L549.454 1410.17C549.454 1410.63 549.8249999999999 1411 550.2819999999999 1411L578.4159999999999 1411C578.872 1411 579.2429999999999 1410.63 579.2429999999999 1410.17L579.2429999999999 1378.0800000000002L579.241 1378.0800000000002C579.241 1377.8700000000001 579.159 1377.65 579.001 1377.4900000000002ZM577.588 1409.33L551.1089999999999 1409.33L551.1089999999999 1371.83L570.555 1371.83L570.555 1378.08C570.555 1378.54 570.925 1378.9199999999998 571.382 1378.9199999999998L577.588 1378.9199999999998ZM588.345 1389.75L588.345 1402.67L587.104 1402.67L587.104 1380.17L587.1030000000001 1380.17C587.1030000000001 1380.0600000000002 587.0830000000001 1379.95 587.0400000000001 1379.8500000000001L584.9720000000001 1374.8500000000001C584.8430000000001 1374.5400000000002 584.5420000000001 1374.3300000000002 584.2080000000001 1374.3300000000002C583.8740000000001 1374.3300000000002 583.5720000000001 1374.5400000000002 583.4440000000001 1374.8500000000001L581.3750000000001 1379.8500000000001C581.3330000000001 1379.95 581.3130000000001 1380.0600000000002 581.3130000000001 1380.17L581.3120000000001 1380.17L581.3120000000001 1410.17C581.3120000000001 1410.63 581.6820000000001 1411 582.1390000000001 1411L586.2760000000001 1411C586.7330000000001 1411 587.104 1410.63 587.104 1410.17L587.104 1404.3300000000002L589.173 1404.3300000000002C589.63 1404.3300000000002 590 1403.9600000000003 590 1403.5000000000002L590 1389.7500000000002ZM585.449 1402.67L582.966 1402.67L582.966 1381L585.449 1381ZM559.797 1390.58L555.6600000000001 1390.58C555.2030000000001 1390.58 554.8330000000001 1390.96 554.8330000000001 1391.4199999999998L554.8330000000001 1395.58C554.8330000000001 1396.04 555.2030000000001 1396.4199999999998 555.6600000000001 1396.4199999999998L559.797 1396.4199999999998C560.255 1396.4199999999998 560.625 1396.0399999999997 560.625 1395.58L560.625 1391.4199999999998C560.625 1390.9599999999998 560.255 1390.58 559.797 1390.58ZM559.797 1381.42L555.6600000000001 1381.42C555.2030000000001 1381.42 554.8330000000001 1381.79 554.8330000000001 1382.25L554.8330000000001 1386.42C554.8330000000001 1386.88 555.2030000000001 1387.25 555.6600000000001 1387.25L559.797 1387.25C560.255 1387.25 560.625 1386.88 560.625 1386.42L560.625 1382.25C560.625 1381.79 560.255 1381.42 559.797 1381.42ZM559.797 1399.75L555.6600000000001 1399.75C555.2030000000001 1399.75 554.8330000000001 1400.12 554.8330000000001 1400.58L554.8330000000001 1404.75C554.8330000000001 1405.21 555.2030000000001 1405.58 555.6600000000001 1405.58L559.797 1405.58C560.255 1405.58 560.625 1405.21 560.625 1404.75L560.625 1400.58C560.625 1400.12 560.255 1399.75 559.797 1399.75ZM573 1387L573 1385L562 1385L562 1387ZM573 1396L573 1394L562 1394L562 1396ZM572.21 1373.01L576.418 1377.25L572.21 1377.25ZM585.449 1409.33L582.966 1409.33L582.966 1404.33L585.449 1404.33ZM566 1384L566 1382L562 1382L562 1384ZM566 1393L566 1391L562 1391L562 1393ZM566 1402L566 1400L562 1400L562 1402ZM558.97 1385.58L556.488 1385.58L556.488 1383.08L558.97 1383.08ZM558.97 1394.75L556.488 1394.75L556.488 1392.25L558.97 1392.25ZM558.97 1403.92L556.488 1403.92L556.488 1401.42L558.97 1401.42ZM584.208 1377.33L585.035 1379.33L583.38 1379.33ZM573 1405L573 1404L562 1404L562 1405Z " fill="#4a72f5" transform="matrix(1,0,0,1,-549,-1370)"></path></svg>