<svg  xmlns="http://www.w3.org/2000/svg" width="16" height="14"><defs id="SvgjsDefs1009"><clipPath id="SvgjsClipPath1012"><path id="SvgjsPath1011" d="M945.392 669.43L941.5360000000001 669.074C941.293 669.053 941.0830000000001 668.901 940.9830000000001 668.675L939.6020000000001 665.4029999999999C939.3810000000001 664.8629999999999 938.5970000000001 664.8629999999999 938.3760000000001 665.4029999999999L937.0060000000001 668.675C936.917 668.901 936.6960000000001 669.053 936.4530000000001 669.074L932.5970000000001 669.43C932.0230000000001 669.4849999999999 931.7900000000001 670.1859999999999 932.2210000000001 670.564L935.1270000000001 673.058C935.315 673.22 935.392 673.458 935.3370000000001 673.6949999999999L934.464 677.194C934.3320000000001 677.7439999999999 934.9390000000001 678.198 935.4480000000001 677.906L938.6630000000001 676.06C938.8730000000002 675.9409999999999 939.1270000000002 675.9409999999999 939.3370000000001 676.06L942.5520000000001 677.906C943.0600000000002 678.198 943.6680000000001 677.755 943.5350000000001 677.194L942.6740000000001 673.6949999999999C942.618 673.458 942.6960000000001 673.2199999999999 942.8840000000001 673.058L945.7890000000001 670.564C946.2090000000001 670.1859999999999 945.9660000000001 669.485 945.392 669.43Z " fill="#ffffff"></path></clipPath></defs><path id="SvgjsPath1010" d="M945.392 669.43L941.5360000000001 669.074C941.293 669.053 941.0830000000001 668.901 940.9830000000001 668.675L939.6020000000001 665.4029999999999C939.3810000000001 664.8629999999999 938.5970000000001 664.8629999999999 938.3760000000001 665.4029999999999L937.0060000000001 668.675C936.917 668.901 936.6960000000001 669.053 936.4530000000001 669.074L932.5970000000001 669.43C932.0230000000001 669.4849999999999 931.7900000000001 670.1859999999999 932.2210000000001 670.564L935.1270000000001 673.058C935.315 673.22 935.392 673.458 935.3370000000001 673.6949999999999L934.464 677.194C934.3320000000001 677.7439999999999 934.9390000000001 678.198 935.4480000000001 677.906L938.6630000000001 676.06C938.8730000000002 675.9409999999999 939.1270000000002 675.9409999999999 939.3370000000001 676.06L942.5520000000001 677.906C943.0600000000002 678.198 943.6680000000001 677.755 943.5350000000001 677.194L942.6740000000001 673.6949999999999C942.618 673.458 942.6960000000001 673.2199999999999 942.8840000000001 673.058L945.7890000000001 670.564C946.2090000000001 670.1859999999999 945.9660000000001 669.485 945.392 669.43Z " fill-opacity="0" fill="#ffffff" stroke-dasharray="0" stroke-linejoin="miter" stroke-linecap="butt" stroke-opacity="1" stroke="#c3c3c3" stroke-miterlimit="50" stroke-width="2" clip-path="url(&quot;#SvgjsClipPath1012&quot;)" transform="matrix(1,0,0,1,-931,-664)"></path></svg>