<svg id="SvgjsSvg1000" xmlns="http://www.w3.org/2000/svg" version="1.1" xmlns:xlink="http://www.w3.org/1999/xlink" xmlns:svgjs="http://svgjs.com/svgjs" width="12" height="21"><defs id="SvgjsDefs1001"></defs><path id="SvgjsPath1007" d="M876 3265.78C876 3262.59 873.571 3260 870.585 3260L865.355 3260L865.355 3273.48L864 3273.48L864 3274.91L865.355 3274.91L865.355 3281L866.756 3281L866.756 3274.91L871.519 3274.91L871.519 3273.48L866.756 3273.48L866.756 3271.57L870.5849999999999 3271.57C873.5709999999999 3271.57 875.9999999999999 3268.9700000000003 875.9999999999999 3265.78ZM870.585 3261.43C872.798 3261.43 874.5980000000001 3263.3799999999997 874.5980000000001 3265.7799999999997C874.5980000000001 3268.1899999999996 872.7980000000001 3270.14 870.585 3270.14L866.7560000000001 3270.14L866.7560000000001 3261.43Z " fill="#000000" transform="matrix(1,0,0,1,-864,-3260)"></path></svg>