<svg id="SvgjsSvg1008" xmlns="http://www.w3.org/2000/svg" version="1.1" xmlns:xlink="http://www.w3.org/1999/xlink" xmlns:svgjs="http://svgjs.com/svgjs" width="29" height="37"><defs id="SvgjsDefs1009"></defs><path id="SvgjsPath1010" d="M1053.68 243.06L1049.1200000000001 241.909L1047.7600000000002 240.527C1047.5200000000002 240.28599999999997 1047.2000000000003 240.166 1046.8900000000003 240.16799999999998L1046.8900000000003 239.05299999999997C1047.0900000000004 238.90699999999998 1047.2900000000004 238.74999999999997 1047.4900000000002 238.58399999999997C1047.7300000000002 238.53499999999997 1049.4200000000003 238.18299999999996 1051.1300000000003 237.55299999999997C1053.8000000000004 236.56899999999996 1055.1000000000004 235.45199999999997 1055.1000000000004 234.13899999999998C1055.1000000000004 226.49399999999997 1053.3500000000004 221.01399999999998 1049.8900000000003 217.85199999999998C1047.1800000000003 215.36999999999998 1044.1000000000004 214.99999999999997 1042.5000000000002 214.99999999999997C1040.9000000000003 214.99999999999997 1037.8200000000002 215.36999999999998 1035.1100000000001 217.85199999999998C1031.65 221.01399999999998 1029.9 226.49399999999997 1029.9 234.13899999999998C1029.9 235.45199999999997 1031.2 236.569 1033.8700000000001 237.55299999999997C1035.5800000000002 238.18299999999996 1037.2700000000002 238.53499999999997 1037.5100000000002 238.58399999999997C1037.7100000000003 238.74999999999997 1037.9100000000003 238.90699999999998 1038.1100000000001 239.05299999999997L1038.1100000000001 240.16799999999998C1037.8000000000002 240.16599999999997 1037.48 240.28599999999997 1037.2400000000002 240.527L1035.8800000000003 241.909L1031.3200000000004 243.06C1029.3700000000003 243.555 1028.0000000000005 245.324 1028.0000000000005 247.363L1028.0000000000005 250.12199999999999C1028.0000000000005 251.158 1028.8300000000004 251.99999999999997 1029.8600000000004 251.99999999999997L1055.1400000000003 251.99999999999997C1056.1700000000003 251.99999999999997 1057.0000000000002 251.15799999999996 1057.0000000000002 250.12199999999999L1057.0000000000002 247.363C1057.0000000000002 245.324 1055.6300000000003 243.555 1053.6800000000003 243.06ZM1031.08 234.139C1031.08 226.847 1032.6999999999998 221.666 1035.8999999999999 218.741C1038.32 216.52900000000002 1041.08 216.199 1042.4999999999998 216.199C1043.9199999999998 216.199 1046.6799999999998 216.52900000000002 1049.0999999999997 218.741C1052.2999999999997 221.66600000000003 1053.9199999999996 226.847 1053.9199999999996 234.139C1053.9199999999996 234.815 1052.8899999999996 235.50900000000001 1051.5299999999995 236.09900000000002C1052.2299999999996 235.08100000000002 1052.4599999999996 233.94000000000003 1052.5399999999995 233.32500000000002C1052.9299999999996 233.12 1053.2099999999996 232.703 1053.2099999999996 232.221L1053.2099999999996 229.049C1053.2099999999996 228.366 1052.6599999999996 227.81 1051.9799999999996 227.81L1050.8599999999997 227.81C1050.8199999999997 227.798 1050.7699999999998 227.78900000000002 1050.7199999999996 227.787C1045.5999999999997 227.538 1037.8499999999997 225.58 1035.5899999999995 224.244C1035.4499999999994 224.159 1035.2699999999995 224.139 1035.1099999999994 224.191C1034.9499999999994 224.244 1034.8199999999995 224.362 1034.7499999999995 224.518C1034.2999999999995 225.539 1033.9899999999996 226.64600000000002 1033.8299999999995 227.786L1033.0199999999995 227.786C1032.3399999999995 227.786 1031.7899999999995 228.342 1031.7899999999995 229.025L1031.7899999999995 232.221C1031.7899999999995 232.904 1032.3399999999995 233.46 1033.0199999999995 233.46L1034.2499999999995 233.46C1034.6499999999996 234.77800000000002 1035.2599999999995 235.97400000000002 1036.0199999999995 236.99200000000002C1033.6199999999994 236.31500000000003 1031.0799999999995 235.20300000000003 1031.0799999999995 234.139ZM1034.87 229.664C1034.87 228.261 1035.12 226.867 1035.6 225.595C1036.9299999999998 226.232 1039.1599999999999 226.952 1041.76 227.58C1044.72 228.29700000000003 1047.73 228.78900000000002 1050.12 228.95200000000003C1050.12 229.235 1050.1299999999999 229.54100000000003 1050.1299999999999 229.66400000000002C1050.1299999999999 232.554 1049.11 235.15 1047.51 236.91700000000003C1046.91 236.91900000000004 1046.25 236.82500000000002 1045.53 236.63500000000002C1045.59 236.45300000000003 1045.62 236.25900000000001 1045.62 236.05700000000002C1045.62 235.02200000000002 1044.79 234.17900000000003 1043.76 234.17900000000003C1042.74 234.17900000000003 1041.91 235.02200000000002 1041.91 236.05700000000002C1041.91 237.09300000000002 1042.74 237.935 1043.76 237.935C1044.12 237.935 1044.46 237.832 1044.74 237.654C1045.28 237.82 1045.8 237.942 1046.29 238.018C1045.17 238.829 1043.8799999999999 239.294 1042.5 239.294C1038.3 239.294 1034.87 234.97400000000002 1034.87 229.66400000000002ZM1031.61 244.223L1035.9299999999998 243.131L1038.4699999999998 246.725C1038.6599999999999 247 1038.9699999999998 247.185 1039.2999999999997 247.231C1039.3499999999997 247.239 1039.4099999999996 247.243 1039.4599999999998 247.243C1039.7399999999998 247.243 1040.0099999999998 247.148 1040.2299999999998 246.972L1041.9099999999999 245.615L1041.9099999999999 248.84300000000002C1041.9099999999999 249.174 1042.1699999999998 249.443 1042.4999999999998 249.443C1042.8299999999997 249.443 1043.0899999999997 249.174 1043.0899999999997 248.84300000000002L1043.0899999999997 245.615L1044.7699999999998 246.972C1044.9899999999998 247.148 1045.2599999999998 247.243 1045.5399999999997 247.243C1045.5899999999997 247.243 1045.6499999999996 247.239 1045.6999999999998 247.231C1046.0299999999997 247.185 1046.34 247 1046.5299999999997 246.724L1049.0699999999997 243.131L1053.3899999999996 244.223C1053.5199999999998 244.256 1053.6399999999996 244.29500000000002 1053.7599999999995 244.342L1051.4799999999996 247.109C1051.0099999999995 247.675 1050.7599999999995 248.393 1050.7599999999995 249.13L1050.7599999999995 250.801L1034.2399999999996 250.801L1034.2399999999996 249.13C1034.2399999999996 248.393 1033.9899999999996 247.67499999999998 1033.5199999999995 247.109L1031.2399999999996 244.342C1031.3599999999994 244.29500000000002 1031.4799999999996 244.256 1031.6099999999994 244.223ZM1042.5 240.492C1043.63 240.492 1044.71 240.23 1045.7 239.753L1045.7 240.80499999999998L1042.5 243.57899999999998L1039.3 240.80499999999998L1039.3 239.753C1040.29 240.23 1041.37 240.492 1042.5 240.492ZM1029.19 250.122L1029.19 247.36300000000003C1029.19 246.43100000000004 1029.5800000000002 245.57600000000002 1030.22 244.97800000000004L1032.6100000000001 247.87700000000004C1032.9 248.22800000000004 1033.0600000000002 248.67300000000003 1033.0600000000002 249.13000000000002L1033.0600000000002 250.80100000000002L1029.8600000000001 250.80100000000002C1029.4900000000002 250.80100000000002 1029.19 250.497 1029.19 250.122ZM1038.08 241.375C1038.09 241.36 1038.12 241.359 1038.1299999999999 241.373L1041.57 244.352L1039.49 246.036C1039.49 246.039 1039.48 246.047 1039.46 246.044C1039.44 246.042 1039.44 246.032 1039.43 246.02800000000002L1036.95 242.51500000000001ZM1046.92 241.375L1048.0500000000002 242.515L1045.5700000000002 246.028C1045.5600000000002 246.03199999999998 1045.5600000000002 246.042 1045.5400000000002 246.04399999999998C1045.5200000000002 246.046 1045.5100000000002 246.039 1045.5100000000002 246.03599999999997L1043.4300000000003 244.35199999999998L1046.8700000000003 241.37299999999996C1046.8800000000003 241.35899999999995 1046.9100000000003 241.35999999999996 1046.9200000000003 241.37499999999997ZM1049.74 236.27C1049.6 236.36800000000002 1049.46 236.454 1049.31 236.529C1049.9199999999998 235.618 1050.4099999999999 234.583 1050.75 233.46L1051.32 233.46C1051.1799999999998 234.219 1050.81 235.505 1049.74 236.27ZM1033.95 232.261L1033.02 232.261C1033 232.261 1032.98 232.243 1032.98 232.221L1032.98 229.025C1032.98 229.00300000000001 1033 228.985 1033.02 228.985L1033.71 228.985C1033.7 229.211 1033.69 229.437 1033.69 229.66400000000002C1033.69 230.55900000000003 1033.78 231.429 1033.95 232.26100000000002ZM1052.02 232.221C1052.02 232.243 1052 232.261 1051.98 232.261L1051.05 232.261C1051.22 231.429 1051.31 230.559 1051.31 229.664C1051.31 229.55599999999998 1051.31 229.283 1051.3 229.009L1051.98 229.009C1052 229.009 1052.02 229.027 1052.02 229.04899999999998ZM1043.76 236.736C1043.39 236.736 1043.09 236.432 1043.09 236.057C1043.09 235.683 1043.3899999999999 235.378 1043.76 235.378C1044.1299999999999 235.378 1044.44 235.683 1044.44 236.057C1044.44 236.432 1044.13 236.736 1043.76 236.736ZM1055.14 250.801L1051.94 250.801L1051.94 249.13C1051.94 248.673 1052.1000000000001 248.228 1052.39 247.876L1054.7800000000002 244.978C1055.4200000000003 245.57600000000002 1055.8100000000002 246.431 1055.8100000000002 247.363L1055.8100000000002 250.12199999999999C1055.8100000000002 250.49699999999999 1055.5100000000002 250.801 1055.14 250.801Z " fill="#4a72f5" transform="matrix(1,0,0,1,-1028,-215)"></path></svg>