<svg id="SvgjsSvg1000" xmlns="http://www.w3.org/2000/svg" version="1.1" xmlns:xlink="http://www.w3.org/1999/xlink" xmlns:svgjs="http://svgjs.com/svgjs" width="15" height="15"><defs id="SvgjsDefs1001"></defs><path id="SvgjsPath1007" d="M1492.03 204.063L1485.94 204.063L1485.94 190.93699999999998L1492.03 190.93699999999998C1492.29 190.93699999999998 1492.5 190.72699999999998 1492.5 190.469C1492.5 190.21 1492.29 190 1492.03 190L1485.47 190C1485.21 190 1485 190.21 1485 190.469L1485 204.531C1485 204.79 1485.21 205 1485.47 205L1492.03 205C1492.29 205 1492.5 204.79 1492.5 204.531C1492.5 204.27200000000002 1492.29 204.06300000000002 1492.03 204.06300000000002ZM1499.86 197.173L1496.6299999999999 193.892C1496.4499999999998 193.707 1496.1499999999999 193.707 1495.9699999999998 193.892C1495.7799999999997 194.077 1495.7799999999997 194.377 1495.9699999999998 194.56199999999998L1498.3999999999999 197.034L1488.7499999999998 197.034C1488.4899999999998 197.034 1488.2799999999997 197.24599999999998 1488.2799999999997 197.507C1488.2799999999997 197.769 1488.4899999999998 197.981 1488.7499999999998 197.981L1498.3999999999999 197.981L1495.9699999999998 200.454C1495.7799999999997 200.639 1495.7799999999997 200.93800000000002 1495.9699999999998 201.12300000000002C1496.1499999999999 201.30800000000002 1496.4499999999998 201.30800000000002 1496.6299999999999 201.12300000000002L1499.86 197.842C1500.04 197.66000000000003 1500.05 197.35500000000002 1499.86 197.173Z " fill="#000000" transform="matrix(1,0,0,1,-1485,-190)"></path></svg>