<svg id="SvgjsSvg1000" xmlns="http://www.w3.org/2000/svg" version="1.1" xmlns:xlink="http://www.w3.org/1999/xlink" xmlns:svgjs="http://svgjs.com/svgjs" width="40" height="41"><defs id="SvgjsDefs1001"></defs><path id="SvgjsPath1007" d="M459.184 1371L420.81600000000003 1371C420.36600000000004 1371 420.00000000000006 1371.37 420.00000000000006 1371.82L420.00000000000006 1405.29C420.00000000000006 1405.74 420.36600000000004 1406.1 420.81600000000003 1406.1L442.04100000000005 1406.1L442.04100000000005 1410.1799999999998C442.04100000000005 1410.4999999999998 442.22600000000006 1410.7899999999997 442.5160000000001 1410.9299999999998C442.8060000000001 1411.06 443.1460000000001 1411.0099999999998 443.3880000000001 1410.7999999999997L448.5710000000001 1406.3599999999997L453.7540000000001 1410.7999999999997C453.9050000000001 1410.9299999999998 454.0950000000001 1410.9999999999998 454.28600000000006 1410.9999999999998C454.40100000000007 1410.9999999999998 454.5180000000001 1410.9799999999998 454.62700000000007 1410.9299999999998C454.91600000000005 1410.7899999999997 455.1020000000001 1410.4999999999998 455.1020000000001 1410.1799999999998L455.1020000000001 1406.1L459.1840000000001 1406.1C459.6350000000001 1406.1 460.00000000000006 1405.74 460.00000000000006 1405.29L460.00000000000006 1371.82C460.00000000000006 1371.37 459.63500000000005 1371 459.1840000000001 1371ZM458.367 1404.47L455.10200000000003 1404.47L455.10200000000003 1394.16C455.36600000000004 1393.43 455.51000000000005 1392.64 455.51000000000005 1391.8200000000002C455.51000000000005 1387.9900000000002 452.39700000000005 1384.88 448.571 1384.88C444.745 1384.88 441.63300000000004 1387.99 441.63300000000004 1391.8200000000002C441.63300000000004 1392.64 441.77700000000004 1393.43 442.04100000000005 1394.16L442.04100000000005 1404.47L421.63300000000004 1404.47L421.63300000000004 1372.63L458.367 1372.63ZM453.469 1408.41L449.388 1404.91L449.388 1400.39L447.755 1400.39L447.755 1404.91L443.673 1408.41L443.673 1396.73C444.929 1397.98 446.661 1398.76 448.571 1398.76C450.48100000000005 1398.76 452.214 1397.98 453.46900000000005 1396.73ZM448.571 1397.12C445.646 1397.12 443.26500000000004 1394.7399999999998 443.26500000000004 1391.82C443.26500000000004 1388.8899999999999 445.646 1386.51 448.571 1386.51C451.497 1386.51 453.87800000000004 1388.89 453.87800000000004 1391.82C453.87800000000004 1394.74 451.49700000000007 1397.12 448.571 1397.12ZM439 1390L439 1388L424 1388L424 1390ZM439 1394L439 1392L424 1392L424 1394ZM439 1398L439 1396L424 1396L424 1398ZM447 1378L447 1376L433 1376L433 1378ZM443 1381L443 1379L437 1379L437 1381ZM427 1386L427 1384L424 1384L424 1386ZM434 1402L434 1400L424 1400L424 1402Z " fill="#4a72f5" transform="matrix(1,0,0,1,-420,-1371)"></path></svg>