<svg id="SvgjsSvg1011" xmlns="http://www.w3.org/2000/svg" version="1.1" xmlns:xlink="http://www.w3.org/1999/xlink" xmlns:svgjs="http://svgjs.com/svgjs" width="54" height="44"><defs id="SvgjsDefs1012"></defs><path id="SvgjsPath1013" d="M861.516 4032L814.4839999999999 4032C812.5619999999999 4032 810.9999999999999 4033.55 810.9999999999999 4035.45L810.9999999999999 4066.5099999999998C810.9999999999999 4068.41 812.5619999999999 4069.9599999999996 814.4839999999999 4069.9599999999996L830.161 4069.9599999999996L830.161 4074.2699999999995L824.0649999999999 4074.2699999999995L824.0649999999999 4075.9999999999995L851.9359999999999 4075.9999999999995L851.9359999999999 4074.2699999999995L845.8389999999999 4074.2699999999995L845.8389999999999 4069.9599999999996L861.516 4069.9599999999996C863.438 4069.9599999999996 865 4068.4099999999994 865 4066.5099999999998L865 4035.45C865 4033.5499999999997 863.438 4032 861.516 4032ZM863.258 4066.51C863.258 4067.46 862.4770000000001 4068.2400000000002 861.5160000000001 4068.2400000000002L814.484 4068.2400000000002C813.523 4068.2400000000002 812.7420000000001 4067.46 812.7420000000001 4066.51L812.7420000000001 4035.4500000000003C812.7420000000001 4034.5000000000005 813.523 4033.7300000000005 814.484 4033.7300000000005L861.5160000000001 4033.7300000000005C862.4770000000001 4033.7300000000005 863.258 4034.5000000000005 863.258 4035.4500000000003ZM814.484 4066.51L861.5160000000001 4066.51L861.5160000000001 4035.4500000000003L814.484 4035.4500000000003ZM816.226 4037.18L859.774 4037.18L859.774 4064.7799999999997L816.226 4064.7799999999997ZM831.903 4052.71L844.097 4052.71L844.097 4042.35L831.903 4042.35ZM817.968 4052.71L830.161 4052.71L830.161 4042.35L817.968 4042.35ZM858.032 4052.71L858.032 4042.35L845.839 4042.35L845.839 4052.71ZM833.645 4044.08L842.355 4044.08L842.355 4050.98L833.645 4050.98ZM847.581 4044.08L856.29 4044.08L856.29 4050.98L847.581 4050.98ZM819.71 4044.08L828.419 4044.08L828.419 4050.98L819.71 4050.98ZM844.097 4074.27L831.903 4074.27L831.903 4069.96L844.097 4069.96ZM844 4056L844 4054L818 4054L818 4056ZM844 4060L844 4058L818 4058L818 4060ZM844 4063L844 4061L818 4061L818 4063ZM858 4056L858 4054L847 4054L847 4056ZM858 4060L858 4058L847 4058L847 4060ZM817.968 4039.77C817.968 4040.24 818.358 4040.63 818.8389999999999 4040.63C819.3199999999999 4040.63 819.7099999999999 4040.2400000000002 819.7099999999999 4039.77C819.7099999999999 4039.29 819.3199999999999 4038.9 818.8389999999999 4038.9C818.358 4038.9 817.968 4039.29 817.968 4039.77ZM823.194 4039.77C823.194 4040.24 823.584 4040.63 824.0649999999999 4040.63C824.5459999999999 4040.63 824.9359999999999 4040.2400000000002 824.9359999999999 4039.77C824.9359999999999 4039.29 824.5459999999999 4038.9 824.0649999999999 4038.9C823.584 4038.9 823.194 4039.29 823.194 4039.77ZM820.581 4039.77C820.581 4040.24 820.971 4040.63 821.452 4040.63C821.933 4040.63 822.323 4040.2400000000002 822.323 4039.77C822.323 4039.29 821.933 4038.9 821.452 4038.9C820.971 4038.9 820.581 4039.29 820.581 4039.77ZM858 4063L858 4061L847 4061L847 4063Z " fill="#4a72f5" transform="matrix(1,0,0,1,-811,-4032)"></path></svg>