<?xml version="1.0" encoding="utf-8"?>
<!-- Generator: Adobe Illustrator 19.2.1, SVG Export Plug-In . SVG Version: 6.00 Build 0)  -->
<svg version="1.1" id="Шар_1" xmlns="http://www.w3.org/2000/svg" xmlns:xlink="http://www.w3.org/1999/xlink" x="0px" y="0px"
	 viewBox="0 0 151 151" style="enable-background:new 0 0 151 151;" xml:space="preserve">
<style type="text/css">
	.st0{fill:url(#Shape_3_copy_7_1_);}
</style>
<title>Shape_3_copy_7</title>
<desc>Created with Sketch.</desc>
<g id="Page-1">
	<g id="Desktop-HD-Copy-3" transform="translate(-886.000000, -4455.000000)">
		<g id="Shape-3-copy-7" transform="translate(886.000000, 4455.000000)">
			
				<linearGradient id="Shape_3_copy_7_1_" gradientUnits="userSpaceOnUse" x1="-220.5323" y1="493.5977" x2="-219.5224" y2="494.6177" gradientTransform="matrix(151 0 0 -151 33300 74685.3906)">
				<stop  offset="0" style="stop-color:#4A72F5"/>
				<stop  offset="1" style="stop-color:#FD73D2"/>
			</linearGradient>
			<path id="Shape_3_copy_7" class="st0" d="M113.5,62L80.8,50.9c-3.5-1.2-7.2-1.2-10.7,0L37.5,62C36,62.6,35,64,35,65.6
				c0,1.6,1,3,2.5,3.5l15.1,5.2v11.2c0,2,2.4,3.6,7.3,4.8c10.3,2,20.9,2,31.2,0c1.7-0.4,3.3-0.9,4.9-1.7v2.3
				c-1.5,0.5-2.5,1.9-2.6,3.5v6.4c0,0.3,0.1,0.6,0.4,0.8c0.2,0.2,0.5,0.3,0.8,0.3h5.1c0.3,0,0.6-0.1,0.8-0.3
				c0.2-0.2,0.4-0.5,0.4-0.8v-6.4c0-1.6-1-3-2.5-3.5V74.3l15.1-5.2c1.5-0.5,2.5-1.9,2.5-3.5C116,64,115,62.6,113.5,62L113.5,62z
				 M90.6,88c-9.9,1.9-20.2,1.9-30.1,0C56,86.9,55,85.8,55,85.5v-2c1.5,0.8,3.2,1.3,4.9,1.7c10.3,2,20.9,2,31.2,0
				c1.7-0.4,3.3-0.9,4.9-1.7v2C96,85.8,95,86.9,90.6,88L90.6,88z M98.5,99.6h-2.7v-5.2c0-0.5,0.2-1,0.7-1.2s1-0.3,1.4,0
				s0.7,0.7,0.7,1.2V99.6L98.5,99.6z M96,80.4c0,0.2-1,1.4-5.4,2.4c-9.9,1.9-20.2,1.9-30.1,0C56,81.8,55,80.7,55,80.4v-5.3l15.1,5.2
				c3.5,1.2,7.2,1.2,10.7,0L96,75.1L96,80.4L96,80.4z M112.7,66.9l-14.3,4.9c-0.1,0-0.1-0.1-0.2-0.1L81.6,66
				c0.1-0.3,0.1-0.6,0.1-0.8c0-2.1-2.7-3.7-6.3-3.7s-6.3,1.6-6.3,3.7c0,2.1,2.7,3.7,6.3,3.7c1.5,0,3-0.3,4.4-1
				c0.1,0.1,0.2,0.1,0.3,0.2l14.5,5l-14.6,5c-3,1-6.2,1-9.1,0L38.3,66.9c-0.5-0.2-0.9-0.7-0.9-1.3c0-0.6,0.4-1.1,0.9-1.3l32.6-11.2
				c3-1,6.2-1,9.1,0l32.6,11.2c0.5,0.2,0.9,0.7,0.9,1.3C113.6,66.2,113.2,66.7,112.7,66.9L112.7,66.9z M79.4,65.2
				c0,0.3-1.3,1.3-3.9,1.3s-3.9-1-3.9-1.3s1.3-1.3,3.9-1.3S79.4,64.8,79.4,65.2L79.4,65.2z M75,0h1v10h-1V0L75,0z M75,141h1v10h-1
				V141L75,141z M151,75v1h-10v-1H151L151,75z M10,75v1H0v-1H10L10,75z M128.5,21.8l0.7,0.7l-7.1,7.1l-0.7-0.7L128.5,21.8z
				 M28.8,121.5l0.7,0.7l-7.1,7.1l-0.7-0.7L28.8,121.5z M129.2,128.5l-0.7,0.7l-7.1-7.1l0.7-0.7L129.2,128.5z M29.5,28.8l-0.7,0.7
				l-7.1-7.1l0.7-0.7L29.5,28.8z M112.8,9.9l0.9,0.5l-5,8.7l-0.9-0.5L112.8,9.9z M42.3,132l0.9,0.5l-5,8.7l-0.9-0.5L42.3,132z
				 M141.1,112.8l-0.5,0.9l-8.7-5l0.5-0.9L141.1,112.8z M19,42.3l-0.5,0.9l-8.7-5l0.5-0.9L19,42.3z M148.3,55.5l0.3,1l-9.7,2.6
				l-0.3-1L148.3,55.5z M12.1,92l0.3,1l-9.7,2.6l-0.3-1L12.1,92z M95.5,148.3l-1,0.3l-2.6-9.7l1-0.3L95.5,148.3z M59,12.1l-1,0.3
				l-2.6-9.7l1-0.3L59,12.1z M94.6,2.4l1,0.3l-2.6,9.7l-1-0.3L94.6,2.4z M58.1,138.6l1,0.3l-2.6,9.7l-1-0.3L58.1,138.6z M148.6,94.6
				l-0.3,1l-9.7-2.6l0.3-1L148.6,94.6z M12.4,58.1l-0.3,1l-9.7-2.6l0.3-1L12.4,58.1z M140.6,37.3l0.5,0.9l-8.7,5l-0.5-0.9
				L140.6,37.3z M18.5,107.8l0.5,0.9l-8.7,5l-0.5-0.9L18.5,107.8z M113.7,140.6l-0.9,0.5l-5-8.7l0.9-0.5L113.7,140.6z M43.2,18.5
				L42.3,19l-5-8.7l0.9-0.5L43.2,18.5z M102.8,5.1l0.9,0.4l-3.7,9.3l-0.9-0.4L102.8,5.1z M51,136.2l0.9,0.4l-3.7,9.3l-0.9-0.4
				L51,136.2z M145.9,102.8l-0.4,0.9l-9.3-3.7l0.4-0.9L145.9,102.8z M14.8,51l-0.4,0.9l-9.3-3.7l0.4-0.9L14.8,51z M144.6,45l0.4,0.9
				l-9.2,4l-0.4-0.9L144.6,45z M15.2,101.1l0.4,0.9l-9.2,4L6,105.1L15.2,101.1z M106,144.6l-0.9,0.4l-4-9.2l0.9-0.4L106,144.6z
				 M49.9,15.2L49,15.6l-4-9.2L45.9,6L49.9,15.2z M134.3,28.2l0.6,0.8l-7.8,6.2l-0.6-0.8L134.3,28.2z M23.9,115.8l0.6,0.8l-7.8,6.2
				l-0.6-0.8L23.9,115.8z M122.8,134.3l-0.8,0.6l-6.2-7.8l0.8-0.6L122.8,134.3z M35.2,23.9l-0.8,0.6l-6.2-7.8l0.8-0.6L35.2,23.9z
				 M150.6,83.6l-0.1,1l-9.9-1.1l0.1-1L150.6,83.6z M10.5,67.5l-0.1,1l-9.9-1.1l0.1-1L10.5,67.5z M67.4,150.6l-1-0.1l1.1-9.9l1,0.1
				L67.4,150.6z M83.5,10.5l-1-0.1l1.1-9.9l1,0.1L83.5,10.5z M120.1,14.6l0.8,0.6l-6,8l-0.8-0.6L120.1,14.6z M36.1,127.8l0.8,0.6
				l-6,8l-0.8-0.6L36.1,127.8z M136.4,120.1l-0.6,0.8l-8-5.9l0.6-0.8L136.4,120.1z M23.2,36.1l-0.6,0.8l-8-5.9l0.6-0.8L23.2,36.1z
				 M150.1,63.9l0.1,1l-9.9,1.5l-0.1-1L150.1,63.9z M10.6,84.6l0.1,1l-9.9,1.5l-0.1-1L10.6,84.6z M87.1,150.1l-1,0.1l-1.5-9.9l1-0.1
				L87.1,150.1z M66.4,10.6l-1,0.1l-1.5-9.9l1-0.1L66.4,10.6z"/>
		</g>
	</g>
</g>
</svg>
