<svg id="SvgjsSvg1000" xmlns="http://www.w3.org/2000/svg" version="1.1" xmlns:xlink="http://www.w3.org/1999/xlink" xmlns:svgjs="http://svgjs.com/svgjs" width="32" height="32"><defs id="SvgjsDefs1001"></defs><path id="SvgjsPath1007" d="M405.665 243.287L413.637 231.821C416.628 227.851 416.195 221.326 412.712 217.858C410.83 215.983 408.327 214.951 405.66499999999996 214.951C403.003 214.951 400.49999999999994 215.983 398.61799999999994 217.858C395.13399999999996 221.326 394.70199999999994 227.851 397.67999999999995 231.805ZM399.353 218.589C401.039 216.911 403.281 215.986 405.665 215.986C408.04900000000004 215.986 410.291 216.911 411.97700000000003 218.589C415.12100000000004 221.72 415.50800000000004 227.613 412.79400000000004 231.216L405.665 241.46800000000002L398.524 231.20000000000002C395.821 227.61300000000003 396.209 221.72000000000003 399.353 218.58900000000003ZM405.757 228.406C407.763 228.406 409.395 226.78 409.395 224.78300000000002C409.395 222.786 407.763 221.161 405.757 221.161C403.75100000000003 221.161 402.119 222.786 402.119 224.78300000000002C402.119 226.78000000000003 403.75100000000003 228.406 405.757 228.406ZM405.757 222.196C407.19 222.196 408.355 223.357 408.355 224.783C408.355 226.20999999999998 407.19 227.37099999999998 405.757 227.37099999999998C404.324 227.37099999999998 403.158 226.20999999999998 403.158 224.783C403.158 223.357 404.324 222.196 405.757 222.196ZM412.054 237.206C411.768 237.172 411.51 237.37599999999998 411.477 237.66C411.44399999999996 237.944 411.64799999999997 238.201 411.93199999999996 238.234C417.39699999999993 238.875 420.30799999999994 240.601 420.30799999999994 241.601C420.30799999999994 243.006 414.77199999999993 244.965 405.75699999999995 244.965C396.74099999999993 244.965 391.2049999999999 243.006 391.2049999999999 241.601C391.2049999999999 240.601 394.11599999999993 238.875 399.5809999999999 238.234C399.86599999999993 238.20100000000002 400.0699999999999 237.943 400.0369999999999 237.66C400.00299999999993 237.376 399.74499999999995 237.171 399.4599999999999 237.206C393.98799999999994 237.84799999999998 390.16599999999994 239.655 390.16599999999994 241.601C390.16599999999994 243.787 395.52099999999996 246 405.75699999999995 246C415.99199999999996 246 421.34799999999996 243.787 421.34799999999996 241.601C421.34799999999996 239.655 417.52599999999995 237.848 412.054 237.206Z " fill="#4a72f5" transform="matrix(1,0,0,1,-390,-214)"></path></svg>