<svg id="SvgjsSvg1011" xmlns="http://www.w3.org/2000/svg" version="1.1" xmlns:xlink="http://www.w3.org/1999/xlink" xmlns:svgjs="http://svgjs.com/svgjs" width="41" height="41"><defs id="SvgjsDefs1012"></defs><path id="SvgjsPath1013" d="M701.718 1371L662.827 1371C662.37 1371 662 1371.37 662 1371.83L662 1400.1699999999998C662 1400.6299999999999 662.37 1400.9999999999998 662.827 1400.9999999999998L676.067 1400.9999999999998L676.067 1406.8299999999997L674.412 1406.8299999999997C673.955 1406.8299999999997 673.5840000000001 1407.2099999999998 673.5840000000001 1407.6699999999996L673.5840000000001 1410.9999999999995C673.5840000000001 1411.4599999999996 673.955 1411.8299999999995 674.412 1411.8299999999995L690.134 1411.8299999999995C690.591 1411.8299999999995 690.961 1411.4599999999996 690.961 1410.9999999999995L690.961 1407.6699999999996C690.961 1407.2099999999996 690.591 1406.8299999999997 690.134 1406.8299999999997L688.479 1406.8299999999997L688.479 1400.9999999999998L701.7180000000001 1400.9999999999998C702.1750000000001 1400.9999999999998 702.546 1400.6299999999999 702.546 1400.1699999999998L702.546 1371.83C702.546 1371.37 702.1750000000001 1371 701.7180000000001 1371ZM700.891 1393.08L693.444 1393.08L693.444 1381L693.442 1381C693.442 1380.78 693.36 1380.57 693.201 1380.41L688.65 1375.8300000000002C688.492 1375.67 688.28 1375.5900000000001 688.0649999999999 1375.5900000000001L688.0649999999999 1375.5800000000002L671.93 1375.5800000000002C671.473 1375.5800000000002 671.102 1375.9600000000003 671.102 1376.42L671.102 1393.0800000000002L663.655 1393.0800000000002L663.655 1372.67L700.891 1372.67ZM688.065 1381.83L691.7890000000001 1381.83L691.7890000000001 1393.08L672.7570000000001 1393.08L672.7570000000001 1377.25L687.238 1377.25L687.238 1381C687.238 1381.46 687.6080000000001 1381.83 688.065 1381.83ZM700.891 1399.33L663.655 1399.33L663.655 1394.75L700.891 1394.75ZM677.722 1406.83L677.722 1401L686.824 1401L686.824 1406.83ZM689.306 1408.5L689.306 1410.17L675.239 1410.17L675.239 1408.5ZM682 1384L682 1382L674 1382L674 1384ZM690 1387L690 1386L674 1386L674 1387ZM679 1381L679 1379L674 1379L674 1381ZM688.893 1380.17L688.893 1378.43L690.619 1380.17ZM690 1391L690 1389L674 1389L674 1391Z " fill="#4a72f5" transform="matrix(1,0,0,1,-662,-1371)"></path></svg>