<svg id="SvgjsSvg1011" xmlns="http://www.w3.org/2000/svg" version="1.1" xmlns:xlink="http://www.w3.org/1999/xlink" xmlns:svgjs="http://svgjs.com/svgjs" width="33" height="32"><defs id="SvgjsDefs1012"></defs><path id="SvgjsPath1013" d="M411.993 306L398.955 306C397.698 306 396.674 307.023 396.674 308.279L396.674 334.769C396.674 336.026 397.698 337.049 398.955 337.049L411.993 337.049C413.25 337.049 414.27299999999997 336.02599999999995 414.27299999999997 334.769L414.27299999999997 308.279C414.27299999999997 307.023 413.24999999999994 306 411.993 306ZM397.71 310.14L413.238 310.14L413.238 329.804L397.71 329.804ZM411.993 336.014L398.955 336.014C398.268 336.014 397.71 335.456 397.71 334.769L397.71 330.839L413.238 330.839L413.238 334.769C413.238 335.456 412.68 336.014 411.993 336.014ZM398.955 307.035L411.993 307.035C412.68 307.035 413.238 307.593 413.238 308.27900000000005L413.238 309.1050000000001L397.71 309.1050000000001L397.71 308.27900000000005C397.71 307.5930000000001 398.268 307.035 398.955 307.035ZM392.431 309.096C392.633 308.894 392.633 308.567 392.431 308.364C392.229 308.162 391.901 308.162 391.69899999999996 308.364C389.36099999999993 310.70099999999996 389.36099999999993 314.50399999999996 391.69899999999996 316.84099999999995C391.79999999999995 316.94199999999995 391.93199999999996 316.99199999999996 392.06499999999994 316.99199999999996C392.19699999999995 316.99199999999996 392.3299999999999 316.94199999999995 392.4309999999999 316.84099999999995C392.6329999999999 316.638 392.6329999999999 316.311 392.4309999999999 316.1089999999999C390.4969999999999 314.17599999999993 390.4969999999999 311.0299999999999 392.4309999999999 309.09599999999995ZM419.249 308.364C419.04600000000005 308.162 418.71900000000005 308.162 418.517 308.364C418.315 308.56699999999995 418.315 308.89399999999995 418.517 309.096C420.451 311.029 420.451 314.175 418.517 316.109C418.315 316.311 418.315 316.638 418.517 316.841C418.618 316.942 418.75 316.992 418.883 316.992C419.015 316.992 419.14799999999997 316.942 419.24899999999997 316.841C421.58599999999996 314.504 421.58599999999996 310.701 419.24899999999997 308.36400000000003ZM405.474 331.357C404.332 331.357 403.40299999999996 332.285 403.40299999999996 333.427C403.40299999999996 334.56800000000004 404.33199999999994 335.49600000000004 405.474 335.49600000000004C406.616 335.49600000000004 407.544 334.56800000000004 407.544 333.427C407.544 332.285 406.616 331.357 405.474 331.357ZM417.069 309.542C416.867 309.34 416.54 309.34 416.337 309.542C416.135 309.74399999999997 416.135 310.07199999999995 416.337 310.274C416.978 310.914 417.33 311.767 417.33 312.674C417.33 313.582 416.978 314.43399999999997 416.337 315.075C416.135 315.277 416.135 315.604 416.337 315.806C416.438 315.907 416.57099999999997 315.95799999999997 416.703 315.95799999999997C416.83599999999996 315.95799999999997 416.96799999999996 315.907 417.06899999999996 315.806C417.905 314.971 418.36499999999995 313.859 418.36499999999995 312.674C418.36499999999995 311.48999999999995 417.90599999999995 310.37699999999995 417.06899999999996 309.542ZM405.474 334.462C404.90299999999996 334.462 404.43899999999996 333.997 404.43899999999996 333.42699999999996C404.43899999999996 332.85599999999994 404.90299999999996 332.39199999999994 405.474 332.39199999999994C406.045 332.39199999999994 406.509 332.85599999999994 406.509 333.42699999999996C406.509 333.99699999999996 406.045 334.462 405.474 334.462ZM403.403 308.587L405.47400000000005 308.587C405.76000000000005 308.587 405.992 308.356 405.992 308.07C405.992 307.784 405.76 307.552 405.47400000000005 307.552L403.403 307.552C403.117 307.552 402.886 307.78400000000005 402.886 308.07C402.886 308.356 403.117 308.587 403.403 308.587ZM407.027 308.587L407.544 308.587C407.83099999999996 308.587 408.06199999999995 308.356 408.06199999999995 308.07C408.06199999999995 307.784 407.83099999999996 307.552 407.544 307.552L407.027 307.552C406.741 307.552 406.509 307.78400000000005 406.509 308.07C406.509 308.356 406.74100000000004 308.587 407.027 308.587ZM394.611 309.399C394.408 309.197 394.081 309.197 393.87899999999996 309.399C393.04299999999995 310.235 392.58299999999997 311.347 392.58299999999997 312.531C392.58299999999997 313.71500000000003 393.04299999999995 314.82800000000003 393.87899999999996 315.663C393.97999999999996 315.764 394.11199999999997 315.815 394.24499999999995 315.815C394.37699999999995 315.815 394.50999999999993 315.764 394.61099999999993 315.663C394.81299999999993 315.461 394.81299999999993 315.134 394.61099999999993 314.932C393.9699999999999 314.29200000000003 393.61799999999994 313.439 393.61799999999994 312.531C393.61799999999994 311.624 393.9699999999999 310.771 394.61099999999993 310.13100000000003C394.81299999999993 309.92900000000003 394.81299999999993 309.60200000000003 394.61099999999993 309.399Z " fill="#4a72f5" transform="matrix(1,0,0,1,-389,-306)"></path></svg>