<svg id="SvgjsSvg1014" xmlns="http://www.w3.org/2000/svg" version="1.1" xmlns:xlink="http://www.w3.org/1999/xlink" xmlns:svgjs="http://svgjs.com/svgjs" width="24" height="24"><defs id="SvgjsDefs1015"></defs><path id="SvgjsPath1016" d="M403 1520C396.383 1520 391 1525.38 391 1532C391 1538.62 396.383 1544 403 1544C409.617 1544 415 1538.62 415 1532C415 1525.38 409.617 1520 403 1520ZM403 1543.08C396.893 1543.08 391.923 1538.11 391.923 1532C391.923 1525.89 396.89300000000003 1520.92 403 1520.92C409.108 1520.92 414.077 1525.89 414.077 1532C414.077 1538.11 409.108 1543.08 403 1543.08ZM408.655 1527.08L401.561 1535.06L397.28799999999995 1531.6399999999999C397.09 1531.4799999999998 396.79799999999994 1531.5099999999998 396.63999999999993 1531.7099999999998C396.4799999999999 1531.9099999999999 396.5129999999999 1532.1999999999998 396.71199999999993 1532.36L401.32699999999994 1536.05C401.4119999999999 1536.12 401.51399999999995 1536.1499999999999 401.61499999999995 1536.1499999999999C401.74299999999994 1536.1499999999999 401.86999999999995 1536.1 401.96099999999996 1535.9999999999998L409.34499999999997 1527.6899999999998C409.515 1527.4999999999998 409.498 1527.2099999999998 409.30699999999996 1527.0399999999997C409.116 1526.8699999999997 408.82499999999993 1526.8899999999996 408.655 1527.0799999999997Z " fill="#ffffff" transform="matrix(1,0,0,1,-391,-1520)"></path></svg>