<svg id="SvgjsSvg1043" xmlns="http://www.w3.org/2000/svg" version="1.1" xmlns:xlink="http://www.w3.org/1999/xlink" xmlns:svgjs="http://svgjs.com/svgjs" width="35" height="44"><defs id="SvgjsDefs1044"></defs><path id="SvgjsPath1045" d="M1057.2 2261.09C1057.5800000000002 2261.09 1057.89 2260.78 1057.89 2260.3900000000003L1057.89 2255.4600000000005C1057.89 2253.5500000000006 1056.3300000000002 2252.0000000000005 1054.42 2252.0000000000005L1026.5 2252.0000000000005C1024.57 2252.0000000000005 1023.06 2253.5200000000004 1023.06 2255.4600000000005L1023.06 2286.8700000000003C1023.06 2288.8300000000004 1024.6 2290.4200000000005 1026.5 2290.4200000000005L1033.28 2290.4200000000005L1033.28 2295.3000000000006C1033.28 2295.5400000000004 1033.41 2295.7700000000004 1033.61 2295.890000000001C1033.82 2296.020000000001 1034.07 2296.0300000000007 1034.28 2295.9300000000007L1037.66 2294.210000000001L1041.0400000000002 2295.9300000000007C1041.14 2295.9700000000007 1041.2400000000002 2296.000000000001 1041.3500000000001 2296.000000000001C1041.47 2296.000000000001 1041.6000000000001 2295.960000000001 1041.71 2295.890000000001C1041.91 2295.770000000001 1042.04 2295.540000000001 1042.04 2295.3000000000006L1042.04 2290.4200000000005L1054.42 2290.4000000000005C1056.3300000000002 2290.4000000000005 1057.89 2288.8200000000006 1057.89 2286.8700000000003L1057.89 2281.9400000000005C1057.89 2281.5500000000006 1057.5800000000002 2281.2400000000007 1057.2 2281.2400000000007L1052.3600000000001 2281.2400000000007L1052.3600000000001 2261.0900000000006ZM1042.04 2284.86C1043.23 2283.67 1043.9099999999999 2282.04 1043.9099999999999 2280.33C1043.9099999999999 2276.85 1041.12 2274.0099999999998 1037.6899999999998 2274.0099999999998C1034.2599999999998 2274.0099999999998 1031.4699999999998 2276.85 1031.4699999999998 2280.33C1031.4699999999998 2282 1032.1299999999999 2283.61 1033.2799999999997 2284.79L1033.2799999999997 2289.02L1026.4999999999998 2289.02C1025.3599999999997 2289.02 1024.4399999999998 2288.05 1024.4399999999998 2286.87L1024.4399999999998 2255.46C1024.4399999999998 2254.31 1025.35 2253.41 1026.4999999999998 2253.41L1051.6699999999998 2253.41C1051.2299999999998 2253.99 1050.9799999999998 2254.72 1050.9799999999998 2255.5099999999998L1050.9799999999998 2286.87C1050.9799999999998 2287.67 1051.2399999999998 2288.41 1051.6799999999998 2289L1042.0399999999997 2289.02ZM1041.02 2283.9C1040.92 2283.9500000000003 1040.84 2284.03 1040.78 2284.12C1039.91 2284.85 1038.82 2285.25 1037.69 2285.25C1036.49 2285.25 1035.3400000000001 2284.8 1034.45 2283.98C1033.44 2283.05 1032.8600000000001 2281.72 1032.8600000000001 2280.33C1032.8600000000001 2277.62 1035.0300000000002 2275.42 1037.69 2275.42C1040.3600000000001 2275.42 1042.53 2277.62 1042.53 2280.33C1042.53 2281.68 1041.98 2282.97 1041.02 2283.9ZM1040.66 2294.16L1037.97 2292.79C1037.78 2292.69 1037.55 2292.69 1037.3500000000001 2292.79L1034.67 2294.16L1034.67 2285.8599999999997C1035.5900000000001 2286.3799999999997 1036.6200000000001 2286.66 1037.69 2286.66C1038.74 2286.66 1039.75 2286.39 1040.66 2285.8999999999996ZM1037.69 2276.82C1035.79 2276.82 1034.24 2278.4 1034.24 2280.3300000000004C1034.24 2282.2700000000004 1035.79 2283.8500000000004 1037.69 2283.8500000000004C1039.6000000000001 2283.8500000000004 1041.15 2282.2700000000004 1041.15 2280.3300000000004C1041.15 2278.4000000000005 1039.6000000000001 2276.82 1037.69 2276.82ZM1046.92 2266.24L1028.49 2266.24C1028.11 2266.24 1027.8 2266.56 1027.8 2266.95C1027.8 2267.3399999999997 1028.11 2267.6499999999996 1028.49 2267.6499999999996L1046.92 2267.6499999999996C1047.3000000000002 2267.6499999999996 1047.6100000000001 2267.3399999999997 1047.6100000000001 2266.95C1047.6100000000001 2266.56 1047.3000000000002 2266.24 1046.92 2266.24ZM1056.51 2282.64L1056.51 2286.87C1056.51 2288.02 1055.55 2288.99 1054.42 2288.99C1053.28 2288.99 1052.3600000000001 2288.04 1052.3600000000001 2286.87L1052.3600000000001 2282.64ZM1056.51 2255.46L1056.51 2259.68L1052.36 2259.68L1052.36 2255.5099999999998C1052.36 2254.35 1053.28 2253.41 1054.4199999999998 2253.41C1055.57 2253.41 1056.5099999999998 2254.33 1056.5099999999998 2255.46ZM1028.49 2264.84L1041.39 2264.84C1041.7800000000002 2264.84 1042.0800000000002 2264.52 1042.0800000000002 2264.1400000000003C1042.0800000000002 2263.7500000000005 1041.7800000000002 2263.4300000000003 1041.39 2263.4300000000003L1028.49 2263.4300000000003C1028.11 2263.4300000000003 1027.8 2263.7500000000005 1027.8 2264.1400000000003C1027.8 2264.5200000000004 1028.11 2264.84 1028.49 2264.84ZM1044.16 2269.06L1031.26 2269.06C1030.8799999999999 2269.06 1030.57 2269.37 1030.57 2269.7599999999998C1030.57 2270.1499999999996 1030.8799999999999 2270.4599999999996 1031.26 2270.4599999999996L1044.16 2270.4599999999996C1044.5400000000002 2270.4599999999996 1044.8500000000001 2270.1499999999996 1044.8500000000001 2269.7599999999998C1044.8500000000001 2269.37 1044.5400000000002 2269.06 1044.16 2269.06ZM1037.69 2282.44C1036.55 2282.44 1035.6200000000001 2281.5 1035.6200000000001 2280.33C1035.6200000000001 2279.17 1036.5500000000002 2278.23 1037.69 2278.23C1038.8400000000001 2278.23 1039.77 2279.17 1039.77 2280.33C1039.77 2281.5 1038.84 2282.44 1037.69 2282.44ZM1046.92 2263.43L1044.16 2263.43C1043.78 2263.43 1043.47 2263.75 1043.47 2264.14C1043.47 2264.52 1043.78 2264.8399999999997 1044.16 2264.8399999999997L1046.92 2264.8399999999997C1047.3000000000002 2264.8399999999997 1047.6100000000001 2264.5199999999995 1047.6100000000001 2264.14C1047.6100000000001 2263.75 1047.3000000000002 2263.43 1046.92 2263.43ZM1030.82 2260.96C1030.95 2261.06 1031.09 2261.11 1031.24 2261.11C1031.45 2261.11 1031.65 2261.01 1031.79 2260.84L1033.3899999999999 2258.7400000000002L1034.9999999999998 2260.8300000000004C1035.1299999999999 2261.01 1035.3299999999997 2261.1100000000006 1035.5399999999997 2261.1100000000006C1035.7599999999998 2261.1100000000006 1035.9599999999998 2261.0100000000007 1036.0899999999997 2260.8300000000004L1037.6899999999996 2258.7400000000002L1039.2999999999995 2260.8300000000004C1039.4299999999996 2261.01 1039.6299999999994 2261.1100000000006 1039.8399999999995 2261.1100000000006C1040.0599999999995 2261.1100000000006 1040.2599999999995 2261.0100000000007 1040.3899999999994 2260.8300000000004L1041.9899999999993 2258.7400000000002L1043.5999999999992 2260.8300000000004C1043.8299999999992 2261.1400000000003 1044.2699999999993 2261.2000000000003 1044.5699999999993 2260.9600000000005C1044.8699999999992 2260.7200000000007 1044.9199999999992 2260.2800000000007 1044.6899999999991 2259.9700000000007L1042.539999999999 2257.1600000000008C1042.409999999999 2256.9900000000007 1042.2099999999991 2256.890000000001 1041.989999999999 2256.890000000001C1041.779999999999 2256.890000000001 1041.579999999999 2256.9900000000007 1041.4499999999991 2257.1600000000008L1039.8399999999992 2259.2600000000007L1038.2399999999993 2257.1600000000008C1038.1099999999992 2256.9900000000007 1037.9099999999994 2256.890000000001 1037.6899999999994 2256.890000000001C1037.4799999999993 2256.890000000001 1037.2799999999993 2256.9900000000007 1037.1499999999994 2257.1600000000008L1035.5399999999995 2259.2600000000007L1033.9399999999996 2257.1600000000008C1033.8099999999995 2256.9900000000007 1033.6099999999997 2256.890000000001 1033.3899999999996 2256.890000000001C1033.1799999999996 2256.890000000001 1032.9799999999996 2256.9900000000007 1032.8499999999997 2257.1600000000008L1030.6999999999996 2259.9700000000007C1030.4599999999996 2260.2800000000007 1030.5199999999995 2260.7200000000007 1030.8199999999995 2260.9600000000005Z " fill="#4a72f5" transform="matrix(1,0,0,1,-1023,-2252)"></path></svg>