<?xml version="1.0" encoding="utf-8"?>
<!-- Generator: Adobe Illustrator 19.2.1, SVG Export Plug-In . SVG Version: 6.00 Build 0)  -->
<svg version="1.1" id="Шар_1" xmlns="http://www.w3.org/2000/svg" xmlns:xlink="http://www.w3.org/1999/xlink" x="0px" y="0px"
	 viewBox="0 0 151 151" style="enable-background:new 0 0 151 151;" xml:space="preserve">
<style type="text/css">
	.st0{fill:url(#Shape_3_copy_6_1_);}
</style>
<title>Shape_3_copy_6</title>
<desc>Created with Sketch.</desc>
<g id="Page-1">
	<g id="Desktop-HD-Copy-3" transform="translate(-495.000000, -4455.000000)">
		<g id="Shape-3-copy-6" transform="translate(495.000000, 4455.000000)">
			
				<linearGradient id="Shape_3_copy_6_1_" gradientUnits="userSpaceOnUse" x1="-220.5323" y1="493.5977" x2="-219.5223" y2="494.6177" gradientTransform="matrix(151 0 0 -151 33300 74685.3906)">
				<stop  offset="0" style="stop-color:#4A72F5"/>
				<stop  offset="1" style="stop-color:#FD73D2"/>
			</linearGradient>
			<path id="Shape_3_copy_6" class="st0" d="M95.1,48.9h-7.9v-0.1c0-1.1-0.8-1.9-1.9-1.9h-5v-0.1c0-1.6-1.3-2.9-2.9-2.9h-3.9
				c-1.6,0-2.9,1.3-2.9,2.9V47h-5c-1.1,0-1.9,0.9-1.9,1.9v0.1h-7.9c-2.7,0-4.9,2.2-4.9,4.9v48.3c0,2.7,2.2,4.9,4.9,4.9h39.3
				c2.7,0,4.9-2.2,4.9-4.9V53.8C100,51.1,97.8,48.9,95.1,48.9L95.1,48.9z M86.3,54.7h7.9c0,0,0,0,0,0s0,0,0,0v46.3
				c0,0,0,0.1-0.1,0.1H56.8c0,0,0,0,0,0c0,0,0,0,0,0V54.8c0,0,0,0,0,0s0,0,0,0h7.9c0,0,0,0,0,0c0.9,1.2,2.4,2,3.9,2h13.8
				C83.9,56.7,85.4,56,86.3,54.7C86.3,54.7,86.3,54.7,86.3,54.7L86.3,54.7z M72.5,46.9c0-0.6,0.5-1,1-1.1h3.9c0.6,0,1,0.5,1,1.1V47
				L72.5,46.9L72.5,46.9L72.5,46.9z M65.6,48.9C65.6,48.8,65.6,48.8,65.6,48.9l19.7-0.1c0,0,0.1,0,0.1,0.1v1l0,0v2c0,1.7-1.3,3-3,3
				H68.6c-1.7,0-3-1.4-3-3V48.9L65.6,48.9z M98.2,102.1c0,1.7-1.3,3-3,3H55.8c-1.7,0-3-1.4-3-3V53.8c0-1.7,1.3-3,3-3h7.9v1.1
				c0,0.4,0,0.7,0.1,1h-7.1c-0.5,0-1,0.2-1.3,0.6c-0.4,0.4-0.6,0.8-0.6,1.3v46.3c0,0.5,0.2,1,0.6,1.3c0.4,0.4,0.8,0.6,1.3,0.6h37.3
				c0.5,0,1-0.2,1.3-0.6c0.4-0.4,0.6-0.8,0.6-1.3V54.8c0-0.5-0.2-1-0.6-1.3c-0.4-0.4-0.8-0.6-1.3-0.6h-7.1c0.1-0.3,0.1-0.7,0.1-1
				v-1.1h7.9c1.7,0,3,1.4,3,3L98.2,102.1L98.2,102.1z M61.9,70.5h7.6c0.3,0,0.5-0.1,0.7-0.3c0.2-0.2,0.3-0.5,0.3-0.7v-7.6
				c0-0.6-0.5-1-1-1h-7.6c-0.6,0-1,0.5-1,1v7.6C60.8,70,61.3,70.5,61.9,70.5L61.9,70.5z M62.7,62.6h6v6h-6V62.6L62.7,62.6z
				 M69.5,86.4h-7.6c-0.6,0-1,0.5-1,1v7.6c0,0.6,0.5,1,1,1.1h7.6c0.3,0,0.5-0.1,0.7-0.3c0.2-0.2,0.3-0.5,0.3-0.7v-7.6
				c0-0.3-0.1-0.5-0.3-0.7C70,86.5,69.8,86.4,69.5,86.4L69.5,86.4z M68.7,94.3h-6v-6h6V94.3L68.7,94.3z M70.9,73.9l-0.7,0.7
				c-0.3-0.6-1-0.9-1.6-0.9h-5.9c-1.1,0-1.9,0.9-1.9,1.9v5.9c0,1.1,0.8,1.9,1.9,1.9h5.9c1.1,0,1.9-0.9,1.9-1.9v-1
				c0-0.5-0.4-0.9-0.9-0.9c-0.5,0-0.9,0.4-0.9,0.9v1c0,0,0,0.1-0.1,0.1h-5.9c0,0-0.1,0-0.1-0.1v-5.9c0,0,0-0.1,0.1-0.1h5.9
				c0,0,0.1,0,0.1,0.1v0.6l-2,2l-1.3-1.3c-0.4-0.4-0.9-0.4-1.3,0c-0.4,0.4-0.4,0.9,0,1.3l2,2c0.4,0.4,0.9,0.4,1.3,0l2.9-3l0,0l2-2
				c0.4-0.4,0.4-0.9,0-1.3C71.9,73.5,71.3,73.5,70.9,73.9L70.9,73.9z M73.5,63.6h2.9c0.5,0,0.9-0.4,0.9-0.9s-0.4-0.9-0.9-0.9h-2.9
				c-0.5,0-0.9,0.4-0.9,0.9C72.6,63.2,73,63.6,73.5,63.6L73.5,63.6z M72.6,66.6c0,0.5,0.4,0.9,0.9,0.9h14.7c0.5,0,0.9-0.4,0.9-0.9
				s-0.4-0.9-0.9-0.9H73.5c-0.2,0-0.5,0.1-0.7,0.3C72.7,66.1,72.6,66.4,72.6,66.6L72.6,66.6z M73.5,77.4h9.8c0.5,0,0.9-0.4,0.9-0.9
				s-0.4-0.9-0.9-0.9h-9.8c-0.3,0-0.6,0.2-0.8,0.5c-0.2,0.3-0.2,0.6,0,0.9C72.9,77.2,73.2,77.4,73.5,77.4L73.5,77.4z M88.3,79.5
				H73.5c-0.5,0-0.9,0.4-0.9,0.9s0.4,0.9,0.9,0.9h14.7c0.3,0,0.6-0.2,0.8-0.5s0.2-0.6,0-0.9C88.9,79.7,88.6,79.5,88.3,79.5
				L88.3,79.5z M73.5,90.2h3.9c0.5,0,0.9-0.4,0.9-0.9s-0.4-0.9-0.9-0.9h-3.9c-0.3,0-0.6,0.2-0.8,0.5c-0.2,0.3-0.2,0.6,0,0.9
				C72.9,90.1,73.2,90.2,73.5,90.2L73.5,90.2z M88.3,92.3H73.5c-0.5,0-0.9,0.4-0.9,0.9s0.4,0.9,0.9,0.9h14.7c0.5,0,0.9-0.4,0.9-0.9
				S88.8,92.3,88.3,92.3L88.3,92.3z M75,0h1v10h-1V0L75,0z M75,141h1v10h-1V141L75,141z M151,75v1h-10v-1H151L151,75z M10,75v1H0v-1
				H10L10,75z M128.5,21.8l0.7,0.7l-7.1,7.1l-0.7-0.7L128.5,21.8z M28.8,121.5l0.7,0.7l-7.1,7.1l-0.7-0.7L28.8,121.5z M129.2,128.5
				l-0.7,0.7l-7.1-7.1l0.7-0.7L129.2,128.5z M29.5,28.8l-0.7,0.7l-7.1-7.1l0.7-0.7L29.5,28.8z M112.8,9.9l0.9,0.5l-5,8.7l-0.9-0.5
				L112.8,9.9z M42.3,132l0.9,0.5l-5,8.7l-0.9-0.5L42.3,132z M141.1,112.8l-0.5,0.9l-8.7-5l0.5-0.9L141.1,112.8z M19,42.3l-0.5,0.9
				l-8.7-5l0.5-0.9L19,42.3z M148.3,55.5l0.3,1l-9.7,2.6l-0.3-1L148.3,55.5z M12.1,92l0.3,1l-9.7,2.6l-0.3-1L12.1,92z M95.5,148.3
				l-1,0.3l-2.6-9.7l1-0.3L95.5,148.3z M59,12.1l-1,0.3l-2.6-9.7l1-0.3L59,12.1z M94.6,2.4l1,0.3l-2.6,9.7l-1-0.3L94.6,2.4z
				 M58.1,138.6l1,0.3l-2.6,9.7l-1-0.3L58.1,138.6z M148.6,94.6l-0.3,1l-9.7-2.6l0.3-1L148.6,94.6z M12.4,58.1l-0.3,1l-9.7-2.6
				l0.3-1L12.4,58.1z M140.6,37.3l0.5,0.9l-8.7,5l-0.5-0.9L140.6,37.3z M18.5,107.8l0.5,0.9l-8.7,5l-0.5-0.9L18.5,107.8z
				 M113.7,140.6l-0.9,0.5l-5-8.7l0.9-0.5L113.7,140.6z M43.2,18.5L42.3,19l-5-8.7l0.9-0.5L43.2,18.5z M102.8,5.1l0.9,0.4l-3.7,9.3
				l-0.9-0.4L102.8,5.1z M51,136.2l0.9,0.4l-3.7,9.3l-0.9-0.4L51,136.2z M145.9,102.8l-0.4,0.9l-9.3-3.7l0.4-0.9L145.9,102.8z
				 M14.8,51l-0.4,0.9l-9.3-3.7l0.4-0.9L14.8,51z M144.6,45l0.4,0.9l-9.2,4l-0.4-0.9L144.6,45z M15.2,101.1l0.4,0.9l-9.2,4L6,105.1
				L15.2,101.1z M106,144.6l-0.9,0.4l-4-9.2l0.9-0.4L106,144.6z M49.9,15.2L49,15.6l-4-9.2L45.9,6L49.9,15.2z M134.3,28.2l0.6,0.8
				l-7.8,6.2l-0.6-0.8L134.3,28.2z M23.9,115.8l0.6,0.8l-7.8,6.2l-0.6-0.8L23.9,115.8z M122.8,134.3l-0.8,0.6l-6.2-7.8l0.8-0.6
				L122.8,134.3z M35.2,23.9l-0.8,0.6l-6.2-7.8l0.8-0.6L35.2,23.9z M150.6,83.6l-0.1,1l-9.9-1.1l0.1-1L150.6,83.6z M10.5,67.5
				l-0.1,1l-9.9-1.1l0.1-1L10.5,67.5z M67.4,150.6l-1-0.1l1.1-9.9l1,0.1L67.4,150.6z M83.5,10.5l-1-0.1l1.1-9.9l1,0.1L83.5,10.5z
				 M120.1,14.6l0.8,0.6l-6,8l-0.8-0.6L120.1,14.6z M36.1,127.8l0.8,0.6l-6,8l-0.8-0.6L36.1,127.8z M136.4,120.1l-0.6,0.8l-8-5.9
				l0.6-0.8L136.4,120.1z M23.2,36.1l-0.6,0.8l-8-5.9l0.6-0.8L23.2,36.1z M150.1,63.9l0.1,1l-9.9,1.5l-0.1-1L150.1,63.9z M10.6,84.6
				l0.1,1l-9.9,1.5l-0.1-1L10.6,84.6z M87.1,150.1l-1,0.1l-1.5-9.9l1-0.1L87.1,150.1z M66.4,10.6l-1,0.1l-1.5-9.9l1-0.1L66.4,10.6z"
				/>
		</g>
	</g>
</g>
</svg>
