<?xml version="1.0" encoding="utf-8"?>
<!-- Generator: Adobe Illustrator 19.2.1, SVG Export Plug-In . SVG Version: 6.00 Build 0)  -->
<svg version="1.1" id="Шар_1" xmlns="http://www.w3.org/2000/svg" xmlns:xlink="http://www.w3.org/1999/xlink" x="0px" y="0px"
	 viewBox="0 0 151 151" style="enable-background:new 0 0 151 151;" xml:space="preserve">
<style type="text/css">
	.st0{fill:url(#Shape_3_copy_8_1_);}
</style>
<title>Shape_3_copy_8</title>
<desc>Created with Sketch.</desc>
<g id="Page-1">
	<g id="Desktop-HD-Copy-3" transform="translate(-1276.000000, -4455.000000)">
		<g id="Shape-3-copy-8" transform="translate(1276.000000, 4455.000000)">
			
				<linearGradient id="Shape_3_copy_8_1_" gradientUnits="userSpaceOnUse" x1="-220.5323" y1="493.5977" x2="-219.5224" y2="494.6177" gradientTransform="matrix(151 0 0 -151 33300 74685.3906)">
				<stop  offset="0" style="stop-color:#4A72F5"/>
				<stop  offset="1" style="stop-color:#FD73D2"/>
			</linearGradient>
			<path id="Shape_3_copy_8" class="st0" d="M105.9,51H44.1c-1.7,0-3.1,1.4-3.1,3.1v42.7c0,1.7,1.4,3.1,3.1,3.1h61.7
				c1.7,0,3.1-1.4,3.1-3.1V54.1C109,52.4,107.6,51,105.9,51L105.9,51z M107,96.9c0,0.3-0.1,0.6-0.3,0.8c-0.2,0.2-0.5,0.3-0.8,0.3
				H44.1c-0.3,0-0.6-0.1-0.8-0.3c-0.2-0.2-0.3-0.5-0.3-0.8V54.1c0-0.3,0.1-0.6,0.3-0.8c0.2-0.2,0.5-0.3,0.8-0.3h61.7
				c0.3,0,0.6,0.1,0.8,0.3c0.2,0.2,0.3,0.5,0.3,0.8V96.9L107,96.9z M46.3,60.6c-0.3,0-0.5,0.1-0.7,0.3c-0.2,0.2-0.3,0.4-0.3,0.7
				c0,0.6,0.4,1,1,1c0.3,0,0.5-0.1,0.7-0.3c0.2-0.2,0.3-0.4,0.3-0.7C47.2,61.1,46.8,60.6,46.3,60.6L46.3,60.6z M45.3,65.9v19.2
				c0,0.4,0.1,0.7,0.5,0.9c0.3,0.2,0.7,0.2,1.1,0c0.3-0.2,0.5-0.6,0.5-0.9V65.9c0-0.4-0.1-0.7-0.5-0.9c-0.3-0.2-0.7-0.2-1.1,0
				C45.4,65.1,45.2,65.5,45.3,65.9L45.3,65.9z M102.8,65.9v19.2c0,0.4,0.1,0.7,0.5,0.9c0.3,0.2,0.7,0.2,1.1,0
				c0.3-0.2,0.5-0.6,0.5-0.9V65.9c0-0.4-0.1-0.7-0.5-0.9c-0.3-0.2-0.7-0.2-1.1,0C102.9,65.1,102.7,65.5,102.8,65.9L102.8,65.9z
				 M94.2,93.7H55.8c-0.6,0-1,0.4-1,1s0.4,1,1,1h38.3c0.6,0,1-0.4,1-1S94.7,93.7,94.2,93.7L94.2,93.7z M55.8,57.3h38.3
				c0.6,0,1-0.4,1-1s-0.4-1-1-1H55.8c-0.6,0-1,0.4-1,1S55.3,57.3,55.8,57.3L55.8,57.3z M47,55.6c-0.2-0.2-0.4-0.3-0.7-0.3
				s-0.5,0.1-0.7,0.3c-0.4,0.4-0.4,1,0,1.4l3.2,3.2c0.4,0.4,1,0.4,1.4,0c0.4-0.4,0.4-1,0-1.4L47,55.6z M98.4,55.3c-0.6,0-1,0.4-1,1
				s0.4,1,1,1s1-0.4,1-1S99,55.3,98.4,55.3L98.4,55.3z M103.7,60.6c-0.5,0-1,0.5-1,1c0,0.3,0.1,0.5,0.3,0.7c0.2,0.2,0.4,0.3,0.7,0.3
				c0.3,0,0.5-0.1,0.7-0.3c0.4-0.4,0.4-1,0-1.4C104.3,60.7,104,60.6,103.7,60.6L103.7,60.6z M103,55.6l-3.2,3.2
				c-0.4,0.4-0.4,1,0,1.4c0.4,0.4,1,0.4,1.4,0l3.2-3.2c0.4-0.4,0.4-1,0-1.4c-0.2-0.2-0.4-0.3-0.7-0.3S103.2,55.4,103,55.6L103,55.6z
				 M103,90.1c0.2,0.2,0.4,0.3,0.7,0.3c0.3,0,0.5-0.1,0.7-0.3c0.4-0.4,0.4-1,0-1.4c-0.2-0.2-0.4-0.3-0.7-0.3c-0.4,0-0.8,0.2-0.9,0.6
				C102.7,89.4,102.8,89.8,103,90.1L103,90.1z M98.4,93.7c-0.6,0-1,0.4-1,1s0.4,1,1,1s1-0.4,1-1S99,93.7,98.4,93.7L98.4,93.7z
				 M101.3,90.8c-0.4-0.4-1-0.4-1.4,0c-0.4,0.4-0.4,1,0,1.4l3.2,3.2c0.2,0.2,0.4,0.3,0.7,0.3c0.4,0,0.8-0.2,0.9-0.6
				c0.2-0.4,0.1-0.8-0.2-1.1L101.3,90.8z M51.6,93.7c-0.6,0-1,0.4-1,1s0.4,1,1,1c0.6,0,1-0.4,1-1S52.1,93.7,51.6,93.7L51.6,93.7z
				 M46.3,90.4c0.6,0,1-0.4,1-1s-0.4-1-1-1c-0.3,0-0.5,0.1-0.7,0.3c-0.4,0.4-0.4,1,0,1.4C45.7,90.3,46,90.4,46.3,90.4L46.3,90.4z
				 M48.7,90.8L45.5,94c-0.3,0.3-0.4,0.7-0.2,1.1c0.2,0.4,0.5,0.6,0.9,0.6c0.3,0,0.5-0.1,0.7-0.3l3.2-3.2c0.4-0.4,0.4-1,0-1.4
				C49.8,90.4,49.1,90.4,48.7,90.8L48.7,90.8z M98.3,88.4l-2.7-6.5c2.3-2.5,2.2-6.4-0.2-8.8c-2.4-2.4-6.3-2.4-8.8-0.1
				c-2.5,2.3-2.6,6.2-0.4,8.8l-2.7,6.6c-0.1,0.4-0.1,0.8,0.2,1.1c0.3,0.3,0.7,0.4,1.1,0.2l1.9-0.8l0.8,1.9c0.2,0.4,0.5,0.6,0.9,0.6
				s0.8-0.2,0.9-0.6l1.6-3.9l1.6,3.9c0.2,0.4,0.5,0.6,0.9,0.6c0.4,0,0.8-0.2,0.9-0.6l0.8-1.9l1.9,0.8c0.4,0.2,0.8,0.1,1.1-0.2
				C98.3,89.2,98.4,88.8,98.3,88.4L98.3,88.4z M91,73.3c1.8,0,3.3,1.1,4,2.7c0.7,1.6,0.3,3.5-0.9,4.7c-1.2,1.2-3.1,1.6-4.7,0.9
				c-1.6-0.7-2.7-2.3-2.7-4c0-1.1,0.5-2.3,1.3-3.1C88.7,73.8,89.8,73.3,91,73.3L91,73.3z M88.4,87.8l-0.2-0.6
				c-0.1-0.2-0.3-0.4-0.5-0.5c-0.2-0.1-0.5-0.1-0.8,0L86.3,87l1.6-3.8c0.5,0.3,1.1,0.5,1.8,0.7l0.2,0.5L88.4,87.8z M95,86.7
				c-0.2-0.1-0.5-0.1-0.8,0c-0.2,0.1-0.4,0.3-0.5,0.5l-0.2,0.6L92,84.3l0.2-0.5c0.6-0.1,1.2-0.3,1.8-0.6l1.6,3.8L95,86.7z M91,79.7
				c0.8,0,1.6-0.5,1.9-1.3c0.3-0.8,0.1-1.7-0.4-2.3c-0.6-0.6-1.5-0.8-2.3-0.5s-1.3,1.1-1.3,1.9C88.9,78.8,89.8,79.7,91,79.7L91,79.7
				z M91,77.6C91,77.6,91,77.6,91,77.6C91,77.6,91,77.6,91,77.6c0.1,0.1,0,0.1,0,0.1S90.9,77.7,91,77.6C90.9,77.6,90.9,77.6,91,77.6
				C90.9,77.6,91,77.6,91,77.6L91,77.6z M66.5,61.7c-0.6,0-1,0.4-1,1s0.4,1,1,1h17c0.6,0,1-0.4,1-1s-0.4-1-1-1H66.5L66.5,61.7z
				 M55.8,68h38.3c0.6,0,1-0.4,1-1s-0.4-1-1-1H55.8c-0.6,0-1,0.4-1,1S55.3,68,55.8,68L55.8,68z M55.8,75.4h23.4c0.6,0,1-0.4,1-1
				s-0.4-1-1-1H55.8c-0.6,0-1,0.4-1,1S55.3,75.4,55.8,75.4L55.8,75.4z M55.8,88.2h17c0.6,0,1-0.4,1-1s-0.4-1-1-1h-17
				c-0.6,0-1,0.4-1,1S55.3,88.2,55.8,88.2L55.8,88.2z M55.8,84h21.3c0.6,0,1-0.4,1-1c0-0.6-0.4-1-1-1H55.8c-0.6,0-1,0.4-1,1
				C54.8,83.5,55.3,84,55.8,84L55.8,84z M55.8,79.7h12.8c0.6,0,1-0.4,1-1s-0.4-1-1-1H55.8c-0.4,0-0.7,0.2-0.9,0.5
				c-0.2,0.3-0.2,0.7,0,1C55.1,79.5,55.5,79.7,55.8,79.7L55.8,79.7z M72.9,77.7c-0.6,0-1,0.4-1,1s0.4,1,1,1H75c0.6,0,1-0.4,1-1
				s-0.4-1-1-1H72.9L72.9,77.7z M75,0h1v10h-1V0L75,0z M75,141h1v10h-1V141L75,141z M151,75v1h-10v-1H151L151,75z M10,75v1H0v-1H10
				L10,75z M128.5,21.8l0.7,0.7l-7.1,7.1l-0.7-0.7L128.5,21.8z M28.8,121.5l0.7,0.7l-7.1,7.1l-0.7-0.7L28.8,121.5z M129.2,128.5
				l-0.7,0.7l-7.1-7.1l0.7-0.7L129.2,128.5z M29.5,28.8l-0.7,0.7l-7.1-7.1l0.7-0.7L29.5,28.8z M112.8,9.9l0.9,0.5l-5,8.7l-0.9-0.5
				L112.8,9.9z M42.3,132l0.9,0.5l-5,8.7l-0.9-0.5L42.3,132z M141.1,112.8l-0.5,0.9l-8.7-5l0.5-0.9L141.1,112.8z M19,42.3l-0.5,0.9
				l-8.7-5l0.5-0.9L19,42.3z M148.3,55.5l0.3,1l-9.7,2.6l-0.3-1L148.3,55.5z M12.1,92l0.3,1l-9.7,2.6l-0.3-1L12.1,92z M95.5,148.3
				l-1,0.3l-2.6-9.7l1-0.3L95.5,148.3z M59,12.1l-1,0.3l-2.6-9.7l1-0.3L59,12.1z M94.6,2.4l1,0.3l-2.6,9.7l-1-0.3L94.6,2.4z
				 M58.1,138.6l1,0.3l-2.6,9.7l-1-0.3L58.1,138.6z M148.6,94.6l-0.3,1l-9.7-2.6l0.3-1L148.6,94.6z M12.4,58.1l-0.3,1l-9.7-2.6
				l0.3-1L12.4,58.1z M140.6,37.3l0.5,0.9l-8.7,5l-0.5-0.9L140.6,37.3z M18.5,107.8l0.5,0.9l-8.7,5l-0.5-0.9L18.5,107.8z
				 M113.7,140.6l-0.9,0.5l-5-8.7l0.9-0.5L113.7,140.6z M43.2,18.5L42.3,19l-5-8.7l0.9-0.5L43.2,18.5z M102.8,5.1l0.9,0.4l-3.7,9.3
				l-0.9-0.4L102.8,5.1z M51,136.2l0.9,0.4l-3.7,9.3l-0.9-0.4L51,136.2z M145.9,102.8l-0.4,0.9l-9.3-3.7l0.4-0.9L145.9,102.8z
				 M14.8,51l-0.4,0.9l-9.3-3.7l0.4-0.9L14.8,51z M144.6,45l0.4,0.9l-9.2,4l-0.4-0.9L144.6,45z M15.2,101.1l0.4,0.9l-9.2,4L6,105.1
				L15.2,101.1z M106,144.6l-0.9,0.4l-4-9.2l0.9-0.4L106,144.6z M49.9,15.2L49,15.6l-4-9.2L45.9,6L49.9,15.2z M134.3,28.2l0.6,0.8
				l-7.8,6.2l-0.6-0.8L134.3,28.2z M23.9,115.8l0.6,0.8l-7.8,6.2l-0.6-0.8L23.9,115.8z M122.8,134.3l-0.8,0.6l-6.2-7.8l0.8-0.6
				L122.8,134.3z M35.2,23.9l-0.8,0.6l-6.2-7.8l0.8-0.6L35.2,23.9z M150.6,83.6l-0.1,1l-9.9-1.1l0.1-1L150.6,83.6z M10.5,67.5
				l-0.1,1l-9.9-1.1l0.1-1L10.5,67.5z M67.4,150.6l-1-0.1l1.1-9.9l1,0.1L67.4,150.6z M83.5,10.5l-1-0.1l1.1-9.9l1,0.1L83.5,10.5z
				 M120.1,14.6l0.8,0.6l-5.9,8l-0.8-0.6L120.1,14.6z M36.1,127.8l0.8,0.6l-5.9,8l-0.8-0.6L36.1,127.8z M136.4,120.1l-0.6,0.8
				l-8-5.9l0.6-0.8L136.4,120.1z M23.2,36.1l-0.6,0.8l-8-5.9l0.6-0.8L23.2,36.1z M150.1,63.9l0.1,1l-9.9,1.5l-0.1-1L150.1,63.9z
				 M10.6,84.6l0.1,1l-9.9,1.5l-0.1-1L10.6,84.6z M87.1,150.1l-1,0.1l-1.5-9.9l1-0.1L87.1,150.1z M66.4,10.6l-1,0.1l-1.5-9.9l1-0.1
				L66.4,10.6z"/>
		</g>
	</g>
</g>
</svg>
