<svg id="SvgjsSvg1046" xmlns="http://www.w3.org/2000/svg" version="1.1" xmlns:xlink="http://www.w3.org/1999/xlink" xmlns:svgjs="http://svgjs.com/svgjs" width="37" height="38"><defs id="SvgjsDefs1047"></defs><path id="SvgjsPath1048" d="M974.359 3286L938.6410000000001 3286C938.287 3286 938.0000000000001 3286.29 938.0000000000001 3286.64L938.0000000000001 3323.3599999999997C938.0000000000001 3323.7099999999996 938.2870000000001 3323.9999999999995 938.6410000000001 3323.9999999999995L974.359 3323.9999999999995C974.7130000000001 3323.9999999999995 975 3323.7099999999996 975 3323.3599999999997L975 3286.64C975 3286.29 974.713 3286 974.359 3286ZM961.651 3322.72L951.108 3322.72L951.108 3290.25L955.7879999999999 3290.25C956.1419999999999 3290.25 956.43 3289.96 956.43 3289.6C956.43 3289.25 956.1419999999999 3288.96 955.7879999999999 3288.96L951.108 3288.96L951.108 3287.29L961.651 3287.29ZM963.175 3322.72L963.175 3290.25L967.8549999999999 3290.25C968.209 3290.25 968.4959999999999 3289.96 968.4959999999999 3289.6C968.4959999999999 3289.25 968.2089999999998 3288.96 967.8549999999999 3288.96L963.175 3288.96L963.175 3287.29L973.717 3287.29L973.717 3322.72ZM949.825 3322.72L939.283 3322.72L939.283 3290.25L943.963 3290.25C944.317 3290.25 944.6039999999999 3289.96 944.6039999999999 3289.6C944.6039999999999 3289.25 944.3169999999999 3288.96 943.963 3288.96L939.283 3288.96L939.283 3287.29L949.825 3287.29ZM941.006 3291.92C940.6519999999999 3291.92 940.365 3292.21 940.365 3292.56L940.365 3305.59C940.365 3305.9500000000003 940.652 3306.23 941.006 3306.23L948.102 3306.23C948.456 3306.23 948.7429999999999 3305.95 948.7429999999999 3305.59L948.7429999999999 3292.56C948.7429999999999 3292.21 948.4559999999999 3291.92 948.102 3291.92ZM971.994 3291.92L964.899 3291.92C964.544 3291.92 964.257 3292.21 964.257 3292.56L964.257 3305.59C964.257 3305.9500000000003 964.544 3306.23 964.899 3306.23L971.994 3306.23C972.3480000000001 3306.23 972.635 3305.95 972.635 3305.59L972.635 3292.56C972.635 3292.21 972.348 3291.92 971.994 3291.92ZM952.832 3291.92C952.478 3291.92 952.191 3292.21 952.191 3292.56L952.191 3305.59C952.191 3305.9500000000003 952.4780000000001 3306.23 952.832 3306.23L959.927 3306.23C960.2810000000001 3306.23 960.568 3305.95 960.568 3305.59L960.568 3292.56C960.568 3292.21 960.281 3291.92 959.927 3291.92ZM959.286 3304.95L953.473 3304.95L953.473 3293.21L959.286 3293.21ZM971.352 3304.95L965.54 3304.95L965.54 3293.21L971.352 3293.21ZM941.648 3304.95L941.648 3293.21L947.46 3293.21L947.46 3304.95ZM944.554 3313.83C942.5699999999999 3313.83 940.956 3315.45 940.956 3317.44C940.956 3319.42 942.57 3321.04 944.554 3321.04C946.538 3321.04 948.1519999999999 3319.42 948.1519999999999 3317.44C948.1519999999999 3315.4500000000003 946.5379999999999 3313.83 944.554 3313.83ZM956.38 3313.83C954.396 3313.83 952.782 3315.45 952.782 3317.44C952.782 3319.42 954.3960000000001 3321.04 956.38 3321.04C958.3629999999999 3321.04 959.977 3319.42 959.977 3317.44C959.977 3315.4500000000003 958.3629999999999 3313.83 956.38 3313.83ZM944.554 3319.75C943.278 3319.75 942.2389999999999 3318.71 942.2389999999999 3317.44C942.2389999999999 3316.16 943.2779999999999 3315.12 944.554 3315.12C945.831 3315.12 946.869 3316.16 946.869 3317.44C946.869 3318.71 945.831 3319.75 944.554 3319.75ZM956.38 3319.75C955.103 3319.75 954.0649999999999 3318.71 954.0649999999999 3317.44C954.0649999999999 3316.16 955.103 3315.12 956.38 3315.12C957.656 3315.12 958.695 3316.16 958.695 3317.44C958.695 3318.71 957.6560000000001 3319.75 956.38 3319.75ZM948.102 3310.87L941.006 3310.87C940.6519999999999 3310.87 940.365 3311.16 940.365 3311.5099999999998C940.365 3311.87 940.652 3312.16 941.006 3312.16L948.102 3312.16C948.456 3312.16 948.7429999999999 3311.87 948.7429999999999 3311.5099999999998C948.7429999999999 3311.16 948.4559999999999 3310.87 948.102 3310.87ZM948.102 3307.91L941.006 3307.91C940.6519999999999 3307.91 940.365 3308.2 940.365 3308.5499999999997C940.365 3308.91 940.652 3309.2 941.006 3309.2L948.102 3309.2C948.456 3309.2 948.7429999999999 3308.91 948.7429999999999 3308.5499999999997C948.7429999999999 3308.2 948.4559999999999 3307.91 948.102 3307.91ZM971.994 3307.91L964.899 3307.91C964.544 3307.91 964.257 3308.2 964.257 3308.5499999999997C964.257 3308.91 964.544 3309.2 964.899 3309.2L971.994 3309.2C972.3480000000001 3309.2 972.635 3308.91 972.635 3308.5499999999997C972.635 3308.2 972.348 3307.91 971.994 3307.91ZM971.994 3310.87L964.899 3310.87C964.544 3310.87 964.257 3311.16 964.257 3311.5099999999998C964.257 3311.87 964.544 3312.16 964.899 3312.16L971.994 3312.16C972.3480000000001 3312.16 972.635 3311.87 972.635 3311.5099999999998C972.635 3311.16 972.348 3310.87 971.994 3310.87ZM959.927 3310.87L952.832 3310.87C952.478 3310.87 952.191 3311.16 952.191 3311.5099999999998C952.191 3311.87 952.4780000000001 3312.16 952.832 3312.16L959.927 3312.16C960.2810000000001 3312.16 960.568 3311.87 960.568 3311.5099999999998C960.568 3311.16 960.281 3310.87 959.927 3310.87ZM959.927 3307.91L952.832 3307.91C952.478 3307.91 952.191 3308.2 952.191 3308.5499999999997C952.191 3308.91 952.4780000000001 3309.2 952.832 3309.2L959.927 3309.2C960.2810000000001 3309.2 960.568 3308.91 960.568 3308.5499999999997C960.568 3308.2 960.281 3307.91 959.927 3307.91ZM958.153 3290.25L959.336 3290.25C959.69 3290.25 959.977 3289.96 959.977 3289.6C959.977 3289.25 959.6899999999999 3288.96 959.336 3288.96L958.153 3288.96C957.799 3288.96 957.5120000000001 3289.25 957.5120000000001 3289.6C957.5120000000001 3289.96 957.7990000000001 3290.25 958.153 3290.25ZM946.328 3290.25L947.51 3290.25C947.865 3290.25 948.152 3289.96 948.152 3289.6C948.152 3289.25 947.865 3288.96 947.51 3288.96L946.328 3288.96C945.9739999999999 3288.96 945.687 3289.25 945.687 3289.6C945.687 3289.96 945.974 3290.25 946.328 3290.25ZM970.22 3290.25L971.402 3290.25C971.7570000000001 3290.25 972.0440000000001 3289.96 972.0440000000001 3289.6C972.0440000000001 3289.25 971.7570000000001 3288.96 971.402 3288.96L970.22 3288.96C969.866 3288.96 969.5790000000001 3289.25 969.5790000000001 3289.6C969.5790000000001 3289.96 969.8660000000001 3290.25 970.22 3290.25ZM968.446 3313.83C966.462 3313.83 964.8480000000001 3315.45 964.8480000000001 3317.44C964.8480000000001 3319.42 966.4620000000001 3321.04 968.446 3321.04C970.4300000000001 3321.04 972.044 3319.42 972.044 3317.44C972.044 3315.4500000000003 970.43 3313.83 968.446 3313.83ZM968.446 3319.75C967.169 3319.75 966.131 3318.71 966.131 3317.44C966.131 3316.16 967.169 3315.12 968.446 3315.12C969.7230000000001 3315.12 970.7610000000001 3316.16 970.7610000000001 3317.44C970.7610000000001 3318.71 969.7230000000001 3319.75 968.446 3319.75Z " fill="#4a72f5" transform="matrix(1,0,0,1,-938,-3286)"></path></svg>