<svg id="SvgjsSvg1008" xmlns="http://www.w3.org/2000/svg" version="1.1" xmlns:xlink="http://www.w3.org/1999/xlink" xmlns:svgjs="http://svgjs.com/svgjs" width="45" height="45"><defs id="SvgjsDefs1009"></defs><path id="SvgjsPath1010" d="M463.099 4070.48L461.251 4070.48L461.251 4067.7400000000002C461.251 4067.2500000000005 460.846 4066.84 460.34999999999997 4066.84L457.537 4066.84L457.537 4045.76L463.09 4045.76C463.496 4045.76 463.85699999999997 4045.48 463.965 4045.09C464.073 4044.69 463.893 4044.28 463.541 4044.07L442.446 4032.11C442.16700000000003 4031.96 441.833 4031.96 441.55400000000003 4032.11L420.45900000000006 4044.07C420.09800000000007 4044.27 419.9270000000001 4044.69 420.0350000000001 4045.09C420.1430000000001 4045.48 420.49500000000006 4045.76 420.9090000000001 4045.76L426.4630000000001 4045.76L426.4630000000001 4066.84L423.6500000000001 4066.84C423.1540000000001 4066.84 422.7490000000001 4067.25 422.7490000000001 4067.7400000000002L422.7490000000001 4070.48L420.9090000000001 4070.48C420.4140000000001 4070.48 420.0080000000001 4070.89 420.0080000000001 4071.38L420.0080000000001 4075.1C420.0080000000001 4075.5899999999997 420.4140000000001 4076 420.9090000000001 4076L463.0990000000001 4076C463.5950000000001 4076 464.0010000000001 4075.59 464.0010000000001 4075.1L464.0010000000001 4071.38C464.0010000000001 4070.8900000000003 463.5950000000001 4070.48 463.0990000000001 4070.48ZM424.326 4043.96L442.005 4033.94L459.683 4043.96ZM450.244 4045.76L450.244 4066.84L445.656 4066.84L445.656 4045.76ZM438.353 4045.76L438.353 4066.84L433.765 4066.84L433.765 4045.76ZM443.853 4045.76L443.853 4066.84L440.156 4066.84L440.156 4045.76ZM455.743 4045.76L455.743 4066.84L452.04699999999997 4066.84L452.04699999999997 4045.76ZM431.962 4045.76L431.962 4066.84L428.26599999999996 4066.84L428.26599999999996 4045.76ZM421.811 4074.2L421.811 4072.29L462.198 4072.29L462.198 4074.2ZM424.561 4068.64L459.448 4068.64L459.448 4070.48L424.561 4070.48ZM448.838 4040.37L442.446 4036.73C442.16700000000003 4036.58 441.833 4036.58 441.55400000000003 4036.73L435.16200000000003 4040.37C434.81000000000006 4040.58 434.63000000000005 4040.99 434.73800000000006 4041.39C434.84700000000004 4041.7799999999997 435.20700000000005 4042.06 435.61300000000006 4042.06L448.3960000000001 4042.06C448.8020000000001 4042.06 449.1620000000001 4041.7799999999997 449.26200000000006 4041.39C449.37000000000006 4040.99 449.1890000000001 4040.5699999999997 448.8380000000001 4040.37ZM439.021 4040.25L442.014 4038.55L444.997 4040.25Z " fill="#4a72f5" transform="matrix(1,0,0,1,-420,-4031)"></path></svg>