<svg id="SvgjsSvg1014" xmlns="http://www.w3.org/2000/svg" version="1.1" xmlns:xlink="http://www.w3.org/1999/xlink" xmlns:svgjs="http://svgjs.com/svgjs" width="29" height="29"><defs id="SvgjsDefs1015"></defs><path id="SvgjsPath1016" d="M1055.28 307.691C1053.46 305.88 1050.5 305.88 1048.68 307.691L1029.98 326.31199999999995C1029.97 326.31999999999994 1029.97 326.33099999999996 1029.96 326.34099999999995C1029.95 326.35299999999995 1029.94 326.36599999999993 1029.93 326.37999999999994C1029.9 326.41799999999995 1029.88 326.45899999999995 1029.8700000000001 326.50299999999993C1029.8600000000001 326.51699999999994 1029.8600000000001 326.52899999999994 1029.8500000000001 326.5419999999999C1029.8500000000001 326.5469999999999 1029.8500000000001 326.5519999999999 1029.8500000000001 326.5569999999999L1028.0100000000002 334.2249999999999C1028.0000000000002 334.25999999999993 1028.0000000000002 334.2949999999999 1028.0000000000002 334.3289999999999C1028.0000000000002 334.3359999999999 1028.0000000000002 334.34199999999987 1028.0000000000002 334.3489999999999C1028.0000000000002 334.4079999999999 1028.0100000000002 334.46499999999986 1028.0300000000002 334.5209999999999C1028.0400000000002 334.5329999999999 1028.0400000000002 334.5449999999999 1028.0500000000002 334.5569999999999C1028.0700000000002 334.6119999999999 1028.1100000000001 334.6659999999999 1028.15 334.7099999999999C1028.2 334.7589999999999 1028.26 334.7969999999999 1028.3200000000002 334.8229999999999C1028.38 334.8479999999999 1028.4500000000003 334.86099999999993 1028.5200000000002 334.86099999999993C1028.5600000000002 334.86099999999993 1028.6000000000001 334.8569999999999 1028.64 334.8469999999999L1036.3400000000001 333.02199999999993C1036.3500000000001 333.01899999999995 1036.3600000000001 333.0109999999999 1036.38 333.00699999999995C1036.39 333.001 1036.41 332.99399999999997 1036.43 332.98599999999993C1036.47 332.96899999999994 1036.5 332.9479999999999 1036.53 332.92299999999994C1036.54 332.91299999999995 1036.56 332.90599999999995 1036.57 332.8949999999999C1036.57 332.8909999999999 1036.58 332.88899999999995 1036.58 332.88499999999993L1055.28 314.26399999999995C1057.1 312.45099999999996 1057.1 309.50299999999993 1055.28 307.691ZM1037.08 329.47L1048.6799999999998 317.91400000000004C1048.8899999999999 317.71200000000005 1048.8899999999999 317.386 1048.6799999999998 317.184C1048.4799999999998 316.982 1048.1499999999999 316.982 1047.9499999999998 317.184L1036.35 328.74L1033.87 329.01300000000003L1034.1499999999999 326.54900000000004L1045.7499999999998 314.994C1045.9499999999998 314.79200000000003 1045.9499999999998 314.466 1045.7499999999998 314.264C1045.5499999999997 314.062 1045.2199999999998 314.062 1045.0199999999998 314.264L1033.4099999999999 325.819L1031.7599999999998 326.00100000000003L1046.1199999999997 311.70700000000005L1051.2499999999998 316.8190000000001L1036.8999999999999 331.11300000000006ZM1030.57 332.299C1030.37 332.097 1030.04 332.097 1029.84 332.299L1029.4499999999998 332.69L1030.7699999999998 327.15L1033.0599999999997 326.897L1032.7699999999998 329.541C1032.7699999999998 329.561 1032.7699999999998 329.579 1032.7699999999998 329.598C1032.7699999999998 329.618 1032.7699999999998 329.635 1032.7699999999998 329.65500000000003C1032.7699999999998 329.672 1032.7799999999997 329.68600000000004 1032.7799999999997 329.70300000000003C1032.7899999999997 329.732 1032.7999999999997 329.76000000000005 1032.8099999999997 329.788C1032.8199999999997 329.821 1032.8399999999997 329.85200000000003 1032.8599999999997 329.88100000000003C1032.8699999999997 329.90500000000003 1032.8899999999996 329.92600000000004 1032.9099999999996 329.947C1032.9299999999996 329.973 1032.9599999999996 329.995 1032.9899999999996 330.016C1033.0099999999995 330.03200000000004 1033.0399999999995 330.047 1033.0599999999995 330.059C1033.0999999999995 330.07500000000005 1033.1299999999994 330.08500000000004 1033.1699999999994 330.093C1033.1899999999994 330.098 1033.2099999999994 330.10900000000004 1033.2299999999993 330.111C1033.2399999999993 330.114 1033.2599999999993 330.115 1033.2799999999993 330.115C1033.2999999999993 330.115 1033.3199999999993 330.11400000000003 1033.3399999999992 330.111L1035.9999999999993 329.818L1035.7399999999993 332.101L1030.1799999999994 333.42L1030.5699999999995 333.029C1030.7699999999995 332.827 1030.7699999999995 332.501 1030.5699999999995 332.299ZM1051.98 316.089L1046.85 310.977L1047.58 310.24699999999996L1052.72 315.359ZM1054.55 308.421C1055.84 309.707 1055.95 311.72499999999997 1054.8899999999999 313.139L1049.81 308.086C1051.23 307.027 1053.26 307.137 1054.55 308.421ZM1053.45 314.629L1048.32 309.517L1049.05 308.786L1054.18 313.898Z " fill="#4a72f5" transform="matrix(1,0,0,1,-1028,-306)"></path></svg>