<svg id="SvgjsSvg1049" xmlns="http://www.w3.org/2000/svg" version="1.1" xmlns:xlink="http://www.w3.org/1999/xlink" xmlns:svgjs="http://svgjs.com/svgjs" width="32" height="44"><defs id="SvgjsDefs1050"></defs><path id="SvgjsPath1051" d="M969.308 3429.19L967.233 3429.18C967.231 3429.18 967.2299999999999 3429.18 967.2289999999999 3429.18C967.2249999999999 3429.18 967.2209999999999 3429.18 967.217 3429.18L967.217 3427.81C967.217 3427.43 966.906 3427.12 966.5219999999999 3427.12L964.435 3427.12L964.435 3425.75C964.435 3425.37 964.1229999999999 3425.06 963.7389999999999 3425.06L946.4209999999999 3425.06C946.333 3423.91 945.357 3423 944.169 3423C942.981 3423 942.005 3423.91 941.917 3425.06L938.696 3425.06C938.311 3425.06 938 3425.37 938 3425.75L938 3460.81C938 3461.19 938.311 3461.5 938.696 3461.5L940.087 3461.5L940.087 3463.56C940.087 3463.94 940.398 3464.25 940.782 3464.25L942.1740000000001 3464.25L942.1740000000001 3466.31C942.1740000000001 3466.69 942.4850000000001 3467 942.8690000000001 3467L969.3040000000001 3467C969.6880000000001 3467 970.0000000000001 3466.69 970.0000000000001 3466.31L970.0000000000001 3429.87C970.0000000000001 3429.5 969.6910000000001 3429.19 969.3080000000001 3429.19ZM943.565 3465.63L943.565 3464.25L966.522 3464.25C966.9060000000001 3464.25 967.2170000000001 3463.94 967.2170000000001 3463.56L967.2170000000001 3430.5499999999997C967.2200000000001 3430.5499999999997 967.2220000000001 3430.5499999999997 967.2250000000001 3430.5499999999997L968.6090000000002 3430.56L968.6090000000002 3465.63ZM941.478 3462.87L941.478 3461.5L963.7389999999999 3461.5C964.1229999999999 3461.5 964.435 3461.19 964.435 3460.81L964.435 3428.5L965.8259999999999 3428.5L965.8259999999999 3462.87ZM939.391 3460.13L939.391 3426.44L941.909 3426.44L941.909 3431.41C941.909 3432.6499999999996 942.923 3433.6499999999996 944.169 3433.6499999999996C945.415 3433.6499999999996 946.428 3432.6499999999996 946.428 3431.41L946.428 3428.3199999999997C946.428 3427.9399999999996 946.117 3427.64 945.733 3427.64C945.348 3427.64 945.0369999999999 3427.94 945.0369999999999 3428.3199999999997L945.0369999999999 3431.41C945.0369999999999 3431.89 944.6469999999999 3432.27 944.1689999999999 3432.27C943.6899999999998 3432.27 943.3009999999998 3431.89 943.3009999999998 3431.41L943.3009999999998 3426.44L963.0429999999998 3426.44L963.0429999999998 3460.13ZM956.087 3438.12L946.348 3438.12C945.963 3438.12 945.6519999999999 3438.43 945.6519999999999 3438.81C945.6519999999999 3439.19 945.963 3439.5 946.348 3439.5L956.087 3439.5C956.471 3439.5 956.783 3439.19 956.783 3438.81C956.783 3438.43 956.471 3438.12 956.087 3438.12ZM956.087 3440.88L946.348 3440.88C945.963 3440.88 945.6519999999999 3441.1800000000003 945.6519999999999 3441.56C945.6519999999999 3441.94 945.963 3442.25 946.348 3442.25L956.087 3442.25C956.471 3442.25 956.783 3441.94 956.783 3441.56C956.783 3441.18 956.471 3440.88 956.087 3440.88ZM944.169 3424.38C944.588 3424.38 944.939 3424.67 945.02 3425.06L943.318 3425.06C943.398 3424.67 943.749 3424.38 944.169 3424.38ZM953.304 3443.63L949.13 3443.63C948.746 3443.63 948.435 3443.9300000000003 948.435 3444.31C948.435 3444.69 948.746 3445 949.13 3445L953.304 3445C953.688 3445 954 3444.69 954 3444.31C954 3443.93 953.688 3443.63 953.304 3443.63Z " fill="#4a72f5" transform="matrix(1,0,0,1,-938,-3423)"></path></svg>