<svg id="SvgjsSvg1020" xmlns="http://www.w3.org/2000/svg" version="1.1" xmlns:xlink="http://www.w3.org/1999/xlink" xmlns:svgjs="http://svgjs.com/svgjs" width="26" height="26"><defs id="SvgjsDefs1021"></defs><path id="SvgjsPath1022" d="M1057 3165C1049.83 3165 1044 3159.17 1044 3152C1044 3144.83 1049.83 3139 1057 3139C1064.17 3139 1070 3144.83 1070 3152C1070 3159.17 1064.17 3165 1057 3165ZM1057 3139.84C1050.29 3139.84 1044.84 3145.29 1044.84 3152C1044.84 3158.71 1050.29 3164.16 1057 3164.16C1063.71 3164.16 1069.16 3158.71 1069.16 3152C1069.16 3145.29 1063.71 3139.84 1057 3139.84ZM1056.2 3158.63L1056.2 3148.55L1057.27 3148.55L1057.27 3158.63ZM1057.79 3145.6C1057.81 3146.24 1057.34 3146.75 1056.6 3146.75C1055.9499999999998 3146.75 1055.48 3146.24 1055.48 3145.6C1055.48 3144.95 1055.97 3144.44 1056.65 3144.44C1057.3400000000001 3144.44 1057.7900000000002 3144.9500000000003 1057.7900000000002 3145.6Z " fill="#bcc8d0" transform="matrix(1,0,0,1,-1044,-3139)"></path></svg>