<svg id="SvgjsSvg1000" xmlns="http://www.w3.org/2000/svg" version="1.1" xmlns:xlink="http://www.w3.org/1999/xlink" xmlns:svgjs="http://svgjs.com/svgjs" width="22" height="22"><defs id="SvgjsDefs1001"></defs><path id="SvgjsPath1007" d="M1429 1148C1422.93 1148 1418 1143.07 1418 1137C1418 1130.93 1422.93 1126 1429 1126C1435.07 1126 1440 1130.93 1440 1137C1440 1143.07 1435.07 1148 1429 1148ZM1429 1126.71C1423.33 1126.71 1418.71 1131.33 1418.71 1137C1418.71 1142.67 1423.33 1147.29 1429 1147.29C1434.67 1147.29 1439.29 1142.67 1439.29 1137C1439.29 1131.33 1434.67 1126.71 1429 1126.71ZM1427.91 1142.69L1427.91 1134.02L1429.49 1134.02L1429.49 1142.69ZM1429.67 1131.59C1429.69 1132.1299999999999 1429.29 1132.56 1428.66 1132.56C1428.1100000000001 1132.56 1427.72 1132.1299999999999 1427.72 1131.59C1427.72 1131.03 1428.13 1130.6 1428.7 1130.6C1429.29 1130.6 1429.67 1131.03 1429.67 1131.59Z " fill="#ffffff" transform="matrix(1,0,0,1,-1418,-1126)"></path></svg>