<svg id="SvgjsSvg1014" xmlns="http://www.w3.org/2000/svg" version="1.1" xmlns:xlink="http://www.w3.org/1999/xlink" xmlns:svgjs="http://svgjs.com/svgjs" width="18" height="18"><defs id="SvgjsDefs1015"></defs><path id="SvgjsPath1016" d="M1099 2186C1094.04 2186 1090 2181.96 1090 2177C1090 2172.04 1094.04 2168 1099 2168C1103.96 2168 1108 2172.04 1108 2177C1108 2181.96 1103.96 2186 1099 2186ZM1099 2168.58C1094.36 2168.58 1090.58 2172.36 1090.58 2177C1090.58 2181.64 1094.36 2185.42 1099 2185.42C1103.64 2185.42 1107.42 2181.64 1107.42 2177C1107.42 2172.36 1103.64 2168.58 1099 2168.58ZM1098.11 2181.66L1098.11 2174.56L1099.3999999999999 2174.56L1099.3999999999999 2181.66ZM1099.55 2172.57C1099.56 2173.01 1099.24 2173.36 1098.73 2173.36C1098.27 2173.36 1097.95 2173.01 1097.95 2172.57C1097.95 2172.1200000000003 1098.29 2171.77 1098.75 2171.77C1099.24 2171.77 1099.55 2172.12 1099.55 2172.57Z " fill="#72787b" transform="matrix(1,0,0,1,-1090,-2168)"></path></svg>