<svg id="SvgjsSvg1014" xmlns="http://www.w3.org/2000/svg" version="1.1" xmlns:xlink="http://www.w3.org/1999/xlink" xmlns:svgjs="http://svgjs.com/svgjs" width="24" height="24"><defs id="SvgjsDefs1015"></defs><path id="SvgjsPath1016" d="M402 1520C395.383 1520 390 1525.38 390 1532C390 1538.62 395.383 1544 402 1544C408.617 1544 414 1538.62 414 1532C414 1525.38 408.617 1520 402 1520ZM402 1543.08C395.893 1543.08 390.923 1538.11 390.923 1532C390.923 1525.89 395.89300000000003 1520.92 402 1520.92C408.108 1520.92 413.077 1525.89 413.077 1532C413.077 1538.11 408.108 1543.08 402 1543.08ZM407.655 1527.08L400.561 1535.06L396.28799999999995 1531.6399999999999C396.09 1531.4799999999998 395.79799999999994 1531.5099999999998 395.63999999999993 1531.7099999999998C395.4799999999999 1531.9099999999999 395.5129999999999 1532.1999999999998 395.71199999999993 1532.36L400.32699999999994 1536.05C400.4119999999999 1536.12 400.51399999999995 1536.1499999999999 400.61499999999995 1536.1499999999999C400.74299999999994 1536.1499999999999 400.86999999999995 1536.1 400.96099999999996 1535.9999999999998L408.34499999999997 1527.6899999999998C408.515 1527.4999999999998 408.498 1527.2099999999998 408.30699999999996 1527.0399999999997C408.116 1526.8699999999997 407.82499999999993 1526.8899999999996 407.655 1527.0799999999997Z " fill="#4a72f5" transform="matrix(1,0,0,1,-390,-1520)"></path></svg>