<?xml version="1.0" encoding="UTF-8" standalone="no"?>
<svg width="182px" height="50px" viewBox="0 0 182 50" version="1.1" xmlns="http://www.w3.org/2000/svg" xmlns:xlink="http://www.w3.org/1999/xlink">
    <!-- Generator: Sketch 39.1 (31720) - http://www.bohemiancoding.com/sketch -->
    <title>Logo Black</title>
    <desc>Created with Sketch.</desc>
    <defs>
        <linearGradient x1="0.499999523%" y1="101.499999%" x2="101.499999%" y2="-0.499999523%" id="linearGradient-1">
            <stop stop-color="#4A72F5" offset="0%"></stop>
            <stop stop-color="#FD73D2" offset="100%"></stop>
        </linearGradient>
    </defs>
    <g id="Page-1" stroke="none" stroke-width="1" fill="none" fill-rule="evenodd">
        <g id="Desktop-HD-Copy-3" transform="translate(-390.000000, -20.000000)">
            <g id="Logo-White" transform="translate(390.000000, 20.000000)">
                <g id="Logo">
                    <path d="M142.375,41 L145.725,41 L145.725,28.717 L142.375,28.717 L142.375,41 Z M77.335,30.572 L77.5,30.572 C77.882,29.95 78.395,29.447 79.043,29.062 C79.692,28.678 80.32,28.487 80.928,28.487 C81.535,28.487 81.99,28.52 82.29,28.585 L82.037,31.42 C81.767,31.347 81.437,31.31 81.048,31.31 C79.98,31.31 79.147,31.593 78.55,32.16 C77.952,32.727 77.653,33.52 77.653,34.542 L77.653,41 L74.303,41 L74.303,28.717 L76.842,28.717 L77.335,30.572 Z M67.205,10.1 C66.808,9.493 66.16,9.19 65.262,9.19 C64.362,9.19 63.715,9.492 63.318,10.095 C62.922,10.698 62.723,11.608 62.723,12.825 C62.723,14.043 62.923,14.963 63.323,15.585 C63.723,16.207 64.373,16.517 65.272,16.517 C66.172,16.517 66.817,16.208 67.21,15.59 C67.603,14.972 67.8,14.055 67.8,12.837 C67.8,11.618 67.602,10.707 67.205,10.1 L67.205,10.1 Z M65.233,19.22 C64.055,19.22 63.017,18.962 62.117,18.445 C61.217,17.928 60.525,17.185 60.042,16.218 C59.558,15.25 59.318,14.122 59.318,12.832 C59.318,10.827 59.84,9.267 60.887,8.155 C61.933,7.043 63.405,6.487 65.3,6.487 C66.475,6.487 67.513,6.743 68.412,7.255 C69.31,7.767 70,8.503 70.482,9.462 C70.963,10.42 71.205,11.543 71.205,12.832 C71.205,14.832 70.678,16.398 69.627,17.527 C68.575,18.655 67.112,19.22 65.233,19.22 L65.233,19.22 Z M67.563,32.095 C67.193,31.492 66.603,31.19 65.795,31.19 C64.985,31.19 64.39,31.443 64.008,31.952 C63.628,32.46 63.43,33.298 63.415,34.468 L63.415,34.832 C63.415,36.148 63.612,37.092 64.003,37.662 C64.395,38.232 65.017,38.517 65.865,38.517 C67.367,38.517 68.118,37.282 68.118,34.81 C68.118,33.603 67.933,32.698 67.563,32.095 L67.563,32.095 Z M69.31,40.463 C68.6,40.968 67.768,41.22 66.81,41.22 C65.367,41.22 64.237,40.698 63.415,39.655 L63.24,39.655 C63.357,40.68 63.415,41.272 63.415,41.433 L63.415,46.405 L60.065,46.405 L60.065,28.717 L62.79,28.717 L63.262,30.325 L63.415,30.325 C64.2,29.1 65.338,28.487 66.832,28.487 C68.323,28.487 69.48,29.048 70.297,30.172 C71.115,31.295 71.523,32.857 71.523,34.853 C71.523,36.162 71.332,37.297 70.948,38.262 C70.565,39.225 70.018,39.96 69.31,40.463 L69.31,40.463 Z M81.493,10.095 C81.123,9.492 80.533,9.19 79.725,9.19 C78.915,9.19 78.32,9.443 77.94,9.952 C77.558,10.46 77.362,11.298 77.347,12.468 L77.347,12.832 C77.347,14.148 77.542,15.092 77.933,15.662 C78.327,16.232 78.947,16.517 79.797,16.517 C81.298,16.517 82.048,15.282 82.048,12.81 C82.048,11.603 81.863,10.698 81.493,10.095 L81.493,10.095 Z M83.24,18.463 C82.532,18.968 81.698,19.22 80.742,19.22 C79.298,19.22 78.167,18.698 77.347,17.655 L77.17,17.655 C77.288,18.68 77.347,19.272 77.347,19.433 L77.347,24.405 L73.995,24.405 L73.995,6.717 L76.72,6.717 L77.193,8.325 L77.347,8.325 C78.13,7.1 79.268,6.487 80.762,6.487 C82.255,6.487 83.41,7.048 84.228,8.172 C85.045,9.295 85.455,10.857 85.455,12.853 C85.455,14.162 85.262,15.297 84.878,16.262 C84.495,17.225 83.948,17.96 83.24,18.463 L83.24,18.463 Z M87.323,32.095 C86.927,32.698 86.728,33.608 86.728,34.825 C86.728,36.043 86.928,36.963 87.328,37.585 C87.728,38.207 88.378,38.517 89.277,38.517 C90.177,38.517 90.822,38.208 91.215,37.59 C91.608,36.972 91.805,36.055 91.805,34.837 C91.805,33.618 91.607,32.707 91.21,32.1 C90.813,31.493 90.165,31.19 89.267,31.19 C88.367,31.19 87.72,31.492 87.323,32.095 L87.323,32.095 Z M92.417,29.255 C93.315,29.767 94.005,30.503 94.487,31.462 C94.968,32.42 95.21,33.543 95.21,34.832 C95.21,36.832 94.683,38.398 93.632,39.527 C92.58,40.655 91.117,41.22 89.238,41.22 C88.062,41.22 87.022,40.962 86.122,40.445 C85.222,39.928 84.53,39.185 84.047,38.218 C83.565,37.25 83.323,36.122 83.323,34.832 C83.323,32.827 83.847,31.267 84.892,30.155 C85.938,29.043 87.41,28.487 89.305,28.487 C90.482,28.487 91.518,28.743 92.417,29.255 L92.417,29.255 Z M95.66,11.463 C95.645,10.635 95.43,9.997 95.013,9.547 C94.597,9.095 94.035,8.87 93.327,8.87 C92.617,8.87 92.062,9.095 91.66,9.547 C91.258,9.997 91.028,10.635 90.97,11.463 L95.66,11.463 Z M91.737,15.77 C92.263,16.268 93,16.517 93.95,16.517 C95.33,16.517 96.69,16.217 98.033,15.617 L98.033,18.28 C96.912,18.907 95.433,19.22 93.595,19.22 C91.757,19.22 90.278,18.648 89.162,17.505 C88.045,16.362 87.487,14.802 87.487,12.825 C87.487,10.848 88.003,9.297 89.035,8.173 C90.068,7.048 91.468,6.487 93.24,6.487 C95.01,6.487 96.363,6.982 97.3,7.97 C98.235,8.958 98.703,10.325 98.703,12.068 L98.703,13.693 L90.892,13.693 C90.928,14.58 91.21,15.273 91.737,15.77 L91.737,15.77 Z M105.965,24.265 L105.108,26.762 C104.435,26.55 103.812,26.443 103.242,26.443 C102.34,26.443 101.89,26.945 101.89,27.948 L101.89,28.717 L104.79,28.717 L104.79,31.42 L101.89,31.42 L101.89,41 L98.538,41 L98.538,31.42 L96.693,31.42 L96.693,29.685 L98.538,28.717 L98.538,27.808 C98.538,26.397 98.883,25.367 99.572,24.717 C100.26,24.065 101.273,23.74 102.61,23.74 C103.947,23.74 105.065,23.915 105.965,24.265 L105.965,24.265 Z M109.515,11.842 C109.515,10.958 109.357,10.295 109.042,9.853 C108.727,9.41 108.225,9.19 107.537,9.19 C106.598,9.19 105.922,9.502 105.505,10.127 C105.087,10.752 104.878,11.787 104.878,13.233 L104.878,19 L101.527,19 L101.527,6.717 L104.087,6.717 L104.537,8.302 L104.725,8.302 C105.478,7.092 106.738,6.487 108.503,6.487 C109.932,6.487 111.015,6.873 111.755,7.645 C112.495,8.418 112.865,9.533 112.865,10.992 L112.865,19 L109.515,19 L109.515,11.842 Z M114.14,33.463 C114.125,32.635 113.91,31.997 113.493,31.547 C113.077,31.095 112.513,30.87 111.805,30.87 C111.097,30.87 110.54,31.095 110.138,31.547 C109.737,31.997 109.507,32.635 109.448,33.463 L114.14,33.463 Z M110.215,37.77 C110.742,38.268 111.48,38.517 112.43,38.517 C113.808,38.517 115.17,38.217 116.512,37.617 L116.512,40.28 C115.392,40.907 113.912,41.22 112.073,41.22 C110.235,41.22 108.758,40.648 107.642,39.505 C106.523,38.362 105.965,36.802 105.965,34.825 C105.965,32.848 106.482,31.297 107.515,30.173 C108.547,29.048 109.948,28.487 111.718,28.487 C113.488,28.487 114.842,28.982 115.778,29.97 C116.715,30.958 117.183,32.325 117.183,34.068 L117.183,35.693 L109.372,35.693 C109.408,36.58 109.69,37.273 110.215,37.77 L110.215,37.77 Z M125.097,33.563 C126.117,33.948 126.853,34.3 127.305,34.615 C128.188,35.235 128.63,36.127 128.63,37.292 C128.63,38.457 128.187,39.402 127.3,40.128 C126.413,40.857 125.135,41.22 123.467,41.22 C121.797,41.22 120.402,40.957 119.282,40.432 L119.282,37.547 C119.907,37.822 120.612,38.053 121.395,38.238 C122.178,38.425 122.867,38.517 123.463,38.517 C124.675,38.517 125.28,38.187 125.28,37.527 C125.28,37.278 125.2,37.075 125.038,36.917 C124.738,36.635 124.023,36.27 122.897,35.823 C121.77,35.377 120.985,34.995 120.542,34.678 C119.687,34.072 119.26,33.213 119.26,32.103 C119.26,30.992 119.685,30.112 120.537,29.462 C121.388,28.812 122.573,28.487 124.092,28.487 C125.612,28.487 127.08,28.837 128.497,29.538 L127.473,32.035 C126.853,31.788 126.273,31.585 125.735,31.427 C125.197,31.268 124.648,31.19 124.087,31.19 C123.102,31.19 122.61,31.44 122.61,31.943 C122.61,32.225 122.77,32.468 123.088,32.675 C123.408,32.882 124.077,33.178 125.097,33.563 L125.097,33.563 Z M136.282,33.563 C137.3,33.948 138.037,34.3 138.49,34.615 C139.373,35.235 139.815,36.127 139.815,37.292 C139.815,38.457 139.372,39.402 138.485,40.128 C137.597,40.857 136.32,41.22 134.65,41.22 C132.982,41.22 131.587,40.957 130.465,40.432 L130.465,37.547 C131.09,37.822 131.795,38.053 132.578,38.238 C133.362,38.425 134.052,38.517 134.648,38.517 C135.858,38.517 136.463,38.187 136.463,37.527 C136.463,37.278 136.383,37.075 136.222,36.917 C135.922,36.635 135.208,36.27 134.08,35.823 C132.953,35.377 132.168,34.995 131.727,34.678 C130.872,34.072 130.443,33.213 130.443,32.103 C130.443,30.992 130.868,30.112 131.72,29.462 C132.572,28.812 133.757,28.487 135.277,28.487 C136.795,28.487 138.263,28.837 139.682,29.538 L138.657,32.035 C138.037,31.788 137.458,31.585 136.92,31.427 C136.382,31.268 135.832,31.19 135.272,31.19 C134.287,31.19 133.793,31.44 133.793,31.943 C133.793,32.225 133.953,32.468 134.273,32.675 C134.592,32.882 135.262,33.178 136.282,33.563 L136.282,33.563 Z M144.055,27.19 C142.84,27.19 142.232,26.643 142.232,25.548 C142.232,24.453 142.84,23.905 144.055,23.905 C145.272,23.905 145.878,24.452 145.878,25.542 C145.878,26.062 145.727,26.467 145.423,26.757 C145.118,27.045 144.663,27.19 144.055,27.19 L144.055,27.19 Z M156.38,32.1 C155.985,31.493 155.337,31.19 154.437,31.19 C153.538,31.19 152.89,31.492 152.493,32.095 C152.098,32.698 151.9,33.608 151.9,34.825 C151.9,36.043 152.1,36.963 152.5,37.585 C152.9,38.207 153.55,38.517 154.448,38.517 C155.348,38.517 155.993,38.208 156.387,37.59 C156.778,36.972 156.975,36.055 156.975,34.837 C156.975,33.618 156.777,32.707 156.38,32.1 L156.38,32.1 Z M154.41,41.22 C153.232,41.22 152.193,40.962 151.293,40.445 C150.393,39.928 149.702,39.185 149.218,38.218 C148.735,37.25 148.493,36.122 148.493,34.832 C148.493,32.827 149.017,31.267 150.063,30.155 C151.11,29.043 152.58,28.487 154.477,28.487 C155.652,28.487 156.688,28.743 157.587,29.255 C158.485,29.767 159.177,30.503 159.658,31.462 C160.14,32.42 160.382,33.543 160.382,34.832 C160.382,36.832 159.855,38.398 158.803,39.527 C157.752,40.655 156.287,41.22 154.41,41.22 L154.41,41.22 Z M171.158,33.842 C171.158,32.958 171.002,32.295 170.687,31.853 C170.372,31.41 169.87,31.19 169.182,31.19 C168.243,31.19 167.567,31.502 167.148,32.127 C166.732,32.752 166.522,33.787 166.522,35.233 L166.522,41 L163.172,41 L163.172,28.717 L165.732,28.717 L166.182,30.302 L166.368,30.302 C167.123,29.092 168.383,28.487 170.148,28.487 C171.577,28.487 172.66,28.873 173.4,29.645 C174.14,30.418 174.51,31.533 174.51,32.992 L174.51,41 L171.158,41 L171.158,33.842 Z M180.827,40.797 C180.49,41.13 180.017,41.297 179.41,41.297 C178.802,41.297 178.328,41.133 177.992,40.808 C177.655,40.482 177.487,40.022 177.487,39.428 C177.487,38.183 178.132,37.562 179.42,37.562 C180.028,37.562 180.498,37.722 180.832,38.045 C181.165,38.367 181.332,38.823 181.332,39.412 C181.332,40.002 181.163,40.463 180.827,40.797 L180.827,40.797 Z" id="Open-Profession" fill="#FFFFFF"></path>
                    <path d="M39.985,25.6 C39.993,25.4 40,25.202 40,25 C40,24.798 39.993,24.6 39.985,24.4 L49.975,24.002 C49.988,24.333 50,24.665 50,25 C50,25.335 49.988,25.667 49.975,25.998 L39.985,25.6 L39.985,25.6 Z M39.657,21.807 L49.427,19.678 C49.567,20.325 49.68,20.982 49.77,21.647 L39.862,22.988 C39.808,22.59 39.74,22.195 39.657,21.807 L39.657,21.807 Z M38.88,19.31 L48.133,15.517 C48.222,15.733 48.307,15.95 48.39,16.168 L48.578,16.683 C48.66,16.92 48.742,17.155 48.818,17.395 L39.29,20.437 C39.168,20.053 39.032,19.678 38.88,19.31 L38.88,19.31 Z M37.678,16.988 L46.13,11.647 C46.487,12.208 46.822,12.785 47.132,13.375 L38.28,18.025 C38.093,17.67 37.892,17.325 37.678,16.988 L37.678,16.988 Z M36.097,14.907 L43.493,8.178 C43.942,8.67 44.365,9.185 44.773,9.712 L36.865,15.827 C36.62,15.51 36.365,15.202 36.097,14.907 L36.097,14.907 Z M34.173,13.135 L40.288,5.227 C40.815,5.635 41.33,6.058 41.822,6.507 L35.093,13.903 C34.798,13.635 34.49,13.38 34.173,13.135 L34.173,13.135 Z M31.975,11.72 L36.625,2.868 C37.215,3.178 37.792,3.513 38.353,3.87 L33.012,12.322 C32.675,12.108 32.33,11.907 31.975,11.72 L31.975,11.72 Z M29.563,10.708 L32.605,1.182 C32.843,1.258 33.08,1.34 33.315,1.422 L33.833,1.61 C34.052,1.693 34.268,1.778 34.483,1.867 L30.69,11.12 C30.322,10.968 29.947,10.832 29.563,10.708 L29.563,10.708 Z M27.012,10.138 L28.353,0.23 C29.018,0.32 29.675,0.433 30.322,0.573 L28.193,10.343 C27.805,10.26 27.41,10.192 27.012,10.138 L27.012,10.138 Z M24.002,49.975 L24.4,39.985 C24.6,39.993 24.798,40 25,40 C25.202,40 25.4,39.993 25.6,39.985 L25.998,49.975 C25.667,49.988 25.335,50 25,50 C24.665,50 24.333,49.988 24.002,49.975 L24.002,49.975 Z M25,10 C24.798,10 24.6,10.007 24.4,10.015 L24.002,0.025 C24.333,0.012 24.665,0 25,0 C25.335,0 25.667,0.012 25.998,0.025 L25.6,10.015 C25.4,10.007 25.202,10 25,10 L25,10 Z M19.678,49.427 L21.807,39.657 C22.195,39.74 22.59,39.808 22.988,39.862 L21.647,49.77 C20.982,49.68 20.325,49.567 19.678,49.427 L19.678,49.427 Z M19.678,0.573 C20.325,0.433 20.982,0.32 21.647,0.23 L22.988,10.138 C22.59,10.192 22.195,10.26 21.807,10.343 L19.678,0.573 L19.678,0.573 Z M19.31,11.12 L15.517,1.867 C15.732,1.778 15.95,1.693 16.168,1.61 L16.683,1.422 C16.92,1.34 17.155,1.258 17.395,1.182 L20.437,10.708 C20.053,10.832 19.678,10.968 19.31,11.12 L19.31,11.12 Z M16.988,12.322 L11.647,3.87 C12.208,3.513 12.785,3.178 13.375,2.868 L18.025,11.72 C17.67,11.907 17.325,12.108 16.988,12.322 L16.988,12.322 Z M14.907,13.903 L8.178,6.507 C8.67,6.058 9.185,5.635 9.712,5.227 L15.827,13.135 C15.51,13.38 15.202,13.635 14.907,13.903 L14.907,13.903 Z M13.135,15.827 L5.227,9.712 C5.635,9.185 6.058,8.67 6.507,8.178 L13.903,14.907 C13.635,15.202 13.38,15.51 13.135,15.827 L13.135,15.827 Z M11.72,18.025 L2.868,13.375 C3.178,12.785 3.513,12.208 3.87,11.647 L12.322,16.988 C12.108,17.325 11.907,17.67 11.72,18.025 L11.72,18.025 Z M10.71,20.437 L1.182,17.395 C1.258,17.157 1.338,16.92 1.422,16.685 L1.61,16.167 C1.693,15.948 1.778,15.732 1.867,15.517 L11.12,19.31 C10.968,19.678 10.832,20.053 10.71,20.437 L10.71,20.437 Z M10.138,22.988 L0.23,21.647 C0.32,20.982 0.433,20.325 0.573,19.678 L10.343,21.807 C10.26,22.195 10.192,22.59 10.138,22.988 L10.138,22.988 Z M10,25 C10,25.202 10.007,25.4 10.015,25.6 L0.025,25.998 C0.012,25.667 0,25.335 0,25 C0,24.665 0.012,24.333 0.025,24.002 L10.015,24.4 C10.007,24.6 10,24.798 10,25 L10,25 Z M10.343,28.193 L0.573,30.322 C0.433,29.675 0.32,29.018 0.23,28.353 L10.138,27.012 C10.192,27.41 10.26,27.805 10.343,28.193 L10.343,28.193 Z M11.12,30.69 L1.867,34.483 C1.778,34.268 1.693,34.052 1.61,33.833 L1.422,33.315 C1.338,33.08 1.258,32.843 1.182,32.605 L10.71,29.563 C10.832,29.947 10.968,30.322 11.12,30.69 L11.12,30.69 Z M12.322,33.012 L3.87,38.353 C3.513,37.792 3.178,37.215 2.868,36.625 L11.72,31.975 C11.907,32.33 12.108,32.675 12.322,33.012 L12.322,33.012 Z M13.903,35.093 L6.507,41.822 C6.058,41.33 5.635,40.815 5.227,40.288 L13.135,34.173 C13.38,34.49 13.635,34.798 13.903,35.093 L13.903,35.093 Z M15.827,36.865 L9.712,44.773 C9.185,44.365 8.67,43.942 8.178,43.493 L14.907,36.097 C15.202,36.365 15.51,36.62 15.827,36.865 L15.827,36.865 Z M18.025,38.28 L13.375,47.132 C12.785,46.822 12.208,46.487 11.647,46.13 L16.988,37.678 C17.325,37.892 17.67,38.093 18.025,38.28 L18.025,38.28 Z M20.437,39.292 L17.395,48.818 C17.155,48.742 16.92,48.66 16.683,48.578 L16.168,48.39 C15.95,48.307 15.732,48.222 15.517,48.133 L19.31,38.88 C19.678,39.032 20.053,39.168 20.437,39.292 L20.437,39.292 Z M30.322,49.427 C29.675,49.567 29.018,49.68 28.353,49.77 L27.012,39.862 C27.41,39.808 27.805,39.74 28.193,39.657 L30.322,49.427 L30.322,49.427 Z M30.69,38.88 L34.483,48.133 C34.268,48.222 34.052,48.307 33.833,48.39 L33.315,48.578 C33.08,48.66 32.843,48.742 32.605,48.818 L29.563,39.292 C29.947,39.168 30.322,39.032 30.69,38.88 L30.69,38.88 Z M33.012,37.678 L38.353,46.13 C37.792,46.487 37.215,46.822 36.625,47.132 L31.975,38.28 C32.33,38.093 32.675,37.892 33.012,37.678 L33.012,37.678 Z M35.093,36.097 L41.822,43.493 C41.33,43.942 40.815,44.365 40.288,44.773 L34.173,36.865 C34.49,36.62 34.798,36.365 35.093,36.097 L35.093,36.097 Z M36.865,34.173 L44.773,40.288 C44.365,40.815 43.942,41.33 43.493,41.822 L36.097,35.093 C36.365,34.798 36.62,34.49 36.865,34.173 L36.865,34.173 Z M38.28,31.975 L47.132,36.625 C46.822,37.215 46.487,37.792 46.13,38.353 L37.678,33.012 C37.892,32.675 38.093,32.33 38.28,31.975 L38.28,31.975 Z M39.29,29.563 L48.818,32.605 C48.742,32.843 48.66,33.08 48.578,33.315 L48.39,33.832 C48.307,34.05 48.222,34.268 48.133,34.483 L38.88,30.69 C39.032,30.322 39.168,29.947 39.29,29.563 L39.29,29.563 Z M39.862,27.012 L49.77,28.353 C49.68,29.018 49.567,29.675 49.427,30.322 L39.657,28.193 C39.74,27.805 39.808,27.41 39.862,27.012 L39.862,27.012 Z" id="Mark" fill="url(#linearGradient-1)"></path>
                </g>
            </g>
        </g>
    </g>
</svg>