<?xml version="1.0" encoding="UTF-8" standalone="no"?>
<svg width="21px" height="15px" viewBox="0 0 21 15" version="1.1" xmlns="http://www.w3.org/2000/svg" xmlns:xlink="http://www.w3.org/1999/xlink">
    <!-- Generator: Sketch 39.1 (31720) - http://www.bohemiancoding.com/sketch -->
    <title>Group 10</title>
    <desc>Created with Sketch.</desc>
    <defs></defs>
    <g id="Page-1" stroke="none" stroke-width="1" fill="none" fill-rule="evenodd">
        <g id="Desktop-HD-Copy-3" transform="translate(-1364.000000, -4903.000000)">
            <g id="Group-13" transform="translate(0.000000, 4835.000000)">
                <g id="Group-10" transform="translate(1364.000000, 68.000000)">
                    <path d="M19.31,15 L1.69,15 C0.75502352,14.9945 -1.61764824e-05,14.2349927 0,13.3 L0,1.7 C-1.61764824e-05,0.765007344 0.75502352,0.00549995666 1.69,0 L19.31,0 C20.2449765,0.00549995666 21.0000162,0.765007344 21,1.7 L21,13.3 C21.0000162,14.2349927 20.2449765,14.9945 19.31,15 L19.31,15 Z M1.97709462,1 C1.43501398,1.00314971 0.99786421,1.43808663 1.00000785,1.97214076 L1.00000785,13.0278592 C0.99786421,13.5619134 1.43501398,13.9968503 1.97709462,14 L19.0229054,14 C19.564986,13.9968503 20.0021358,13.5619134 19.9999921,13.0278592 L19.9999921,1.97214076 C20.0021358,1.43808663 19.564986,1.00314971 19.0229054,1 L1.97709462,1 L1.97709462,1 Z" id="Forma_1" fill="#F9BE6B"></path>
                    <path d="M1.5,1.5 L10.5,9.5" id="Line" stroke="#F9BE6B" stroke-linecap="square"></path>
                    <path d="M10.5,1.5 L19.5,9.5" id="Line" stroke="#F9BE6B" stroke-linecap="square" transform="translate(15.000000, 5.500000) scale(-1, 1) translate(-15.000000, -5.500000) "></path>
                    <path d="M3.5,8.5 L8.5,11.5" id="Line" stroke="#F9BE6B" stroke-linecap="square" transform="translate(6.000000, 10.000000) scale(-1, 1) translate(-6.000000, -10.000000) "></path>
                    <path d="M12.5,8.5 L17.5,11.5" id="Line" stroke="#F9BE6B" stroke-linecap="square"></path>
                </g>
            </g>
        </g>
    </g>
</svg>