<svg id="SvgjsSvg1055" xmlns="http://www.w3.org/2000/svg" version="1.1" xmlns:xlink="http://www.w3.org/1999/xlink" xmlns:svgjs="http://svgjs.com/svgjs" width="21" height="15"><defs id="SvgjsDefs1056"></defs><path id="SvgjsPath1057" d="M1365.69 4918C1364.76 4917.99 1364 4917.23 1364 4916.3L1364 4904.7C1364 4903.7699999999995 1364.76 4903.01 1365.69 4903L1383.31 4903C1384.24 4903.01 1385 4903.77 1385 4904.7L1385 4916.3C1385 4917.2300000000005 1384.24 4917.99 1383.31 4918ZM1365 4904.97L1365 4916.030000000001C1365 4916.56 1365.44 4917.000000000001 1365.98 4917.000000000001L1383.02 4917.000000000001C1383.56 4917.000000000001 1384 4916.560000000001 1384 4916.030000000001L1384 4904.97C1384 4904.4400000000005 1383.56 4904 1383.02 4904L1365.98 4904C1365.44 4904 1365 4904.44 1365 4904.97Z " fill="#f9be6b" fill-opacity="1" transform="matrix(1,0,0,1,-1364,-4903)"></path><path id="SvgjsPath1058" d="M1366 4905L1375 4913 " fill-opacity="0" fill="#ffffff" stroke-dasharray="0" stroke-linejoin="miter" stroke-linecap="square" stroke-opacity="1" stroke="#f9be6b" stroke-miterlimit="50" stroke-width="1" transform="matrix(1,0,0,1,-1364,-4903)"></path><path id="SvgjsPath1059" d="M1384 4905L1375 4913 " fill-opacity="0" fill="#ffffff" stroke-dasharray="0" stroke-linejoin="miter" stroke-linecap="square" stroke-opacity="1" stroke="#f9be6b" stroke-miterlimit="50" stroke-width="1" transform="matrix(1,0,0,1,-1364,-4903)"></path><path id="SvgjsPath1060" d="M1373 4912L1368 4915 " fill-opacity="0" fill="#ffffff" stroke-dasharray="0" stroke-linejoin="miter" stroke-linecap="square" stroke-opacity="1" stroke="#f9be6b" stroke-miterlimit="50" stroke-width="1" transform="matrix(1,0,0,1,-1364,-4903)"></path><path id="SvgjsPath1061" d="M1377 4912L1382 4915 " fill-opacity="0" fill="#ffffff" stroke-dasharray="0" stroke-linejoin="miter" stroke-linecap="square" stroke-opacity="1" stroke="#f9be6b" stroke-miterlimit="50" stroke-width="1" transform="matrix(1,0,0,1,-1364,-4903)"></path></svg>