<?xml version="1.0" encoding="utf-8"?>
<!-- Generator: Adobe Illustrator 19.2.1, SVG Export Plug-In . SVG Version: 6.00 Build 0)  -->
<svg version="1.1" id="Шар_1" xmlns="http://www.w3.org/2000/svg" xmlns:xlink="http://www.w3.org/1999/xlink" x="0px" y="0px"
	 viewBox="0 0 202 248" style="enable-background:new 0 0 202 248;" xml:space="preserve">
<style type="text/css">
	.st0{opacity:0.1;fill:#FFFFFF;enable-background:new    ;}
	.st1{fill:#9835EF;}
	.st2{opacity:0.3;fill:#FFFFFF;enable-background:new    ;}
</style>
<title>Group 14</title>
<desc>Created with Sketch.</desc>
<g id="Page-1">
	<g id="Desktop-HD-Copy-3" transform="translate(-420.000000, -2091.000000)">
		<g id="Group-8" transform="translate(390.000000, 2019.000000)">
			<g id="Group-14" transform="translate(30.000000, 72.000000)">
				<path id="Combined-Shape" class="st0" d="M0,0v248h202V63L139,0H0z M9,248V9h125v60h60v179H9z M142,15l45,46h-45V15L142,15z"/>
				<path id="Shape" class="st0" d="M155,185H86c-2.1,0-4,2-4,5c0,2,1.9,4,4,4h69c2.1,0,4-2,4-4C159,187,157.1,185,155,185L155,185z
					"/>
				<path id="Shape_1_" class="st0" d="M71,173l-19,15l-6-6c-1.3-1.8-4-1.8-6,0c-1.4,1.6-1.4,4.4,0,6l9,9c0.8,0.6,1.9,1,3,1
					c1,0,1.9-0.3,3-1l21-17c2.2-1.8,2.5-4.5,1-6C75.6,171.8,72.8,171.5,71,173L71,173z"/>
				<path id="Shape_2_" class="st1" d="M71,126l-19,15l-6-6c-1.3-1.8-4-1.8-6,0c-1.4,1.6-1.4,4.4,0,6l9,9c0.8,0.6,1.9,1,3,1
					c1,0,1.9-0.3,3-1l21-17c2.2-1.8,2.5-4.5,1-6C75.6,124.8,72.8,124.5,71,126L71,126z"/>
				<path id="Shape_3_" class="st0" d="M71,78L52,93l-6-6c-1.3-1.8-4-1.8-6,0c-1.4,1.6-1.4,4.4,0,6l9,9c0.8,0.6,1.9,1,3,1
					c1,0,1.9-0.3,3-1l21-17c2.2-1.8,2.5-4.5,1-6C75.6,76.8,72.8,76.5,71,78L71,78z"/>
				<path id="Shape_4_" class="st2" d="M155,138H86c-2.1,0-4,2-4,5c0,2,1.9,4,4,4h69c2.1,0,4-2,4-4C159,140,157.1,138,155,138
					L155,138z"/>
				<path id="Shape_5_" class="st0" d="M155,90H86c-2.1,0-4,2-4,5c0,2,1.9,4,4,4h69c2.1,0,4-2,4-4C159,92,157.1,90,155,90L155,90z"
					/>
			</g>
		</g>
	</g>
</g>
</svg>
