<svg id="SvgjsSvg1000" xmlns="http://www.w3.org/2000/svg" version="1.1" xmlns:xlink="http://www.w3.org/1999/xlink"
     xmlns:svgjs="http://svgjs.com/svgjs" width="198" height="230">
    <defs id="SvgjsDefs1001"></defs>
    <path id="SvgjsPath1007"
          d="M626.588 3960.18L608.15 3945.5699999999997L608.15 3871.7C608.15 3867.45 604.6999999999999 3864 600.459 3864L457.54099999999994 3864C453.29999999999995 3864 449.84899999999993 3867.45 449.84899999999993 3871.7L449.84899999999993 3945.5699999999997L431.41099999999994 3960.18C430.5199999999999 3960.89 429.99999999999994 3961.97 429.99999999999994 3963.1L429.99999999999994 4082.33C429.99999999999994 4088.7599999999998 435.23099999999994 4094 441.66099999999994 4094L616.3389999999999 4094C622.7689999999999 4094 627.9999999999999 4088.76 627.9999999999999 4082.33L627.9999999999999 3963.1C627.9999999999999 3961.97 627.4799999999999 3960.89 626.5879999999999 3960.18ZM457.541 3871.45L600.4590000000001 3871.45C600.596 3871.45 600.7070000000001 3871.56 600.7070000000001 3871.7L600.7070000000001 3977.0299999999997L567.8220000000001 4003.0899999999997L490.1780000000001 4003.0899999999997L457.2930000000001 3977.0299999999997C457.2930000000001 3977.0199999999995 457.2930000000001 3947.43 457.2930000000001 3947.43L457.2930000000001 3871.7C457.2930000000001 3871.56 457.4040000000001 3871.45 457.5410000000001 3871.45ZM514.063 4031.36C514.177 4031.27 514.293 4031.1800000000003 514.407 4031.09C518.981 4033.5 523.988 4034.71 528.999 4034.71C534.009 4034.71 539.018 4033.5 543.59 4031.09C543.706 4031.1800000000003 543.823 4031.27 543.938 4031.36L613.581 4086.55L444.419 4086.55ZM620.557 4082.33C620.557 4082.41 620.549 4082.48 620.5450000000001 4082.56L550.0400000000001 4026.69L620.557 3970.8ZM437.443 4082.33L437.443 3970.7999999999997L507.96 4026.6899999999996L437.455 4082.5599999999995C437.45099999999996 4082.4799999999996 437.443 4082.4099999999994 437.443 4082.3299999999995ZM543.939 4022.02C535.1429999999999 4028.99 522.857 4028.99 514.0609999999999 4022.02L499.5799999999999 4010.54L558.42 4010.54ZM618.282 3963.1L608.1500000000001 3971.13L608.1500000000001 3955.07ZM449.849 3971.13L439.717 3963.1L449.849 3955.0699999999997Z "
          fill="rgba(255, 255, 255, 0.2)" transform="matrix(1,0,0,1,-430,-3864)"></path>
    <path id="SvgjsPath1008"
          d="M501.458 3947.21C501.458 3949.26 503.125 3950.93 505.18 3950.93L552.82 3950.93C554.875 3950.93 556.541 3949.2599999999998 556.541 3947.21C556.541 3945.15 554.875 3943.48 552.82 3943.48L505.18000000000006 3943.48C503.12500000000006 3943.48 501.4580000000001 3945.15 501.4580000000001 3947.21ZM481.361 3919.14L525.03 3919.14C527.0849999999999 3919.14 528.752 3917.47 528.752 3915.41C528.752 3913.3599999999997 527.0849999999999 3911.69 525.03 3911.69L481.361 3911.69C479.305 3911.69 477.639 3913.36 477.639 3915.41C477.639 3917.47 479.305 3919.14 481.361 3919.14ZM481.361 3899.27L509.15 3899.27C511.20599999999996 3899.27 512.872 3897.6 512.872 3895.54C512.872 3893.49 511.20599999999996 3891.82 509.15 3891.82L481.361 3891.82C479.305 3891.82 477.639 3893.4900000000002 477.639 3895.54C477.639 3897.6 479.305 3899.27 481.361 3899.27ZM481.361 3970.8L576.639 3970.8C578.695 3970.8 580.361 3969.1400000000003 580.361 3967.0800000000004C580.361 3965.0200000000004 578.6949999999999 3963.3500000000004 576.639 3963.3500000000004L481.361 3963.3500000000004C479.305 3963.3500000000004 477.639 3965.0200000000004 477.639 3967.0800000000004C477.639 3969.1400000000003 479.305 3970.8 481.361 3970.8Z "
          fill="#fb5570" transform="matrix(1,0,0,1,-430,-3864)"></path>
</svg>