<?xml version="1.0" encoding="UTF-8" standalone="no"?>
<svg width="202px" height="248px" viewBox="0 0 202 248" version="1.1" xmlns="http://www.w3.org/2000/svg" xmlns:xlink="http://www.w3.org/1999/xlink">
    <!-- Generator: Sketch 39.1 (31720) - http://www.bohemiancoding.com/sketch -->
    <title>Group 14</title>
    <desc>Created with Sketch.</desc>
    <defs></defs>
    <g id="Page-1" stroke="none" stroke-width="1" fill="none" fill-rule="evenodd">
        <g id="Desktop-HD-Copy-3" transform="translate(-420.000000, -2091.000000)">
            <g id="Group-8" transform="translate(390.000000, 2019.000000)">
                <g id="Group-14" transform="translate(30.000000, 72.000000)">
                    <path d="M0,0 L0,248 L202,248 L202,63 L139,0 L0,0 Z M9,248 L9,9 L134,9 L134,69 L194,69 L194,248 L9,248 Z M142,15 L187,61 L142,61 L142,15 L142,15 Z" id="Combined-Shape" fill="#FFFFFF" opacity="0.100000001"></path>
                    <path d="M155,185 L86,185 C83.9164444,185 82,187.0115 82,190 C82,191.9885 83.9164444,194 86,194 L155,194 C157.083556,194 159,191.9885 159,190 C159,187.0115 157.083556,185 155,185 L155,185 Z" id="Shape" fill="#FFFFFF" opacity="0.100000001"></path>
                    <path d="M71,173 L52,188 L46,182 C44.7039312,180.243373 41.9651776,180.243373 40,182 C38.5764032,183.631778 38.5764032,186.370233 40,188 L49,197 C49.7784258,197.571033 50.8877944,198 52,198 C52.9548601,198 53.9125572,197.688024 55,197 L76,180 C78.2449971,178.219863 78.5440066,175.494407 77,174 C75.558245,171.75503 72.8281583,171.456053 71,173 L71,173 Z" id="Shape" fill="#FFFFFF" opacity="0.100000001"></path>
                    <path d="M71,126 L52,141 L46,135 C44.7039312,133.243373 41.9651776,133.243373 40,135 C38.5764032,136.631778 38.5764032,139.370233 40,141 L49,150 C49.7784258,150.571033 50.8877944,151 52,151 C52.9548601,151 53.9125572,150.688024 55,150 L76,133 C78.2449971,131.219863 78.5440066,128.494407 77,127 C75.558245,124.75503 72.8281583,124.456053 71,126 L71,126 Z" id="Shape" fill="#FB5570"></path>
                    <path d="M71,78 L52,93 L46,87 C44.7039312,85.2433732 41.9651776,85.2433732 40,87 C38.5764032,88.6317778 38.5764032,91.3702327 40,93 L49,102 C49.7784258,102.571033 50.8877944,103 52,103 C52.9548601,103 53.9125572,102.688024 55,102 L76,85 C78.2449971,83.219863 78.5440066,80.4944072 77,79 C75.558245,76.7550297 72.8281583,76.4560528 71,78 L71,78 Z" id="Shape" fill="#FFFFFF" opacity="0.100000001"></path>
                    <path d="M155,138 L86,138 C83.9164444,138 82,140.0115 82,143 C82,144.9885 83.9164444,147 86,147 L155,147 C157.083556,147 159,144.9885 159,143 C159,140.0115 157.083556,138 155,138 L155,138 Z" id="Shape" fill="#FFFFFF" opacity="0.300000012"></path>
                    <path d="M155,90 L86,90 C83.9164444,90 82,92.0115 82,95 C82,96.9885 83.9164444,99 86,99 L155,99 C157.083556,99 159,96.9885 159,95 C159,92.0115 157.083556,90 155,90 L155,90 Z" id="Shape" fill="#FFFFFF" opacity="0.100000001"></path>
                </g>
            </g>
        </g>
    </g>
</svg>