<?xml version="1.0" encoding="UTF-8" standalone="no"?>
<svg width="18px" height="18px" viewBox="0 0 18 18" version="1.1" xmlns="http://www.w3.org/2000/svg" xmlns:xlink="http://www.w3.org/1999/xlink">
    <!-- Generator: Sketch 39.1 (31720) - http://www.bohemiancoding.com/sketch -->
    <title>Search Copy 4</title>
    <desc>Created with Sketch.</desc>
    <defs></defs>
    <g id="Page-1" stroke="none" stroke-width="1" fill="none" fill-rule="evenodd">
        <g id="Desktop-HD-Copy-3" transform="translate(-1205.000000, -37.000000)" fill="#4A72F5">
            <path d="M1217.86052,51.354682 C1216.51324,52.3867288 1214.82824,53 1213,53 C1208.58172,53 1205,49.418278 1205,45 C1205,40.581722 1208.58172,37 1213,37 C1217.41828,37 1221,40.581722 1221,45 C1221,46.8150166 1220.39557,48.4888606 1219.37701,49.8312267 L1222.71932,53.2235211 C1223.10366,53.6136147 1223.08482,54.2439931 1222.69096,54.618458 L1222.58149,54.7225354 C1222.18148,55.1028441 1221.53851,55.0876841 1221.16129,54.7048182 L1217.86052,51.354682 Z M1213,51 C1216.31371,51 1219,48.3137085 1219,45 C1219,41.6862915 1216.31371,39 1213,39 C1209.68629,39 1207,41.6862915 1207,45 C1207,48.3137085 1209.68629,51 1213,51 Z" id="Search-Copy-4"></path>
        </g>
    </g>
</svg>