<svg id="SvgjsSvg1037" xmlns="http://www.w3.org/2000/svg" version="1.1" xmlns:xlink="http://www.w3.org/1999/xlink" xmlns:svgjs="http://svgjs.com/svgjs" width="19" height="19"><defs id="SvgjsDefs1038"></defs><path id="SvgjsPath1039" d="M1228 53C1229.82935 53 1231.5148 52.38676 1232.86212 51.35454L1236.86 55.41L1238.4199999999998 53.93L1234.3786699999998 49.83046C1235.3963099999999 48.488440000000004 1235.9999999999998 46.81505 1235.9999999999998 45C1235.9999999999998 40.58 1232.4199999999998 37 1227.9999999999998 37C1223.5799999999997 37 1219.9999999999998 40.58 1219.9999999999998 45C1219.9999999999998 49.42 1223.5799999999997 53 1227.9999999999998 53ZM1222 45C1222 41.68629 1224.68629 39 1228 39C1231.31371 39 1234 41.68629 1234 45C1234 48.31371 1231.31371 51 1228 51C1224.68629 51 1222 48.31371 1222 45Z " fill="#ffffff" fill-opacity="1" transform="matrix(1,0,0,1,-1220,-37)"></path></svg>