<?xml version="1.0" encoding="UTF-8" standalone="no"?>
<svg width="16px" height="14px" viewBox="0 0 16 14" version="1.1" xmlns="http://www.w3.org/2000/svg" xmlns:xlink="http://www.w3.org/1999/xlink">
    <!-- Generator: Sketch 39.1 (31720) - http://www.bohemiancoding.com/sketch -->
    <title>Combined Shape</title>
    <desc>Created with Sketch.</desc>
    <defs></defs>
    <g id="Page-1" stroke="none" stroke-width="1" fill="none" fill-rule="evenodd">
        <g id="Desktop-HD-Copy-3" transform="translate(-1365.000000, -682.000000)" fill="#4A4A4A">
            <g id="Group-4" transform="translate(1350.000000, 667.000000)">
                <path d="M21.9908942,24 L19.9970209,26 L19.9970209,17 C19.6124064,16.2752599 19.3354122,16 19.0000843,16 C18.6635541,16 18.3865599,16.2752599 18.0031476,17 L18.0031476,26 L16.0092743,24 C15.8729853,23.9825361 15.504642,23.9503248 15.0123376,24 C15.0154821,24.407139 14.9830679,24.7731761 15.0123376,25 L19.0000843,29 C18.7902641,29.039704 22.9878309,25 22.9878309,25 C23.0158984,24.7761044 22.9864309,24.3778561 22.9878309,24 C22.4943243,23.9503248 22.0965135,23.9825361 21.9908942,24 Z M29.9908942,20.0002908 L27.9970209,18.0002908 L27.9970209,27.0002908 C27.6124064,27.7250309 27.3354122,28.0002908 27.0000843,28.0002908 C26.6635541,28.0002908 26.3865599,27.7250309 26.0031476,27.0002908 L26.0031476,18.0002908 L24.0092743,20.0002908 C23.8729853,20.0177547 23.504642,20.049966 23.0123376,20.0002908 C23.0154821,19.5931517 22.9830679,19.2271147 23.0123376,19.0002908 L27.0000843,15.0002908 C26.7902641,14.9605868 30.9878309,19.0002908 30.9878309,19.0002908 C31.0158984,19.2241864 30.9864309,19.6224347 30.9878309,20.0002908 C30.4943243,20.049966 30.0965135,20.0177547 29.9908942,20.0002908 Z" id="Combined-Shape"></path>
            </g>
        </g>
    </g>
</svg>