<svg id="SvgjsSvg1023" xmlns="http://www.w3.org/2000/svg" version="1.1"width="32" height="32">
    <defs id="SvgjsDefs1024"></defs>
    <path id="SvgjsPath1025"
          d="M797 1822C805.843 1822 813 1814.82 813 1806C813 1797.16 805.815 1790 797 1790C788.185 1790 781 1797.16 781 1806C781 1814.82 788.157 1822 797 1822ZM797 1792.24C804.599 1792.24 810.762 1798.4 810.762 1806C810.762 1813.6 804.5989999999999 1819.76 797 1819.76C789.401 1819.76 783.238 1813.57 783.238 1806C783.238 1798.4 789.4010000000001 1792.24 797 1792.24ZM796.041 1808L800.9570000000001 1808C801.5430000000001 1808 802.0010000000001 1807.55 802.0010000000001 1806.98C802.0010000000001 1806.41 801.5430000000001 1805.96 800.9570000000001 1805.96L797.0850000000002 1805.96L797.0850000000002 1800.02C797.0850000000002 1799.45 796.6270000000002 1799 796.0410000000002 1799C795.4550000000002 1799 794.9960000000002 1799.45 794.9960000000002 1800.02L794.9960000000002 1806.98C794.9960000000002 1807.55 795.4550000000002 1808 796.0410000000002 1808Z "
          fill="#4a72f5" transform="matrix(1,0,0,1,-781,-1790)"></path>
</svg>