<svg id="SvgjsSvg1065" xmlns="http://www.w3.org/2000/svg" version="1.1" xmlns:xlink="http://www.w3.org/1999/xlink" xmlns:svgjs="http://svgjs.com/svgjs" width="15" height="12"><defs id="SvgjsDefs1066"></defs><path id="SvgjsPath1067" d="M439.13 4973.85C439.87 4973.52 440.36 4972.93 441 4972C439.99 4972.57 439.33 4972.82 438.19 4972.92C438.07 4972.37 437.27 4972 436.31 4972C434.69 4972 433.31 4973.36 433.5 4974.77C433.31 4975.27 433.33 4975.5 433.5 4975.6900000000005C430.83 4975.59 428.56 4974.39 426.94 4972.92C426.78 4973 426.63 4973.52 426.94 4973.85C426.63 4975.13 427.17 4976.06 427.88 4976.620000000001C427.49 4976.580000000001 427.02 4976.450000000001 426.94 4976.620000000001C426.6 4976.2300000000005 426.6 4976.250000000001 426.94 4976.620000000001C426.6 4977.7300000000005 427.66 4978.950000000001 428.81 4979.380000000001C428.81 4979.300000000001 428.54 4979.330000000001 427.88 4979.380000000001C428.06 4979.330000000001 427.87 4979.320000000001 427.88 4979.380000000001C428.07 4980.480000000001 429.21 4981.360000000001 430.69 4981.230000000001C429.5 4982.200000000002 428.18 4982.680000000001 426.94 4983.080000000002C426.49 4982.680000000002 426.24 4982.670000000002 426 4983.080000000002C427.36 4983.500000000002 428.98 4984.000000000002 430.69 4984.000000000002C436.38 4984.000000000002 439.46999999999997 4979.380000000002 439.13 4975.690000000001C439.46999999999997 4975.250000000002 439.46999999999997 4975.120000000002 439.13 4974.770000000001C440.07 4974.560000000001 440.59 4974.030000000002 441 4973.850000000001C440.45 4973.660000000002 439.85 4973.830000000001 439.13 4973.850000000001Z " fill="#ffffff" fill-opacity="1" transform="matrix(1,0,0,1,-426,-4972)"></path></svg>