<?xml version="1.0" encoding="UTF-8" standalone="no"?>
<svg width="15px" height="12px" viewBox="0 0 15 12" version="1.1" xmlns="http://www.w3.org/2000/svg" xmlns:xlink="http://www.w3.org/1999/xlink">
    <!-- Generator: Sketch 39.1 (31720) - http://www.bohemiancoding.com/sketch -->
    <title>Twitter</title>
    <desc>Created with Sketch.</desc>
    <defs></defs>
    <g id="Page-1" stroke="none" stroke-width="1" fill="none" fill-rule="evenodd">
        <g id="Desktop-HD-Copy-3" transform="translate(-426.000000, -4972.000000)" fill="#FFFFFF">
            <g id="Group-13" transform="translate(0.000000, 4835.000000)">
                <g id="Group-7" transform="translate(391.000000, 136.000000)">
                    <path d="M48.125,2.84615385 C48.8679693,2.52312172 49.3563149,1.92906232 50,1 C48.9910058,1.56889924 48.3330694,1.8209668 47.1875,1.92307692 C47.0699265,1.36761794 46.2699519,1 45.3125,1 C43.6857107,1 42.307607,2.35678509 42.5,3.76923077 C42.307607,4.26662784 42.3346846,4.4977286 42.5,4.69230769 C39.8293007,4.59370996 37.5623892,3.38695399 35.9375,1.92307692 C35.7790727,2.00174723 35.6275336,2.52218987 35.9375,2.84615385 C35.6275336,4.12871287 36.1709843,5.05544554 36.875,5.61538462 C36.4925893,5.58380897 36.01802,5.44682586 35.9375,5.61538462 C35.6023562,5.23296447 35.6023562,5.24554455 35.9375,5.61538462 C35.6023562,6.72580082 36.6631302,7.95072801 37.8125,8.38461538 C37.8132126,8.29831101 37.5410122,8.33465347 36.875,8.38461538 C37.0621675,8.33465347 36.8688244,8.31648224 36.875,8.38461538 C37.0730935,9.48410017 38.2093995,10.3605125 39.6875,10.2307692 C38.5029769,11.196855 37.1757031,11.681887 35.9375,12.0769231 C35.4859704,11.681887 35.2408475,11.6669773 35,12.0769231 C36.3619521,12.4991264 37.979003,13 39.6875,13 C45.3778186,13 48.4736825,8.38404193 48.125,4.69230769 C48.4736825,4.24892254 48.4708323,4.11846243 48.125,3.76923077 C49.0665379,3.56167734 49.5871865,3.02772277 50,2.84615385 C49.4484735,2.66103669 48.8546681,2.82504368 48.125,2.84615385 Z" id="Twitter"></path>
                </g>
            </g>
        </g>
    </g>
</svg>