<svg id="SvgjsSvg1071" xmlns="http://www.w3.org/2000/svg" version="1.1" xmlns:xlink="http://www.w3.org/1999/xlink" xmlns:svgjs="http://svgjs.com/svgjs" width="16" height="12"><defs id="SvgjsDefs1072"></defs><path id="SvgjsPath1073" d="M505 4972C504.07 4972 503 4973.15 503 4974.18C503 4974.56 503 4981.4400000000005 503 4981.820000000001C503 4982.85 504.07 4984.000000000001 505 4984.000000000001C505.39 4984.000000000001 516.61 4984.000000000001 517 4984.000000000001C517.93 4984.000000000001 519 4982.850000000001 519 4981.820000000001C519 4981.4400000000005 519 4974.56 519 4974.18C519 4973.150000000001 517.93 4972 517 4972C516.61 4972 505.39 4972 505 4972ZM509 4975L514 4978L509 4981Z " fill="#ffffff" fill-opacity="1" transform="matrix(1,0,0,1,-503,-4972)"></path></svg>