<svg id="SvgjsSvg1030" xmlns="http://www.w3.org/2000/svg" version="1.1" xmlns:xlink="http://www.w3.org/1999/xlink" xmlns:svgjs="http://svgjs.com/svgjs" width="68" height="13"><defs id="SvgjsDefs1031"><clipPath id="SvgjsClipPath1036"><path id="SvgjsPath1035" d="M425.5 2984C429.09 2984 432 2986.91 432 2990.5C432 2994.09 429.09 2997 425.5 2997C421.91 2997 419 2994.09 419 2990.5C419 2986.91 421.91 2984 425.5 2984Z " fill="#ffffff"></path></clipPath></defs><path id="SvgjsPath1032" d="M432 2991L432 2990L487 2990L487 2991Z " fill="#dce1e7" transform="matrix(1,0,0,1,-419,-2984)"></path><path id="SvgjsPath1033" d="M425.5 2984C429.09 2984 432 2986.91 432 2990.5C432 2994.09 429.09 2997 425.5 2997C421.91 2997 419 2994.09 419 2990.5C419 2986.91 421.91 2984 425.5 2984Z " fill="#4a72f5" transform="matrix(1,0,0,1,-419,-2984)"></path><path id="SvgjsPath1034" d="M425.5 2984C429.09 2984 432 2986.91 432 2990.5C432 2994.09 429.09 2997 425.5 2997C421.91 2997 419 2994.09 419 2990.5C419 2986.91 421.91 2984 425.5 2984Z " fill-opacity="0" fill="#ffffff" stroke-dasharray="0" stroke-linejoin="miter" stroke-linecap="butt" stroke-opacity="1" stroke="#dce1e7" stroke-miterlimit="50" stroke-width="6" clip-path="url(&quot;#SvgjsClipPath1036&quot;)" transform="matrix(1,0,0,1,-419,-2984)"></path></svg>