<svg id="SvgjsSvg1073" xmlns="http://www.w3.org/2000/svg" version="1.1" xmlns:xlink="http://www.w3.org/1999/xlink" xmlns:svgjs="http://svgjs.com/svgjs" width="202" height="248"><defs id="SvgjsDefs1074"></defs><path id="SvgjsPath1075" d="M420 2091L420 2339L429 2339L429 2100L554 2100L554 2160L614 2160L614 2339L622 2339L622 2154L559 2091ZM607 2152L562 2152L562 2106ZM472 2184C472 2184 466.4 2177.94 466 2178C464.7 2176.24 461.97 2176.24 460 2178C458.58 2179.63 458.58 2182.37 460 2184C460.27 2184.06 468.94 2192.73 469 2193C469.78 2193.57 470.89 2194 472 2194C472.95 2194 473.91 2193.69 475 2193C474.71 2193.05 496.37 2175.72 496 2176C498.24 2174.22 498.54 2171.49 497 2170C495.56 2167.76 492.83 2167.46 491 2169ZM472 2232C472 2232 466.4 2225.94 466 2226C464.7 2224.24 461.97 2224.24 460 2226C458.58 2227.63 458.58 2230.37 460 2232C460.27 2232.06 468.94 2240.73 469 2241C469.78 2241.57 470.89 2242 472 2242C472.95 2242 473.91 2241.69 475 2241C474.71 2241.05 496.37 2223.72 496 2224C498.24 2222.22 498.54 2219.49 497 2218C495.56 2215.76 492.83 2215.46 491 2217ZM575 2181C575 2181 506.28 2181 506 2181C503.92 2181 502 2183.01 502 2186C502 2187.99 503.92 2190 506 2190C506.28 2190 574.72 2190 575 2190C577.08 2190 579 2187.99 579 2186C579 2183.01 577.08 2181 575 2181C574.72 2181 575 2181 575 2181ZM575 2229C575 2229 506.28 2229 506 2229C503.92 2229 502 2231.01 502 2234C502 2235.99 503.92 2238 506 2238C506.28 2238 574.72 2238 575 2238C577.08 2238 579 2235.99 579 2234C579 2231.01 577.08 2229 575 2229C574.72 2229 575 2229 575 2229ZM575 2276C575 2276 506.28 2276 506 2276C503.92 2276 502 2278.01 502 2281C502 2282.99 503.92 2285 506 2285C506.28 2285 574.72 2285 575 2285C577.08 2285 579 2282.99 579 2281C579 2278.01 577.08 2276 575 2276C574.72 2276 575 2276 575 2276ZM472 2279C472 2279 466.4 2272.94 466 2273C464.7 2271.24 461.97 2271.24 460 2273C458.58 2274.63 458.58 2277.37 460 2279C460.27 2279.06 468.94 2287.73 469 2288C469.78 2288.57 470.89 2289 472 2289C472.95 2289 473.91 2288.69 475 2288C474.71 2288.05 496.37 2270.72 496 2271C498.24 2269.22 498.54 2266.49 497 2265C495.56 2262.76 492.83 2262.46 491 2264Z " fill="#ffffff" fill-opacity="1" transform="matrix(1,0,0,1,-420,-2091)"></path></svg>