<svg id="SvgjsSvg1017" xmlns="http://www.w3.org/2000/svg" version="1.1" xmlns:xlink="http://www.w3.org/1999/xlink" xmlns:svgjs="http://svgjs.com/svgjs" width="25" height="17"><defs id="SvgjsDefs1018"></defs><path id="SvgjsPath1019" d="M1586.44 648.031L1586.6000000000001 647.9309999999999C1586.91 647.728 1586.9800000000002 647.3259999999999 1586.7700000000002 647.0339999999999C1586.5500000000002 646.7399999999999 1586.13 646.6729999999999 1585.8300000000002 646.8739999999999C1575.2900000000002 653.915 1567.6200000000001 647.2209999999999 1567.2900000000002 646.9329999999999C1567.0200000000002 646.6899999999998 1566.5900000000001 646.7019999999999 1566.3400000000001 646.9599999999999C1566.0800000000002 647.2189999999999 1566.1000000000001 647.626 1566.3700000000001 647.8689999999999C1566.38 647.8829999999999 1566.6200000000001 648.093 1567.0600000000002 648.4029999999999L1565.7100000000003 650.531C1565.5200000000002 650.834 1565.6200000000003 651.2299999999999 1565.9300000000003 651.4159999999999C1566.0400000000002 651.478 1566.1700000000003 651.51 1566.2900000000002 651.51C1566.5100000000002 651.51 1566.7300000000002 651.399 1566.8600000000001 651.201L1568.18 649.123C1568.92 649.553 1569.8700000000001 650.023 1571 650.421L1570.35 652.499C1570.24 652.841 1570.4499999999998 653.198 1570.8 653.299L1571 653.328C1571.28 653.328 1571.55 653.1469999999999 1571.64 652.867L1572.2800000000002 650.818C1573.3300000000002 651.09 1574.5000000000002 651.274 1575.7600000000002 651.318L1575.7600000000002 653.377C1575.7600000000002 653.733 1576.0600000000002 654.021 1576.4300000000003 654.021C1576.8000000000002 654.021 1577.1000000000004 653.733 1577.1000000000004 653.377L1577.1000000000004 651.3059999999999C1578.2000000000003 651.2479999999999 1579.3700000000003 651.069 1580.5900000000004 650.7359999999999L1581.4200000000003 652.8259999999999C1581.5200000000002 653.0849999999999 1581.7800000000002 653.242 1582.0500000000004 653.242L1582.2800000000004 653.2009999999999C1582.6300000000003 653.074 1582.8100000000004 652.7029999999999 1582.6800000000005 652.3699999999999L1581.8700000000006 650.3359999999999C1582.9800000000005 649.9409999999999 1584.1200000000006 649.4229999999999 1585.3000000000006 648.7369999999999L1586.4000000000005 650.1299999999999C1586.5300000000007 650.2979999999999 1586.7300000000005 650.3879999999999 1586.9400000000005 650.3879999999999C1587.0800000000006 650.3879999999999 1587.2200000000005 650.3469999999999 1587.3400000000006 650.2599999999999C1587.6400000000006 650.0449999999998 1587.7000000000005 649.6419999999998 1587.4800000000007 649.3569999999999ZM1587.9 642.995C1587.9 642.995 1587.64 642.622 1587.0700000000002 642.124C1586.7900000000002 641.861 1586.43 641.597 1586.0000000000002 641.2900000000001C1585.5700000000002 641.0150000000001 1585.0800000000002 640.6880000000001 1584.5100000000002 640.412C1583.9400000000003 640.124 1583.3100000000002 639.849 1582.6200000000001 639.623C1581.94 639.3660000000001 1581.18 639.215 1580.4 639.0790000000001C1579.6100000000001 638.985 1578.7800000000002 638.9670000000001 1577.94 639.0020000000001C1577.1000000000001 639.07 1576.26 639.071 1575.41 639.1690000000001C1574.5700000000002 639.2370000000001 1573.73 639.3100000000001 1572.92 639.4650000000001C1572.51 639.5330000000001 1572.1000000000001 639.5880000000002 1571.71 639.6720000000001C1571.31 639.7740000000001 1570.93 639.8770000000002 1570.54 639.9770000000001C1569.78 640.1580000000001 1569.06 640.3900000000001 1568.3999999999999 640.6630000000001C1567.7299999999998 640.9070000000002 1567.11 641.1530000000001 1566.57 641.4510000000001C1566.01 641.7290000000002 1565.51 641.9660000000001 1565.08 642.2050000000002C1564.6599999999999 642.4740000000002 1564.3 642.7080000000002 1564 642.9000000000002C1563.42 643.2890000000002 1563.09 643.5120000000002 1563.09 643.5120000000002L1563.01 643.7320000000002C1563.05 643.8340000000002 1563.16 643.8870000000002 1563.27 643.8530000000002L1563.29 643.8460000000002C1563.29 643.8460000000002 1563.67 643.7230000000002 1564.33 643.5080000000003C1564.6599999999999 643.3990000000002 1565.05 643.2670000000003 1565.5 643.1140000000003C1565.96 642.9890000000003 1566.49 642.8790000000002 1567.06 642.7440000000003C1567.61 642.5910000000002 1568.24 642.5000000000002 1568.8999999999999 642.4240000000002C1569.2199999999998 642.3780000000002 1569.56 642.3300000000002 1569.8999999999999 642.2820000000002C1570.2499999999998 642.2460000000002 1570.6 642.2380000000002 1570.9599999999998 642.2130000000002C1571.3099999999997 642.1920000000002 1571.6699999999998 642.1700000000002 1572.0399999999997 642.1490000000002C1572.4099999999996 642.1510000000002 1572.7799999999997 642.1540000000002 1573.1499999999996 642.1570000000003C1573.8999999999996 642.1360000000003 1574.6499999999996 642.1980000000003 1575.4099999999996 642.2610000000003C1576.9199999999996 642.3620000000003 1578.3799999999997 642.8360000000004 1579.7499999999995 643.0550000000003C1581.1299999999997 643.2740000000003 1582.4499999999996 643.3350000000003 1583.6199999999994 643.3960000000003C1584.7999999999995 643.4280000000003 1585.8099999999995 643.4490000000003 1586.5499999999995 643.4150000000003C1587.2799999999995 643.3890000000004 1587.7399999999996 643.3450000000003 1587.7399999999996 643.3450000000003L1587.8499999999995 643.3050000000003C1587.9499999999994 643.2360000000003 1587.9799999999996 643.0970000000003 1587.8999999999994 642.9950000000003Z " fill="#262729" transform="matrix(1,0,0,1,-1563,-638)"></path></svg>