<svg id="SvgjsSvg1037" xmlns="http://www.w3.org/2000/svg" version="1.1" xmlns:xlink="http://www.w3.org/1999/xlink" xmlns:svgjs="http://svgjs.com/svgjs" width="44" height="39"><defs id="SvgjsDefs1038"></defs><path id="SvgjsPath1039" d="M838.31 2255.44L796.4219999999999 2255.44C796.0409999999999 2255.44 795.7319999999999 2255.75 795.7319999999999 2256.14L795.7319999999999 2292.62C795.7319999999999 2293 796.0409999999998 2293.3199999999997 796.4219999999999 2293.3199999999997L838.31 2293.3199999999997C838.6909999999999 2293.3199999999997 839 2292.9999999999995 839 2292.62L839 2256.14C839 2255.75 838.691 2255.44 838.31 2255.44ZM797.113 2291.91L797.113 2262.45L837.619 2262.45L837.619 2291.91ZM814.604 2268.53L802.8670000000001 2268.53C802.4850000000001 2268.53 802.176 2268.8500000000004 802.176 2269.23L802.176 2285.13C802.176 2285.52 802.485 2285.84 802.8670000000001 2285.84L822.6590000000001 2285.84C823.041 2285.84 823.3500000000001 2285.52 823.3500000000001 2285.13L823.3500000000001 2269.23C823.3500000000001 2268.85 823.0410000000002 2268.53 822.6590000000001 2268.53L817.3660000000001 2268.53C816.9850000000001 2268.53 816.676 2268.8500000000004 816.676 2269.23C816.676 2269.62 816.985 2269.94 817.3660000000001 2269.94L821.969 2269.94L821.969 2284.43L803.557 2284.43L803.557 2269.94L814.604 2269.94C814.986 2269.94 815.2950000000001 2269.62 815.2950000000001 2269.23C815.2950000000001 2268.85 814.9860000000001 2268.53 814.604 2268.53ZM837.619 2256.84L837.619 2261.05L797.113 2261.05L797.113 2256.84ZM807.797 2271.91C807.5930000000001 2272.04 807.47 2272.2599999999998 807.47 2272.5099999999998L807.47 2281.8599999999997C807.47 2282.0999999999995 807.5930000000001 2282.3299999999995 807.797 2282.4599999999996C807.908 2282.5299999999997 808.034 2282.5599999999995 808.1600000000001 2282.5599999999995C808.2660000000001 2282.5599999999995 808.3710000000001 2282.5399999999995 808.469 2282.4899999999993L817.6750000000001 2277.8099999999995C817.9090000000001 2277.6899999999996 818.056 2277.4499999999994 818.056 2277.1799999999994C818.056 2276.919999999999 817.909 2276.6799999999994 817.6750000000001 2276.5599999999995L808.469 2271.8799999999997C808.255 2271.7699999999995 808.0010000000001 2271.7799999999997 807.797 2271.91ZM808.85 2273.64L815.822 2277.18L808.85 2280.73ZM826.342 2275.78L831.865 2275.78C832.247 2275.78 832.556 2275.4700000000003 832.556 2275.0800000000004C832.556 2274.6900000000005 832.2470000000001 2274.3800000000006 831.865 2274.3800000000006L826.342 2274.3800000000006C825.96 2274.3800000000006 825.651 2274.6900000000005 825.651 2275.0800000000004C825.651 2275.4700000000003 825.9599999999999 2275.78 826.342 2275.78ZM826.342 2271.57L831.865 2271.57C832.247 2271.57 832.556 2271.26 832.556 2270.8700000000003C832.556 2270.4800000000005 832.2470000000001 2270.1700000000005 831.865 2270.1700000000005L826.342 2270.1700000000005C825.96 2270.1700000000005 825.651 2270.4800000000005 825.651 2270.8700000000003C825.651 2271.26 825.9599999999999 2271.57 826.342 2271.57ZM826.342 2279.99L831.865 2279.99C832.247 2279.99 832.556 2279.68 832.556 2279.29C832.556 2278.9 832.2470000000001 2278.59 831.865 2278.59L826.342 2278.59C825.96 2278.59 825.651 2278.9 825.651 2279.29C825.651 2279.68 825.9599999999999 2279.99 826.342 2279.99ZM826.342 2284.2L831.865 2284.2C832.247 2284.2 832.556 2283.8799999999997 832.556 2283.5C832.556 2283.11 832.2470000000001 2282.8 831.865 2282.8L826.342 2282.8C825.96 2282.8 825.651 2283.11 825.651 2283.5C825.651 2283.88 825.9599999999999 2284.2 826.342 2284.2ZM834.627 2258.95C834.627 2259.33 834.9359999999999 2259.6499999999996 835.318 2259.6499999999996C835.699 2259.6499999999996 836.008 2259.3299999999995 836.008 2258.95C836.008 2258.56 835.6990000000001 2258.25 835.318 2258.25C834.936 2258.25 834.627 2258.56 834.627 2258.95ZM831.405 2258.95C831.405 2259.33 831.7139999999999 2259.6499999999996 832.096 2259.6499999999996C832.477 2259.6499999999996 832.7860000000001 2259.3299999999995 832.7860000000001 2258.95C832.7860000000001 2258.56 832.4770000000001 2258.25 832.096 2258.25C831.714 2258.25 831.405 2258.56 831.405 2258.95ZM828.183 2258.95C828.183 2259.33 828.492 2259.6499999999996 828.873 2259.6499999999996C829.255 2259.6499999999996 829.5640000000001 2259.3299999999995 829.5640000000001 2258.95C829.5640000000001 2258.56 829.2550000000001 2258.25 828.873 2258.25C828.4920000000001 2258.25 828.183 2258.56 828.183 2258.95ZM835.548 2263.86L799.184 2263.86C798.803 2263.86 798.4939999999999 2264.17 798.4939999999999 2264.56L798.4939999999999 2289.81C798.4939999999999 2290.2 798.8029999999999 2290.5099999999998 799.184 2290.5099999999998L829.1039999999999 2290.5099999999998C829.4849999999999 2290.5099999999998 829.794 2290.2 829.794 2289.81C829.794 2289.42 829.485 2289.11 829.1039999999999 2289.11L799.8749999999999 2289.11L799.8749999999999 2265.26L834.8569999999999 2265.26L834.8569999999999 2289.11L831.8649999999999 2289.11C831.4839999999999 2289.11 831.1749999999998 2289.42 831.1749999999998 2289.81C831.1749999999998 2290.2 831.4839999999998 2290.5099999999998 831.8649999999999 2290.5099999999998L835.5479999999999 2290.5099999999998C835.9289999999999 2290.5099999999998 836.2379999999999 2290.2 836.2379999999999 2289.81L836.2379999999999 2264.56C836.2379999999999 2264.17 835.929 2263.86 835.5479999999999 2263.86Z " fill="#4a72f5" transform="matrix(1,0,0,1,-795,-2255)"></path></svg>