<svg id="SvgjsSvg1040" xmlns="http://www.w3.org/2000/svg" version="1.1" xmlns:xlink="http://www.w3.org/1999/xlink" xmlns:svgjs="http://svgjs.com/svgjs" width="44" height="43"><defs id="SvgjsDefs1041"></defs><path id="SvgjsPath1042" d="M947.578 2258.43L945.506 2258.43L945.506 2253.52C945.506 2253.13 945.197 2252.81 944.8159999999999 2252.81L929.2789999999999 2252.81C928.2829999999999 2252.81 927.3429999999998 2253.2 926.6339999999999 2253.88C925.925 2253.2000000000003 924.9849999999999 2252.81 923.9889999999999 2252.81L908.4519999999999 2252.81C908.0709999999999 2252.81 907.7619999999998 2253.13 907.7619999999998 2253.52L907.7619999999998 2258.43L905.6899999999998 2258.43C905.3089999999999 2258.43 904.9999999999998 2258.74 904.9999999999998 2259.1299999999997L904.9999999999998 2289.22C904.9999999999998 2289.6099999999997 905.3089999999997 2289.9199999999996 905.6899999999998 2289.9199999999996L923.8569999999999 2289.9199999999996L924.6299999999999 2290.8399999999997C924.7609999999999 2290.9999999999995 924.9529999999999 2291.0899999999997 925.1539999999999 2291.0899999999997L928.1139999999999 2291.0899999999997C928.3159999999999 2291.0899999999997 928.507 2290.9999999999995 928.6379999999999 2290.8399999999997L929.411 2289.9199999999996L933.193 2289.9199999999996L933.193 2292.49C933.193 2293.5 933.999 2294.3199999999997 934.989 2294.3199999999997L936.462 2294.3199999999997C937.451 2294.3199999999997 938.256 2293.4999999999995 938.256 2292.49L938.256 2289.9199999999996L947.578 2289.9199999999996C947.959 2289.9199999999996 948.268 2289.6099999999997 948.268 2289.22L948.268 2259.1299999999997C948.268 2258.74 947.9590000000001 2258.43 947.578 2258.43ZM946.887 2288.52L938.257 2288.52L938.257 2262.69C938.257 2262.66 938.255 2262.64 938.2529999999999 2262.62C938.251 2262.6 938.2479999999999 2262.58 938.2449999999999 2262.56C938.2439999999999 2262.56 938.2439999999999 2262.5499999999997 938.2429999999999 2262.5499999999997C938.2339999999999 2262.4999999999995 938.2189999999999 2262.45 938.2009999999999 2262.41L936.3619999999999 2257.93C936.2549999999999 2257.66 936.0039999999999 2257.49 935.7249999999999 2257.49C935.4459999999999 2257.49 935.1949999999999 2257.66 935.088 2257.93L933.2489999999999 2262.41C933.2299999999999 2262.45 933.2159999999999 2262.5 933.2069999999999 2262.5499999999997C933.2059999999999 2262.5499999999997 933.2059999999999 2262.56 933.2049999999999 2262.56C933.2019999999999 2262.58 933.199 2262.6 933.1969999999999 2262.62C933.1939999999998 2262.64 933.1929999999999 2262.66 933.1929999999999 2262.69L933.1929999999999 2288.52L929.2789999999999 2288.52C928.9259999999999 2288.52 928.5959999999999 2288.69 928.3879999999999 2288.98L927.7959999999999 2289.68L925.472 2289.68L924.879 2288.98C924.671 2288.69 924.342 2288.52 923.989 2288.52L906.3810000000001 2288.52L906.3810000000001 2259.83L907.7620000000001 2259.83L907.7620000000001 2283.61C907.7620000000001 2284 908.071 2284.31 908.4520000000001 2284.31L923.9890000000001 2284.31C924.7570000000002 2284.31 925.4740000000002 2284.67 925.9440000000002 2285.2799999999997L925.9440000000002 2286.2499999999995C925.3600000000002 2285.8999999999996 924.6880000000002 2285.7099999999996 923.9890000000001 2285.7099999999996L908.4520000000001 2285.7099999999996C908.0710000000001 2285.7099999999996 907.7620000000001 2286.0299999999997 907.7620000000001 2286.4199999999996C907.7620000000001 2286.7999999999997 908.071 2287.1199999999994 908.4520000000001 2287.1199999999994L923.9890000000001 2287.1199999999994C924.8230000000001 2287.1199999999994 925.5970000000001 2287.5399999999995 926.0590000000002 2288.2499999999995C926.0740000000002 2288.2699999999995 926.0900000000001 2288.2899999999995 926.1080000000002 2288.3099999999995C926.1120000000002 2288.3199999999997 926.1170000000002 2288.3199999999997 926.1220000000002 2288.3299999999995C926.1340000000001 2288.3399999999997 926.1480000000001 2288.3499999999995 926.1620000000001 2288.3699999999994C926.1680000000001 2288.3699999999994 926.1740000000001 2288.3799999999997 926.1800000000002 2288.3899999999994C926.1950000000002 2288.3999999999996 926.2100000000002 2288.4099999999994 926.2260000000002 2288.4199999999996C926.2310000000002 2288.43 926.2360000000002 2288.43 926.2410000000002 2288.43C926.2620000000002 2288.45 926.2850000000002 2288.46 926.3080000000002 2288.48C926.3310000000002 2288.4900000000002 926.3540000000003 2288.5 926.3790000000002 2288.51C926.3840000000002 2288.51 926.3900000000002 2288.51 926.3960000000003 2288.5200000000004C926.4150000000003 2288.5200000000004 926.4340000000003 2288.5300000000007 926.4540000000003 2288.5300000000007C926.4610000000002 2288.540000000001 926.4680000000003 2288.540000000001 926.4750000000003 2288.540000000001C926.4940000000003 2288.540000000001 926.5140000000002 2288.550000000001 926.5340000000002 2288.550000000001C926.5410000000002 2288.550000000001 926.5470000000003 2288.550000000001 926.5540000000002 2288.550000000001C926.5810000000002 2288.5600000000013 926.6070000000002 2288.5600000000013 926.6340000000002 2288.5600000000013C926.6620000000003 2288.5600000000013 926.6880000000002 2288.5600000000013 926.7140000000003 2288.550000000001C926.7210000000002 2288.550000000001 926.7280000000003 2288.550000000001 926.7360000000003 2288.550000000001C926.7550000000003 2288.550000000001 926.7740000000003 2288.540000000001 926.7930000000003 2288.540000000001C926.8010000000004 2288.540000000001 926.8080000000003 2288.540000000001 926.8150000000004 2288.5300000000007C926.8350000000004 2288.5300000000007 926.8530000000004 2288.5200000000004 926.8720000000004 2288.5200000000004C926.8780000000004 2288.51 926.8840000000004 2288.51 926.8900000000004 2288.51C926.9140000000004 2288.5 926.9370000000005 2288.4900000000002 926.9590000000004 2288.48C926.9840000000004 2288.46 927.0060000000004 2288.45 927.0270000000004 2288.43C927.0330000000004 2288.43 927.0380000000004 2288.43 927.0440000000004 2288.4199999999996C927.0590000000004 2288.4099999999994 927.0740000000004 2288.3999999999996 927.0880000000004 2288.3899999999994C927.0950000000004 2288.379999999999 927.1010000000005 2288.3699999999994 927.1070000000004 2288.3699999999994C927.1210000000004 2288.3499999999995 927.1340000000005 2288.3399999999992 927.1470000000004 2288.3299999999995C927.1510000000004 2288.3199999999993 927.1560000000004 2288.3199999999993 927.1610000000004 2288.3099999999995C927.1780000000005 2288.2899999999995 927.1940000000004 2288.2699999999995 927.2090000000004 2288.2499999999995C927.6720000000004 2287.5399999999995 928.4450000000004 2287.1199999999994 929.2790000000005 2287.1199999999994L931.1220000000004 2287.1199999999994C931.5040000000004 2287.1199999999994 931.8130000000004 2286.7999999999993 931.8130000000004 2286.4199999999996C931.8130000000004 2286.0299999999997 931.5040000000005 2285.7099999999996 931.1220000000004 2285.7099999999996L929.2790000000005 2285.7099999999996C928.5800000000005 2285.7099999999996 927.9080000000005 2285.8999999999996 927.3250000000005 2286.2499999999995L927.3250000000005 2285.2799999999997C927.7940000000006 2284.6699999999996 928.5110000000005 2284.31 929.2790000000005 2284.31L931.1220000000004 2284.31C931.5040000000004 2284.31 931.8130000000004 2283.99 931.8130000000004 2283.61C931.8130000000004 2283.2200000000003 931.5040000000005 2282.9100000000003 931.1220000000004 2282.9100000000003L929.2790000000005 2282.9100000000003C928.2840000000004 2282.9100000000003 927.3430000000004 2283.2900000000004 926.6340000000005 2283.9700000000003C925.9260000000005 2283.2900000000004 924.9850000000005 2282.9100000000003 923.9890000000005 2282.9100000000003L909.1430000000005 2282.9100000000003L909.1430000000005 2254.2200000000003L923.9890000000005 2254.2200000000003C924.8230000000004 2254.2200000000003 925.5960000000005 2254.6400000000003 926.0590000000005 2255.3500000000004C926.1870000000006 2255.5400000000004 926.4030000000006 2255.6600000000003 926.6340000000006 2255.6600000000003C926.8650000000006 2255.6600000000003 927.0810000000006 2255.5400000000004 927.2090000000006 2255.3500000000004C927.6720000000006 2254.6400000000003 928.4460000000006 2254.2200000000003 929.2790000000007 2254.2200000000003L944.1250000000007 2254.2200000000003L944.1250000000007 2282.9100000000003L940.3280000000007 2282.9100000000003C939.9470000000007 2282.9100000000003 939.6380000000006 2283.2200000000003 939.6380000000006 2283.61C939.6380000000006 2284 939.9470000000006 2284.31 940.3280000000007 2284.31L944.8160000000007 2284.31C945.1970000000007 2284.31 945.5060000000008 2284 945.5060000000008 2283.61L945.5060000000008 2259.83L946.8870000000007 2259.83ZM922.718 2279.16L921.568 2279.16L921.568 2276.74C921.568 2276.35 921.259 2276.04 920.877 2276.04C920.496 2276.04 920.1869999999999 2276.35 920.1869999999999 2276.74L920.1869999999999 2279.16L918.6529999999999 2279.16L918.6529999999999 2273.93C918.6529999999999 2273.54 918.3439999999999 2273.23 917.9629999999999 2273.23C917.5819999999999 2273.23 917.2719999999998 2273.54 917.2719999999998 2273.93L917.2719999999998 2279.16L915.7389999999998 2279.16L915.7389999999998 2276.74C915.7389999999998 2276.35 915.4299999999998 2276.04 915.0489999999998 2276.04C914.6669999999998 2276.04 914.3579999999997 2276.35 914.3579999999997 2276.74L914.3579999999997 2279.16L912.8249999999997 2279.16L912.8249999999997 2273.93C912.8249999999997 2273.54 912.5159999999997 2273.23 912.1349999999996 2273.23C911.7529999999997 2273.23 911.4439999999996 2273.54 911.4439999999996 2273.93L911.4439999999996 2279.8599999999997C911.4439999999996 2280.2499999999995 911.7529999999996 2280.5699999999997 912.1349999999996 2280.5699999999997L922.7179999999996 2280.5699999999997C923.0999999999996 2280.5699999999997 923.4089999999997 2280.2499999999995 923.4089999999997 2279.8599999999997C923.4089999999997 2279.4799999999996 923.0999999999997 2279.16 922.7179999999996 2279.16ZM936.876 2263.39L936.876 2287.02L934.574 2287.02L934.574 2263.39ZM926.634 2257.07C926.253 2257.07 925.944 2257.38 925.944 2257.77L925.944 2281.43C925.944 2281.8199999999997 926.2529999999999 2282.1299999999997 926.634 2282.1299999999997C927.015 2282.1299999999997 927.3240000000001 2281.8199999999997 927.3240000000001 2281.43L927.3240000000001 2257.77C927.3240000000001 2257.38 927.0150000000001 2257.07 926.634 2257.07ZM922.718 2259.89L912.135 2259.89C911.753 2259.89 911.444 2260.21 911.444 2260.5899999999997C911.444 2260.9799999999996 911.7529999999999 2261.2999999999997 912.135 2261.2999999999997L922.718 2261.2999999999997C923.0999999999999 2261.2999999999997 923.409 2260.9799999999996 923.409 2260.5899999999997C923.409 2260.2099999999996 923.1 2259.89 922.718 2259.89ZM922.718 2269.89L912.135 2269.89C911.753 2269.89 911.444 2270.21 911.444 2270.6C911.444 2270.98 911.7529999999999 2271.2999999999997 912.135 2271.2999999999997L922.718 2271.2999999999997C923.0999999999999 2271.2999999999997 923.409 2270.9799999999996 923.409 2270.6C923.409 2270.21 923.1 2269.89 922.718 2269.89ZM922.718 2256.56L912.135 2256.56C911.753 2256.56 911.444 2256.87 911.444 2257.2599999999998C911.444 2257.6499999999996 911.7529999999999 2257.9599999999996 912.135 2257.9599999999996L922.718 2257.9599999999996C923.0999999999999 2257.9599999999996 923.409 2257.6499999999996 923.409 2257.2599999999998C923.409 2256.87 923.1 2256.56 922.718 2256.56ZM922.718 2266.56L912.135 2266.56C911.753 2266.56 911.444 2266.87 911.444 2267.2599999999998C911.444 2267.6499999999996 911.7529999999999 2267.9599999999996 912.135 2267.9599999999996L922.718 2267.9599999999996C923.0999999999999 2267.9599999999996 923.409 2267.6499999999996 923.409 2267.2599999999998C923.409 2266.87 923.1 2266.56 922.718 2266.56ZM912.135 2264.63L917.426 2264.63C917.808 2264.63 918.1170000000001 2264.32 918.1170000000001 2263.9300000000003C918.1170000000001 2263.5400000000004 917.8080000000001 2263.2300000000005 917.426 2263.2300000000005L912.135 2263.2300000000005C911.753 2263.2300000000005 911.444 2263.5400000000004 911.444 2263.9300000000003C911.444 2264.32 911.7529999999999 2264.63 912.135 2264.63ZM936.462 2292.92L934.989 2292.92C934.764 2292.92 934.5740000000001 2292.7200000000003 934.5740000000001 2292.4900000000002L934.5740000000001 2291.23L936.8760000000001 2291.23L936.8760000000001 2292.4900000000002C936.8760000000001 2292.7200000000003 936.686 2292.92 936.4620000000001 2292.92ZM934.574 2288.42L936.876 2288.42L936.876 2289.83L934.574 2289.83ZM934.919 2261.99L935.725 2260.02L936.53 2261.99ZM944.816 2285.71L940.328 2285.71C939.947 2285.71 939.6379999999999 2286.03 939.6379999999999 2286.42C939.6379999999999 2286.8 939.9469999999999 2287.12 940.328 2287.12L944.816 2287.12C945.197 2287.12 945.5060000000001 2286.7999999999997 945.5060000000001 2286.42C945.5060000000001 2286.03 945.1970000000001 2285.71 944.816 2285.71Z " fill="#4a72f5" transform="matrix(1,0,0,1,-905,-2252)"></path></svg>