<?xml version="1.0" encoding="utf-8"?>
<!-- Generator: Adobe Illustrator 19.2.1, SVG Export Plug-In . SVG Version: 6.00 Build 0)  -->
<svg version="1.1" id="SvgjsSvg1070" xmlns:svgjs="http://svgjs.com/svgjs"
	 xmlns="http://www.w3.org/2000/svg" xmlns:xlink="http://www.w3.org/1999/xlink" x="0px" y="0px" viewBox="0 0 151 151"
	 style="enable-background:new 0 0 151 151;" xml:space="preserve">
<style type="text/css">
	.st0{fill:#4A72F5;}
</style>
<path id="SvgjsPath1072" class="st0" d="M44.1,51c-1.7,0-3.1,1.4-3.1,3.1v42.7c0,1.7,1.4,3.1,3.1,3.1h61.7c1.7,0,3.1-1.4,3.1-3.1
	V54.1c0-1.7-1.4-3.1-3.1-3.1H44.1z M106.7,97.7c-0.2,0.2-0.5,0.3-0.8,0.3H44.1c-0.3,0-0.6-0.1-0.8-0.3c-0.2-0.2-0.3-0.5-0.3-0.8
	V54.1c0-0.3,0.1-0.6,0.3-0.8c0.2-0.2,0.5-0.3,0.8-0.3h61.7c0.3,0,0.6,0.1,0.8,0.3c0.2,0.2,0.3,0.5,0.3,0.8v42.7
	C107,97.2,106.9,97.5,106.7,97.7z M95.6,82c2.3-2.5,2.2-6.4-0.2-8.8c-2.4-2.4-6.3-2.5-8.8-0.1c-2.5,2.3-2.7,6.2-0.4,8.8l-2.7,6.6
	c-0.2,0.4-0.1,0.8,0.2,1.1c0.3,0.3,0.7,0.4,1.1,0.2l1.9-0.8l0.8,1.9c0.2,0.4,0.5,0.6,0.9,0.6s0.8-0.2,0.9-0.6l1.6-3.9l1.6,3.9
	c0.2,0.4,0.5,0.6,0.9,0.6c0.4,0,0.8-0.2,0.9-0.6l0.8-1.9l1.9,0.8c0.4,0.2,0.8,0.1,1.1-0.2c0.3-0.3,0.4-0.7,0.2-1.1L95.6,82z
	 M94.2,57.3c0.6,0,1-0.4,1-1c0-0.5-0.5-1-1-1H55.8c-0.6,0-1,0.5-1,1c0,0.6,0.5,1,1,1H94.2z M94.2,68c0.6,0,1-0.5,1-1
	c0-0.6-0.4-1-1-1H55.8c-0.6,0-1,0.4-1,1c0,0.6,0.5,1,1,1H94.2z M55.8,93.7c-0.6,0-1,0.4-1,1c0,0.6,0.4,1,1,1h38.3c0.6,0,1-0.5,1-1
	c0-0.6-0.4-1-1-1H55.8z M95,76c0.7,1.6,0.3,3.5-0.9,4.7c-1.2,1.2-3.1,1.6-4.7,0.9s-2.7-2.2-2.7-4c0-1.1,0.4-2.2,1.3-3.1
	c0.8-0.8,1.9-1.3,3.1-1.3C92.7,73.3,94.3,74.4,95,76z M121.5,28.8l0.7,0.7l7.1-7.1l-0.7-0.7L121.5,28.8z M22.5,21.8l-0.7,0.7
	l7.1,7.1l0.7-0.7L22.5,21.8z M21.8,128.5l0.7,0.7l7.1-7.1l-0.7-0.7L21.8,128.5z M122.2,121.5l-0.7,0.7l7.1,7.1l0.7-0.7L122.2,121.5z
	 M126.5,34.4l0.6,0.8l7.8-6.2l-0.6-0.8L126.5,34.4z M16.1,122.1l0.6,0.8l7.8-6.2l-0.6-0.8L16.1,122.1z M116.6,126.5l-0.8,0.6
	l6.2,7.8l0.8-0.6L116.6,126.5z M28.9,16.1l-0.8,0.6l6.2,7.8l0.8-0.6L28.9,16.1z M114.1,22.6l0.8,0.6l5.9-8l-0.8-0.6L114.1,22.6z
	 M30.1,135.9l0.8,0.6l6-8l-0.8-0.6L30.1,135.9z M128.4,114.1l-0.6,0.8l8,5.9l0.6-0.8L128.4,114.1z M15.2,30.1l-0.6,0.8l8,6l0.6-0.8
	L15.2,30.1z M9.9,112.8l0.5,0.9l8.7-5l-0.5-0.9L9.9,112.8z M132.5,107.8l-0.5,0.9l8.7,5l0.5-0.9L132.5,107.8z M132,42.3l0.5,0.9
	l8.7-5l-0.5-0.9L132,42.3z M10.4,37.3l-0.5,0.9l8.7,5l0.5-0.9L10.4,37.3z M108.7,132l-0.9,0.5l5,8.7l0.9-0.5L108.7,132z M38.2,9.9
	l-0.9,0.5l5,8.7l0.9-0.5L38.2,9.9z M37.3,140.6l0.9,0.5l5-8.7l-0.9-0.5L37.3,140.6z M107.8,18.5l0.9,0.5l5-8.7l-0.9-0.5L107.8,18.5z
	 M79.3,75.4c0.6,0,1-0.5,1-1c0-0.6-0.4-1-1-1H55.8c-0.5,0-1,0.4-1,1c0,0.5,0.5,1,1,1H79.3z M135.4,49l0.4,0.9l9.2-4l-0.4-0.9
	L135.4,49z M6,105.1l0.4,0.9l9.2-4l-0.4-0.9L6,105.1z M102,135.4l-0.9,0.4l4,9.2l0.9-0.4L102,135.4z M45.9,6L45,6.4l4,9.2l0.9-0.4
	L45.9,6z M77.1,84c0.6,0,1-0.5,1-1s-0.4-1-1-1H55.8c-0.5,0-1,0.5-1,1s0.5,1,1,1H77.1z M99.1,14.4l0.9,0.4l3.7-9.3l-0.9-0.4
	L99.1,14.4z M47.3,145.5l0.9,0.4l3.7-9.3l-0.9-0.4L47.3,145.5z M136.6,99.1l-0.4,0.9l9.3,3.7l0.4-0.9L136.6,99.1z M5.5,47.3
	l-0.4,0.9l9.3,3.7l0.4-0.9L5.5,47.3z M45.3,85.1c0,0.4,0.1,0.8,0.5,1c0.3,0.2,0.7,0.2,1.1,0c0.3-0.2,0.5-0.6,0.5-1V65.9
	c0-0.4-0.1-0.8-0.5-1c-0.3-0.2-0.7-0.2-1.1,0c-0.3,0.2-0.5,0.6-0.5,1V85.1z M102.8,85.1c0,0.4,0.1,0.8,0.5,1c0.3,0.2,0.7,0.2,1.1,0
	c0.3-0.2,0.5-0.6,0.5-1V65.9c0-0.4-0.1-0.8-0.5-1c-0.3-0.2-0.7-0.2-1.1,0c-0.3,0.2-0.5,0.6-0.5,1V85.1z M65.5,62.7c0,0.5,0.5,1,1,1
	h17c0.5,0,1-0.5,1-1c0-0.6-0.5-1-1-1h-17C65.9,61.7,65.5,62.1,65.5,62.7z M72.9,88.2c0.6,0,1-0.5,1-1s-0.4-1-1-1h-17
	c-0.5,0-1,0.5-1,1s0.5,1,1,1H72.9z M138.9,92l-0.3,1l9.7,2.6l0.3-1L138.9,92z M2.4,94.6l0.3,1l9.7-2.6l-0.3-1L2.4,94.6z M2.7,55.5
	l-0.3,1l9.7,2.6l0.3-1L2.7,55.5z M138.6,58.1l0.3,1l9.7-2.6l-0.3-1L138.6,58.1z M55.5,148.3l1,0.3l2.6-9.7l-1-0.3L55.5,148.3z
	 M92.9,138.6l-1,0.3l2.6,9.7l1-0.3L92.9,138.6z M92,12.1l1,0.3l2.6-9.7l-1-0.3L92,12.1z M56.4,2.4l-1,0.3l2.6,9.7l1-0.3L56.4,2.4z
	 M68.6,79.7c0.6,0,1-0.5,1-1c0-0.6-0.4-1-1-1H55.8c-0.4,0-0.7,0.2-0.9,0.5c-0.2,0.3-0.2,0.7,0,1c0.2,0.3,0.5,0.5,0.9,0.5H68.6z
	 M47,55.6c-0.2-0.2-0.4-0.3-0.7-0.3c-0.3,0-0.5,0.1-0.7,0.3c-0.4,0.4-0.4,1,0,1.4l3.2,3.2c0.4,0.4,1,0.4,1.4,0s0.4-1,0-1.4L47,55.6z
	 M99.8,58.8c-0.4,0.4-0.4,1,0,1.4s1,0.4,1.4,0l3.2-3.2c0.4-0.4,0.4-1,0-1.4c-0.2-0.2-0.4-0.3-0.7-0.3c-0.3,0-0.5,0.1-0.7,0.3
	L99.8,58.8z M101.3,90.8c-0.4-0.4-1-0.4-1.4,0s-0.4,1,0,1.4l3.2,3.2c0.2,0.2,0.4,0.3,0.7,0.3c0.4,0,0.8-0.2,0.9-0.6
	c0.2-0.4,0.1-0.8-0.2-1.1L101.3,90.8z M45.6,94c-0.3,0.3-0.4,0.7-0.2,1.1c0.2,0.4,0.5,0.6,0.9,0.6c0.3,0,0.5-0.1,0.7-0.3l3.2-3.2
	c0.4-0.4,0.4-1,0-1.4s-1-0.4-1.4,0L45.6,94z M140.2,65.4l0.1,1l9.9-1.5l-0.1-1L140.2,65.4z M0.8,86.1l0.1,1l9.9-1.5l-0.1-1L0.8,86.1
	z M85.6,140.2l-1,0.1l1.5,9.9l1-0.1L85.6,140.2z M68.5,140.6l-1-0.1l-1.1,9.9l1,0.1L68.5,140.6z M140.6,82.5l-0.1,1l9.9,1.1l0.1-1
	L140.6,82.5z M0.6,66.4l-0.1,1l9.9,1.1l0.1-1L0.6,66.4z M84.6,0.5l-1-0.1l-1.1,9.9l1,0.1L84.6,0.5z M92.9,78.4
	c0.3-0.8,0.2-1.7-0.4-2.3c-0.6-0.6-1.5-0.8-2.3-0.5c-0.8,0.3-1.3,1.1-1.3,1.9c0,1.1,0.9,2.1,2.1,2.1C91.8,79.7,92.6,79.2,92.9,78.4z
	 M88.4,87.8l-0.2-0.6c-0.1-0.2-0.3-0.4-0.5-0.5c-0.2-0.1-0.5-0.1-0.8,0L86.3,87l1.6-3.8c0.6,0.3,1.1,0.5,1.8,0.7l0.2,0.5L88.4,87.8z
	 M95,86.7c-0.2-0.1-0.5-0.1-0.8,0c-0.2,0.1-0.4,0.3-0.5,0.5l-0.2,0.6L92,84.3l0.2-0.5c0.6-0.1,1.2-0.3,1.8-0.6l1.6,3.8L95,86.7z
	 M75,141v10h1v-10H75z M75,0v10h1V0H75z M151,75h-10v1h10V75z M10,75H0v1h10V75z M71.9,78.7c0,0.6,0.5,1,1,1H75c0.6,0,1-0.5,1-1
	c0-0.6-0.4-1-1-1h-2.1C72.3,77.7,71.9,78.1,71.9,78.7z M50.6,94.7c0,0.5,0.5,1,1,1c0.6,0,1-0.5,1-1c0-0.6-0.4-1-1-1
	C51,93.7,50.6,94.2,50.6,94.7z M47.3,89.4c0-0.5-0.5-1-1-1c-0.3,0-0.5,0.1-0.7,0.3c-0.4,0.4-0.4,1,0,1.4c0.2,0.2,0.4,0.3,0.7,0.3
	C46.8,90.4,47.3,89.9,47.3,89.4z M97.4,94.7c0,0.5,0.4,1,1,1c0.6,0,1-0.5,1-1c0-0.6-0.5-1-1-1C97.9,93.7,97.4,94.2,97.4,94.7z
	 M97.4,56.3c0,0.6,0.4,1,1,1c0.6,0,1-0.4,1-1c0-0.6-0.5-1-1-1C97.9,55.3,97.4,55.7,97.4,56.3z M103.7,90.4c0.3,0,0.5-0.1,0.7-0.3
	c0.4-0.4,0.4-1,0-1.4c-0.2-0.2-0.4-0.3-0.7-0.3c-0.4,0-0.8,0.2-0.9,0.6c-0.1,0.4-0.1,0.8,0.2,1.1C103.2,90.3,103.5,90.4,103.7,90.4z
	 M102.8,61.6c0,0.3,0.1,0.5,0.3,0.7c0.2,0.2,0.4,0.3,0.7,0.3c0.3,0,0.5-0.1,0.7-0.3c0.4-0.4,0.4-1,0-1.4c-0.2-0.2-0.4-0.3-0.7-0.3
	C103.2,60.6,102.8,61.1,102.8,61.6z M45.6,60.9c-0.2,0.2-0.3,0.4-0.3,0.7c0,0.6,0.4,1,1,1c0.3,0,0.5-0.1,0.7-0.3
	c0.2-0.2,0.3-0.4,0.3-0.7c0-0.5-0.4-1-1-1C46,60.6,45.7,60.7,45.6,60.9z M91,77.6C91,77.6,91,77.6,91,77.6c0,0.1,0,0.1-0.1,0.1
	s-0.1,0-0.1-0.1C90.9,77.6,90.9,77.6,91,77.6C90.9,77.6,90.9,77.6,91,77.6C91,77.6,91,77.6,91,77.6z M66.4,10.6l-1,0.1l-1.5-9.9
	l1-0.1L66.4,10.6z"/>
</svg>
