<?xml version="1.0" encoding="utf-8"?>
<!-- Generator: Adobe Illustrator 19.2.1, SVG Export Plug-In . SVG Version: 6.00 Build 0)  -->
<svg version="1.1" id="SvgjsSvg1067" xmlns:svgjs="http://svgjs.com/svgjs"
	 xmlns="http://www.w3.org/2000/svg" xmlns:xlink="http://www.w3.org/1999/xlink" x="0px" y="0px" viewBox="0 0 151 151"
	 style="enable-background:new 0 0 151 151;" xml:space="preserve">
<style type="text/css">
	.st0{fill:#4A72F5;}
</style>
<path id="SvgjsPath1069" class="st0" d="M80.8,50.9c-3.5-1.2-7.2-1.2-10.7,0L37.5,62C36,62.6,35,64,35,65.6c0,1.6,1,3,2.5,3.5
	l15.1,5.2v11.2c0,2,2.4,3.6,7.3,4.8c10.3,2,20.9,2,31.2,0c1.7-0.3,3.3-0.9,4.9-1.7v2.3c-1.5,0.5-2.5,1.9-2.5,3.6v6.4
	c0,0.3,0.1,0.6,0.4,0.8c0.2,0.2,0.5,0.4,0.8,0.4h5.1c0.3,0,0.6-0.1,0.8-0.4c0.2-0.2,0.3-0.5,0.3-0.8v-6.4c0-1.6-1-3-2.5-3.6V74.3
	l15.1-5.2c1.5-0.5,2.5-1.9,2.5-3.5c0-1.6-1-3-2.5-3.5L80.8,50.9z M98.4,71.8c-0.1,0-0.1,0-0.2-0.1L81.6,66c0.1-0.3,0.1-0.5,0.1-0.8
	c0-2.1-2.7-3.7-6.3-3.7s-6.3,1.6-6.3,3.7c0,2.1,2.7,3.7,6.3,3.7c1.5,0,3-0.3,4.4-1c0.1,0.1,0.2,0.1,0.3,0.2l14.5,5l-14.6,5
	c-3,1-6.2,1-9.2,0L38.3,66.9c-0.5-0.2-0.9-0.7-0.9-1.3s0.4-1.1,0.9-1.3l32.6-11.2c3-1,6.2-1,9.2,0l32.6,11.2
	c0.5,0.2,0.9,0.7,0.9,1.3s-0.4,1.1-0.9,1.3L98.4,71.8z M90.5,82.9c-9.9,1.9-20.2,1.9-30.1,0C56,81.8,55,80.7,55,80.5v-5.4l15.1,5.2
	c3.5,1.2,7.2,1.2,10.7,0L96,75.1v5.4C96,80.7,95,81.8,90.5,82.9z M60.5,88c-4.5-1-5.4-2.2-5.4-2.4v-2c1.5,0.8,3.2,1.3,4.9,1.7
	c10.3,2,20.9,2,31.2,0c1.7-0.4,3.3-0.9,4.9-1.7v2c0,0.2-1,1.4-5.4,2.4C80.6,89.9,70.4,89.9,60.5,88z M21.8,128.5l0.7,0.7l7.1-7.1
	l-0.7-0.7L21.8,128.5z M122.2,121.5l-0.7,0.7l7.1,7.1l0.7-0.7L122.2,121.5z M121.5,28.8l0.7,0.7l7.1-7.1l-0.7-0.7L121.5,28.8z
	 M22.5,21.8l-0.7,0.7l7.1,7.1l0.7-0.7L22.5,21.8z M116.6,126.5l-0.8,0.6l6.2,7.8l0.8-0.6L116.6,126.5z M16.1,122.1l0.6,0.8l7.8-6.2
	l-0.6-0.8L16.1,122.1z M126.5,34.4l0.6,0.8l7.8-6.2l-0.6-0.8L126.5,34.4z M28.9,16.1l-0.8,0.6l6.2,7.8l0.8-0.6L28.9,16.1z
	 M30.1,135.9l0.8,0.6l6-8l-0.8-0.6L30.1,135.9z M15.1,30.1l-0.6,0.8l8,6l0.6-0.8L15.1,30.1z M114.1,22.6l0.8,0.6l6-8l-0.8-0.6
	L114.1,22.6z M128.4,114.1l-0.6,0.8l8,5.9l0.6-0.8L128.4,114.1z M38.2,9.9l-0.9,0.5l5,8.7l0.9-0.5L38.2,9.9z M108.7,132l-0.9,0.5
	l5,8.7l0.9-0.5L108.7,132z M132.5,107.8l-0.5,0.9l8.7,5l0.5-0.9L132.5,107.8z M132,42.3l0.5,0.9l8.7-5l-0.5-0.9L132,42.3z
	 M10.4,37.3l-0.5,0.9l8.7,5l0.5-0.9L10.4,37.3z M9.9,112.8l0.5,0.9l8.7-5l-0.5-0.9L9.9,112.8z M37.3,140.6l0.9,0.5l5-8.7l-0.9-0.5
	L37.3,140.6z M107.8,18.5l0.9,0.5l5-8.7l-0.9-0.5L107.8,18.5z M102,135.4l-0.9,0.4l4,9.2l0.9-0.4L102,135.4z M45.9,6L45,6.4l4,9.2
	l0.9-0.4L45.9,6z M135.4,49l0.4,0.9l9.2-4l-0.4-0.9L135.4,49z M6,105.1l0.4,0.9l9.2-4l-0.4-0.9L6,105.1z M136.6,99.1l-0.4,0.9
	l9.3,3.7l0.4-0.9L136.6,99.1z M5.5,47.3l-0.4,0.9l9.3,3.7l0.4-0.9L5.5,47.3z M99.1,14.4l0.9,0.4l3.7-9.3l-0.9-0.4L99.1,14.4z
	 M47.3,145.5l0.9,0.4l3.7-9.3l-0.9-0.4L47.3,145.5z M2.4,94.6l0.3,1l9.7-2.6l-0.3-1L2.4,94.6z M138.9,92l-0.3,1l9.7,2.6l0.3-1
	L138.9,92z M138.6,58.1l0.3,1l9.7-2.6l-0.3-1L138.6,58.1z M56.4,2.4l-1,0.3l2.6,9.7l1-0.3L56.4,2.4z M55.5,148.3l1,0.3l2.6-9.7
	l-1-0.3L55.5,148.3z M92,12.1l1,0.3l2.6-9.7l-1-0.3L92,12.1z M92.9,138.6l-1,0.3l2.6,9.7l1-0.3L92.9,138.6z M2.7,55.5l-0.3,1
	l9.7,2.6l0.2-1L2.7,55.5z M0.7,86.1l0.2,1l9.9-1.5l-0.1-1L0.7,86.1z M140.2,65.4l0.1,1l9.9-1.5l-0.1-1L140.2,65.4z M85.6,140.2
	l-1,0.1l1.5,9.9l1-0.1L85.6,140.2z M84.6,0.5l-1-0.1l-1.1,9.9l1,0.1L84.6,0.5z M140.6,82.5l-0.1,1l9.9,1.1l0.1-1L140.6,82.5z
	 M0.5,66.4l-0.1,1l9.9,1.1l0.1-1L0.5,66.4z M68.5,140.6l-1-0.1l-1.1,9.9l1,0.1L68.5,140.6z M75.5,66.5c-2.5,0-3.9-1-3.9-1.3
	c0-0.4,1.4-1.4,3.9-1.4c2.6,0,3.9,1,3.9,1.4C79.4,65.5,78.1,66.5,75.5,66.5z M95.8,99.6v-5.2c0-0.5,0.2-1,0.7-1.2
	c0.4-0.2,1-0.2,1.4,0c0.4,0.2,0.7,0.7,0.7,1.2v5.2H95.8z M75,0v10h1V0H75z M75,141v10h1v-10H75z M151,75h-10v1h10V75z M10,75H0v1h10
	V75z M66.4,10.6l-1,0.1l-1.5-9.9l1-0.1L66.4,10.6z"/>
</svg>
