<svg id="SvgjsSvg1000" xmlns="http://www.w3.org/2000/svg" version="1.1" xmlns:xlink="http://www.w3.org/1999/xlink" xmlns:svgjs="http://svgjs.com/svgjs" width="182" height="50"><defs id="SvgjsDefs1001"><linearGradient id="SvgjsLinearGradient1009" gradientUnits="userSpaceOnUse" x1="0.2499997615814209" y1="50.74999928474425" x2="50.74999928474425" y2="-0.2499997615814209"><stop id="SvgjsStop1010" stop-opacity="1" stop-color="#4a72f5" offset="0"></stop><stop id="SvgjsStop1011" stop-opacity="1" stop-color="#fd73d2" offset="1"></stop></linearGradient></defs><path id="SvgjsPath1007" d="M66.49 40.73C65.05 40.73 63.919999999999995 40.209999999999994 63.099999999999994 39.169999999999995L62.919999999999995 39.169999999999995C63.03999999999999 40.19 63.099999999999994 40.779999999999994 63.099999999999994 40.949999999999996L63.099999999999994 45.919999999999995L59.74999999999999 45.919999999999995L59.74999999999999 28.229999999999993L62.46999999999999 28.229999999999993L62.93999999999999 29.839999999999993L63.09999999999999 29.839999999999993C63.87999999999999 28.609999999999992 65.01999999999998 27.999999999999993 66.50999999999999 27.999999999999993C68.00999999999999 27.999999999999993 69.16 28.55999999999999 69.97999999999999 29.689999999999994C70.79999999999998 30.809999999999995 71.21 32.37 71.21 34.36999999999999C71.21 35.66999999999999 71.00999999999999 36.80999999999999 70.63 37.77999999999999C70.25 38.73999999999999 69.69999999999999 39.469999999999985 68.99 39.97999999999999C68.28 40.47999999999999 67.44999999999999 40.72999999999999 66.49 40.72999999999999ZM80.42 18.73C78.98 18.73 77.85000000000001 18.21 77.03 17.17L76.85 17.17C76.97 18.19 77.03 18.78 77.03 18.950000000000003L77.03 23.92L73.68 23.92L73.68 6.23L76.4 6.23L76.88000000000001 7.840000000000001L77.03000000000002 7.840000000000001C77.81000000000002 6.610000000000001 78.95000000000002 6.000000000000001 80.44000000000001 6.000000000000001C81.94000000000001 6.000000000000001 83.09000000000002 6.5600000000000005 83.91000000000001 7.680000000000001C84.73 8.81 85.14000000000001 10.370000000000001 85.14000000000001 12.370000000000001C85.14000000000001 13.670000000000002 84.94000000000001 14.81 84.56000000000002 15.770000000000001C84.18000000000002 16.740000000000002 83.63000000000001 17.470000000000002 82.92000000000002 17.98C82.21000000000002 18.48 81.38000000000001 18.73 80.42000000000002 18.73ZM104.79 26.27C104.12 26.06 103.49000000000001 25.96 102.92 25.96C102.02 25.96 101.57000000000001 26.46 101.57000000000001 27.46L101.57000000000001 28.23L104.47000000000001 28.23L104.47000000000001 30.93L101.57000000000001 30.93L101.57000000000001 40.51L98.22000000000001 40.51L98.22000000000001 30.93L96.38000000000001 30.93L96.38000000000001 29.2L98.22000000000001 28.23L98.22000000000001 27.32C98.22000000000001 25.91 98.57000000000001 24.88 99.25000000000001 24.23C99.94000000000001 23.580000000000002 100.96000000000001 23.25 102.29000000000002 23.25C103.63000000000002 23.25 104.75000000000001 23.43 105.65000000000002 23.78ZM150.97 39.96C150.07 39.44 149.38 38.7 148.9 37.730000000000004C148.42000000000002 36.760000000000005 148.17000000000002 35.64 148.17000000000002 34.35C148.17000000000002 32.34 148.70000000000002 30.78 149.74 29.67C150.79000000000002 28.560000000000002 152.26000000000002 28 154.16 28C155.32999999999998 28 156.37 28.26 157.27 28.77C158.17000000000002 29.28 158.86 30.02 159.34 30.98C159.82 31.93 160.06 33.06 160.06 34.35C160.06 36.35 159.54 37.910000000000004 158.48 39.04C157.42999999999998 40.17 155.97 40.73 154.09 40.73C152.91 40.73 151.87 40.48 150.97 39.959999999999994ZM61.8 17.96C60.9 17.44 60.209999999999994 16.7 59.72 15.73C59.24 14.76 59 13.64 59 12.350000000000001C59 10.340000000000002 59.52 8.780000000000001 60.57 7.670000000000002C61.62 6.560000000000001 63.09 6.000000000000002 64.98 6.000000000000002C66.16000000000001 6.000000000000002 67.2 6.260000000000002 68.09 6.770000000000001C68.99000000000001 7.280000000000001 69.68 8.020000000000001 70.16 8.970000000000002C70.64999999999999 9.930000000000003 70.89 11.060000000000002 70.89 12.350000000000001C70.89 14.350000000000001 70.36 15.910000000000002 69.31 17.040000000000003C68.26 18.17 66.79 18.730000000000004 64.92 18.730000000000004C63.74 18.730000000000004 62.7 18.480000000000004 61.800000000000004 17.960000000000004ZM94.17 30.98C94.65 31.93 94.89 33.06 94.89 34.35C94.89 36.35 94.37 37.910000000000004 93.31 39.04C92.26 40.17 90.8 40.73 88.92 40.73C87.74 40.73 86.7 40.48 85.8 39.959999999999994C84.89999999999999 39.43999999999999 84.21 38.699999999999996 83.73 37.73C83.25 36.76 83.01 35.64 83.01 34.349999999999994C83.01 32.339999999999996 83.53 30.779999999999994 84.57000000000001 29.669999999999995C85.62 28.559999999999995 87.09 27.999999999999993 88.99000000000001 27.999999999999993C90.16000000000001 27.999999999999993 91.2 28.259999999999994 92.10000000000001 28.769999999999992C93.00000000000001 29.279999999999994 93.69000000000001 30.019999999999992 94.17 30.979999999999993ZM93.63 16.03C95.00999999999999 16.03 96.36999999999999 15.73 97.71 15.13L97.71 17.79C96.58999999999999 18.419999999999998 95.11999999999999 18.73 93.28 18.73C91.44 18.73 89.96000000000001 18.16 88.84 17.02C87.73 15.879999999999999 87.17 14.32 87.17 12.34C87.17 10.36 87.68 8.81 88.72 7.6899999999999995C89.75 6.56 91.15 6 92.92 6C94.69 6 96.04 6.49 96.98 7.48C97.92 8.47 98.39 9.84 98.39 11.58L98.39 13.21L90.57 13.21C90.61 14.090000000000002 90.88999999999999 14.790000000000001 91.41999999999999 15.280000000000001C91.94999999999999 15.780000000000001 92.67999999999999 16.03 93.62999999999998 16.03ZM112.11 38.03C113.49 38.03 114.85 37.730000000000004 116.19 37.13L116.19 39.790000000000006C115.07 40.42000000000001 113.59 40.730000000000004 111.75999999999999 40.730000000000004C109.91999999999999 40.730000000000004 108.44 40.160000000000004 107.32 39.02C106.21 37.88 105.64999999999999 36.32 105.64999999999999 34.34C105.64999999999999 32.36000000000001 106.16 30.810000000000002 107.19999999999999 29.690000000000005C108.22999999999999 28.560000000000006 109.63 28.000000000000004 111.39999999999999 28.000000000000004C113.16999999999999 28.000000000000004 114.52 28.500000000000004 115.46 29.480000000000004C116.39999999999999 30.470000000000002 116.86999999999999 31.840000000000003 116.86999999999999 33.580000000000005L116.86999999999999 35.21000000000001L109.04999999999998 35.21000000000001C109.08999999999999 36.09000000000001 109.36999999999998 36.790000000000006 109.89999999999998 37.28000000000001C110.41999999999997 37.78000000000001 111.15999999999998 38.03000000000001 112.10999999999997 38.03000000000001ZM109.2 11.35C109.2 10.469999999999999 109.04 9.809999999999999 108.72 9.37C108.41 8.92 107.91 8.7 107.22 8.7C106.28 8.7 105.6 9.02 105.19 9.639999999999999C104.77 10.27 104.56 11.299999999999999 104.56 12.749999999999998L104.56 18.509999999999998L101.21000000000001 18.509999999999998L101.21000000000001 6.229999999999999L103.77000000000001 6.229999999999999L104.22000000000001 7.809999999999999L104.41000000000001 7.809999999999999C105.16000000000001 6.599999999999999 106.42000000000002 5.999999999999998 108.19000000000001 5.999999999999998C109.61000000000001 5.999999999999998 110.70000000000002 6.389999999999998 111.44000000000001 7.159999999999998C112.18 7.929999999999998 112.55000000000001 9.049999999999999 112.55000000000001 10.499999999999998L112.55000000000001 18.509999999999998L109.20000000000002 18.509999999999998ZM170.84 33.36C170.84 32.47 170.68 31.81 170.37 31.37C170.05 30.92 169.55 30.7 168.86 30.7C167.93 30.7 167.25 31.02 166.83 31.64C166.41000000000003 32.27 166.20000000000002 33.3 166.20000000000002 34.75L166.20000000000002 40.51L162.85000000000002 40.51L162.85000000000002 28.229999999999997L165.41000000000003 28.229999999999997L165.86 29.819999999999997L166.05 29.819999999999997C166.81 28.609999999999996 168.07000000000002 27.999999999999996 169.83 27.999999999999996C171.26000000000002 27.999999999999996 172.34 28.389999999999997 173.08 29.159999999999997C173.82000000000002 29.929999999999996 174.19000000000003 31.049999999999997 174.19000000000003 32.51L174.19000000000003 40.51L170.84000000000003 40.51ZM138.17 34.13C139.04999999999998 34.75 139.5 35.64 139.5 36.81C139.5 37.97 139.05 38.92 138.17 39.64C137.28 40.37 136 40.730000000000004 134.32999999999998 40.730000000000004C132.66 40.730000000000004 131.26999999999998 40.470000000000006 130.14999999999998 39.95L130.14999999999998 37.06C130.76999999999998 37.34 131.48 37.57 132.26 37.75C133.04 37.94 133.73 38.03 134.32999999999998 38.03C135.54 38.03 136.14 37.7 136.14 37.04C136.14 36.79 136.07 36.589999999999996 135.89999999999998 36.43C135.59999999999997 36.15 134.89 35.78 133.76 35.339999999999996C132.64 34.88999999999999 131.85 34.51 131.41 34.19C130.54999999999998 33.589999999999996 130.13 32.73 130.13 31.619999999999997C130.13 30.509999999999998 130.54999999999998 29.63 131.4 28.979999999999997C132.25 28.33 133.44 27.999999999999996 134.96 27.999999999999996C136.48000000000002 27.999999999999996 137.95000000000002 28.349999999999998 139.36 29.049999999999997L138.34 31.549999999999997C137.72 31.299999999999997 137.14000000000001 31.099999999999998 136.6 30.939999999999998C136.06 30.779999999999998 135.51 30.7 134.95 30.7C133.97 30.7 133.48 30.95 133.48 31.46C133.48 31.740000000000002 133.64 31.98 133.95 32.19C134.26999999999998 32.39 134.94 32.69 135.95999999999998 33.08C136.98 33.46 137.71999999999997 33.809999999999995 138.17 34.129999999999995ZM126.99 34.13C127.86999999999999 34.75 128.31 35.64 128.31 36.81C128.31 37.97 127.87 38.92 126.98 39.64C126.10000000000001 40.37 124.82000000000001 40.730000000000004 123.15 40.730000000000004C121.48 40.730000000000004 120.08000000000001 40.470000000000006 118.96000000000001 39.95L118.96000000000001 37.06C119.59 37.34 120.29 37.57 121.08000000000001 37.75C121.86000000000001 37.94 122.55000000000001 38.03 123.15 38.03C124.36 38.03 124.96000000000001 37.7 124.96000000000001 37.04C124.96000000000001 36.79 124.88000000000001 36.589999999999996 124.72000000000001 36.43C124.42000000000002 36.15 123.71000000000001 35.78 122.58000000000001 35.339999999999996C121.45000000000002 34.88999999999999 120.67000000000002 34.51 120.22000000000001 34.19C119.37000000000002 33.589999999999996 118.94000000000001 32.73 118.94000000000001 31.619999999999997C118.94000000000001 30.509999999999998 119.37000000000002 29.63 120.22000000000001 28.979999999999997C121.07000000000001 28.33 122.26000000000002 27.999999999999996 123.77000000000001 27.999999999999996C125.29 27.999999999999996 126.76 28.349999999999998 128.18 29.049999999999997L127.16000000000001 31.549999999999997C126.54 31.299999999999997 125.96000000000001 31.099999999999998 125.42000000000002 30.939999999999998C124.88000000000001 30.779999999999998 124.33000000000001 30.7 123.77000000000001 30.7C122.78000000000002 30.7 122.29 30.95 122.29 31.46C122.29 31.740000000000002 122.45 31.98 122.77000000000001 32.19C123.09 32.39 123.76 32.69 124.78000000000002 33.08C125.80000000000001 33.46 126.54000000000002 33.809999999999995 126.99000000000001 34.129999999999995ZM77.02 30.09L77.17999999999999 30.09C77.55999999999999 29.46 78.08 28.96 78.72999999999999 28.58C79.36999999999999 28.189999999999998 79.99999999999999 28 80.60999999999999 28C81.21999999999998 28 81.66999999999999 28.03 81.96999999999998 28.1L81.71999999999998 30.93C81.44999999999999 30.86 81.11999999999999 30.82 80.72999999999999 30.82C79.66 30.82 78.82999999999998 31.11 78.22999999999999 31.67C77.63 32.24 77.33999999999999 33.03 77.33999999999999 34.06L77.33999999999999 40.510000000000005L73.99 40.510000000000005L73.99 28.230000000000004L76.52 28.230000000000004ZM142.06 28.23L145.41 28.23L145.41 40.51L142.06 40.51ZM64.94 8.7C64.03999999999999 8.7 63.4 9 63 9.61C62.6 10.209999999999999 62.4 11.12 62.4 12.34C62.4 13.56 62.6 14.48 63 15.1C63.4 15.719999999999999 64.05 16.03 64.95 16.03C65.85000000000001 16.03 66.5 15.72 66.89 15.100000000000001C67.28 14.480000000000002 67.48 13.570000000000002 67.48 12.350000000000001C67.48 11.13 67.28 10.220000000000002 66.89 9.610000000000001C66.49 9.010000000000002 65.84 8.700000000000001 64.94 8.700000000000001ZM86.41 34.34C86.41 35.56 86.61 36.480000000000004 87.00999999999999 37.1C87.41 37.72 88.05999999999999 38.03 88.96 38.03C89.86 38.03 90.5 37.72 90.89999999999999 37.1C91.28999999999999 36.480000000000004 91.49 35.57 91.49 34.35C91.49 33.13 91.28999999999999 32.22 90.89 31.61C90.5 31.009999999999998 89.85 30.7 88.95 30.7C88.05 30.7 87.4 31 87.01 31.61C86.61 32.21 86.41000000000001 33.12 86.41000000000001 34.339999999999996ZM154.12 30.7C153.22 30.7 152.57 31 152.17000000000002 31.61C151.78000000000003 32.21 151.58 33.12 151.58 34.339999999999996C151.58 35.559999999999995 151.78 36.48 152.18 37.099999999999994C152.58 37.71999999999999 153.23000000000002 38.029999999999994 154.13 38.029999999999994C155.03 38.029999999999994 155.67 37.71999999999999 156.07 37.099999999999994C156.45999999999998 36.48 156.66 35.56999999999999 156.66 34.349999999999994C156.66 33.129999999999995 156.46 32.21999999999999 156.06 31.609999999999992C155.67000000000002 31.00999999999999 155.02 30.699999999999992 154.12 30.699999999999992ZM79.41 8.7C78.6 8.7 78 8.959999999999999 77.61999999999999 9.459999999999999C77.24 9.969999999999999 77.03999999999999 10.809999999999999 77.02999999999999 11.979999999999999L77.02999999999999 12.339999999999998C77.02999999999999 13.659999999999998 77.21999999999998 14.599999999999998 77.60999999999999 15.169999999999998C78.00999999999999 15.739999999999998 78.62999999999998 16.029999999999998 79.47999999999999 16.029999999999998C80.97999999999999 16.029999999999998 81.72999999999999 14.789999999999997 81.72999999999999 12.319999999999997C81.72999999999999 11.119999999999997 81.53999999999999 10.209999999999997 81.16999999999999 9.609999999999996C80.79999999999998 8.999999999999996 80.21 8.699999999999996 79.40999999999998 8.699999999999996ZM65.48 30.7C64.67 30.7 64.07000000000001 30.96 63.690000000000005 31.46C63.31 31.970000000000002 63.11000000000001 32.81 63.1 33.980000000000004L63.1 34.34C63.1 35.660000000000004 63.29 36.6 63.68 37.17C64.08 37.74 64.7 38.03 65.55 38.03C67.05 38.03 67.8 36.79 67.8 34.32C67.8 33.12 67.61 32.21 67.24 31.61C66.86999999999999 31 66.28 30.7 65.47999999999999 30.7ZM95.34 10.98C95.33 10.15 95.11 9.51 94.7 9.06C94.28 8.610000000000001 93.72 8.38 93.01 8.38C92.30000000000001 8.38 91.74000000000001 8.610000000000001 91.34 9.06C90.94 9.51 90.71000000000001 10.15 90.65 10.98ZM113.82 32.98C113.80999999999999 32.15 113.58999999999999 31.509999999999998 113.17999999999999 31.059999999999995C112.75999999999999 30.609999999999996 112.19999999999999 30.379999999999995 111.49 30.379999999999995C110.78 30.379999999999995 110.22 30.609999999999996 109.82 31.059999999999995C109.41999999999999 31.509999999999994 109.19 32.15 109.13 32.98ZM141.91 25.06C141.91 23.97 142.52 23.419999999999998 143.74 23.419999999999998C144.95000000000002 23.419999999999998 145.56 23.959999999999997 145.56 25.049999999999997C145.56 25.569999999999997 145.41 25.979999999999997 145.1 26.269999999999996C144.79999999999998 26.559999999999995 144.35 26.699999999999996 143.73999999999998 26.699999999999996C142.51999999999998 26.699999999999996 141.90999999999997 26.159999999999997 141.90999999999997 25.059999999999995ZM180.51 40.31C180.85 39.980000000000004 181.01 39.510000000000005 181.01 38.92C181.01 38.34 180.85 37.88 180.51 37.56C180.17999999999998 37.230000000000004 179.70999999999998 37.07 179.1 37.07C177.81 37.07 177.17 37.7 177.17 38.94C177.17 39.53 177.33999999999997 39.989999999999995 177.67 40.32C178.01 40.65 178.48 40.81 179.08999999999997 40.81C179.7 40.81 180.17 40.64 180.50999999999996 40.31Z " fill="#ffffff" fill-opacity="1" transform="matrix(1,0,0,1,0,0)"></path><path id="SvgjsPath1008" d="M43.49 8.18C43.940000000000005 8.67 44.370000000000005 9.19 44.77 9.709999999999999L36.870000000000005 15.829999999999998C36.620000000000005 15.509999999999998 36.370000000000005 15.199999999999998 36.1 14.909999999999998ZM9.71 44.77C9.180000000000001 44.370000000000005 8.670000000000002 43.940000000000005 8.180000000000001 43.49L14.910000000000002 36.1C15.200000000000001 36.370000000000005 15.510000000000002 36.620000000000005 15.830000000000002 36.870000000000005ZM8.18 6.51C8.67 6.06 9.18 5.63 9.709999999999999 5.2299999999999995L15.829999999999998 13.129999999999999C15.509999999999998 13.379999999999999 15.199999999999998 13.629999999999999 14.909999999999998 13.899999999999999ZM44.77 40.29C44.370000000000005 40.82 43.940000000000005 41.33 43.49 41.82L36.1 35.09C36.370000000000005 34.800000000000004 36.620000000000005 34.49 36.870000000000005 34.17ZM5.23 9.71C5.630000000000001 9.190000000000001 6.0600000000000005 8.670000000000002 6.510000000000001 8.180000000000001L13.9 14.910000000000002C13.63 15.200000000000001 13.38 15.510000000000002 13.13 15.830000000000002ZM41.82 43.49C41.33 43.940000000000005 40.82 44.370000000000005 40.29 44.77L34.17 36.870000000000005C34.49 36.620000000000005 34.800000000000004 36.370000000000005 35.09 36.1ZM6.51 41.82C6.06 41.33 5.63 40.82 5.2299999999999995 40.29L13.129999999999999 34.17C13.379999999999999 34.49 13.629999999999999 34.800000000000004 13.899999999999999 35.09ZM40.29 5.23C40.82 5.630000000000001 41.33 6.0600000000000005 41.82 6.510000000000001L35.09 13.9C34.800000000000004 13.63 34.49 13.38 34.17 13.13ZM13.38 47.13C12.790000000000001 46.82 12.21 46.49 11.65 46.13L16.990000000000002 37.68000000000001C17.330000000000002 37.89000000000001 17.67 38.09 18.03 38.28000000000001ZM11.65 3.87C12.21 3.5100000000000002 12.790000000000001 3.18 13.38 2.87L18.03 11.719999999999999C17.67 11.909999999999998 17.330000000000002 12.11 16.990000000000002 12.319999999999999ZM47.13 36.63C46.82 37.220000000000006 46.49 37.79 46.13 38.35L37.68000000000001 33.010000000000005C37.89000000000001 32.68000000000001 38.09 32.330000000000005 38.28000000000001 31.980000000000004ZM38.35 46.13C37.79 46.49 37.22 46.82 36.63 47.13L31.980000000000004 38.28C32.330000000000005 38.09 32.68000000000001 37.89 33.010000000000005 37.68ZM3.87 38.35C3.5100000000000002 37.79 3.18 37.22 2.87 36.63L11.719999999999999 31.980000000000004C11.909999999999998 32.330000000000005 12.11 32.68000000000001 12.319999999999999 33.010000000000005ZM46.13 11.65C46.49 12.21 46.82 12.780000000000001 47.13 13.370000000000001L38.28 18.020000000000003C38.09 17.67 37.89 17.320000000000004 37.68 16.990000000000002ZM36.63 2.87C37.220000000000006 3.18 37.79 3.5100000000000002 38.35 3.87L33.010000000000005 12.32C32.68000000000001 12.11 32.330000000000005 11.91 31.980000000000004 11.72ZM2.87 13.37C3.18 12.78 3.5100000000000002 12.209999999999999 3.87 11.649999999999999L12.32 16.99C12.11 17.319999999999997 11.91 17.669999999999998 11.72 18.02ZM15.52 1.87C15.73 1.78 15.95 1.6900000000000002 16.169999999999998 1.61L16.68 1.4200000000000002C16.919999999999998 1.34 17.16 1.2600000000000002 17.4 1.1800000000000002L20.439999999999998 10.709999999999999C20.049999999999997 10.829999999999998 19.679999999999996 10.969999999999999 19.31 11.12ZM1.18 17.39C1.26 17.16 1.3399999999999999 16.92 1.42 16.69L1.6099999999999999 16.17C1.69 15.950000000000001 1.7799999999999998 15.730000000000002 1.8699999999999999 15.520000000000001L11.12 19.310000000000002C10.969999999999999 19.680000000000003 10.83 20.05 10.709999999999999 20.44ZM17.4 48.82C17.16 48.74 16.919999999999998 48.660000000000004 16.68 48.58L16.169999999999998 48.39C15.949999999999998 48.31 15.729999999999999 48.22 15.519999999999998 48.13L19.31 38.88C19.68 39.03 20.049999999999997 39.17 20.439999999999998 39.29ZM48.13 15.52C48.220000000000006 15.73 48.31 15.95 48.39 16.169999999999998L48.58 16.68C48.66 16.919999999999998 48.739999999999995 17.15 48.82 17.39L39.29 20.44C39.17 20.05 39.03 19.68 38.88 19.310000000000002ZM32.61 1.18C32.839999999999996 1.26 33.08 1.3399999999999999 33.31 1.42L33.830000000000005 1.6099999999999999C34.050000000000004 1.69 34.27 1.7799999999999998 34.480000000000004 1.8699999999999999L30.690000000000005 11.12C30.320000000000004 10.969999999999999 29.950000000000006 10.83 29.560000000000006 10.709999999999999ZM1.87 34.48C1.78 34.269999999999996 1.6900000000000002 34.05 1.61 33.83L1.4200000000000002 33.32C1.34 33.08 1.2600000000000002 32.84 1.1800000000000002 32.61L10.709999999999999 29.56C10.829999999999998 29.95 10.969999999999999 30.32 11.12 30.689999999999998ZM34.48 48.13C34.269999999999996 48.220000000000006 34.05 48.31 33.83 48.39L33.309999999999995 48.58C33.08 48.66 32.839999999999996 48.739999999999995 32.60999999999999 48.82L29.55999999999999 39.29C29.949999999999992 39.17 30.319999999999993 39.03 30.68999999999999 38.88ZM48.82 32.61C48.74 32.839999999999996 48.660000000000004 33.08 48.58 33.32L48.39 33.83C48.31 34.05 48.22 34.269999999999996 48.13 34.48L38.88 30.689999999999998C39.03 30.319999999999997 39.17 29.95 39.29 29.56ZM49.43 19.68C49.57 20.32 49.68 20.98 49.77 21.65L39.86 22.99C39.81 22.59 39.74 22.189999999999998 39.66 21.81ZM28.35 49.77L27.01 39.86C27.41 39.81 27.8 39.74 28.19 39.66L30.32 49.42999999999999C29.67 49.56999999999999 29.02 49.67999999999999 28.35 49.769999999999996ZM21.81 39.66C22.2 39.739999999999995 22.59 39.809999999999995 22.99 39.86L21.65 49.769999999999996C20.979999999999997 49.67999999999999 20.33 49.56999999999999 19.68 49.42999999999999ZM0.23 21.65C0.32 20.979999999999997 0.43000000000000005 20.32 0.5700000000000001 19.68L10.34 21.81C10.26 22.189999999999998 10.19 22.59 10.14 22.99ZM28.35 0.23C29.020000000000003 0.32 29.67 0.43000000000000005 30.32 0.5700000000000001L28.19 10.34C27.8 10.26 27.41 10.19 27.01 10.14ZM21.65 0.23L22.99 10.14C22.59 10.190000000000001 22.2 10.26 21.81 10.34L19.68 0.5700000000000003C20.33 0.43000000000000027 20.98 0.3200000000000003 21.65 0.23000000000000026ZM0.57 30.32C0.42999999999999994 29.68 0.31999999999999995 29.02 0.22999999999999993 28.35L10.14 27.01C10.190000000000001 27.41 10.26 27.810000000000002 10.34 28.19ZM24.4 10.01L24 0.019999999999999574C24.33 0.009999999999999573 24.66 -4.2674197509029455e-16 25 -4.2674197509029455e-16C25.33 -4.2674197509029455e-16 25.67 0.009999999999999573 26 0.019999999999999574L25.6 10.01C25.400000000000002 10.01 25.200000000000003 10 25 10C24.8 10 24.6 10.01 24.4 10.01ZM10.01 25.6L0.019999999999999574 26C0.009999999999999573 25.67 -4.2674197509029455e-16 25.34 -4.2674197509029455e-16 25C-4.2674197509029455e-16 24.67 0.009999999999999573 24.33 0.019999999999999574 24L10.01 24.4C10.01 24.599999999999998 10 24.799999999999997 10 25C10 25.2 10.01 25.4 10.01 25.6ZM40 25C40 24.8 39.99 24.6 39.99 24.4L49.980000000000004 24C49.99 24.33 50.00000000000001 24.67 50.00000000000001 25C50.00000000000001 25.34 49.99000000000001 25.67 49.980000000000004 26L39.99 25.6C39.99 25.400000000000002 40 25.200000000000003 40 25ZM24.4 39.99C24.599999999999998 39.99 24.799999999999997 40 25 40C25.2 40 25.4 39.99 25.6 39.99L26 49.980000000000004C25.67 49.99 25.33 50.00000000000001 25 50.00000000000001C24.66 50.00000000000001 24.33 49.99000000000001 24 49.980000000000004ZM39.86 27.01C39.81 27.41 39.74 27.810000000000002 39.66 28.19L49.42999999999999 30.32C49.56999999999999 29.68 49.67999999999999 29.02 49.769999999999996 28.35Z " fill="url(#SvgjsLinearGradient1009)" transform="matrix(1,0,0,1,0,0)"></path></svg>