<svg id="SvgjsSvg1060" xmlns="http://www.w3.org/2000/svg" version="1.1" xmlns:xlink="http://www.w3.org/1999/xlink" xmlns:svgjs="http://svgjs.com/svgjs" width="182" height="50"><defs id="SvgjsDefs1061"></defs><path id="SvgjsPath1062" d="M456.49 4905.73C455.05 4905.73 453.92 4905.209999999999 453.1 4904.169999999999L452.92 4904.169999999999C453.04 4905.19 453.1 4905.789999999999 453.1 4905.949999999999L453.1 4910.919999999999L449.75 4910.919999999999L449.75 4893.23L452.47 4893.23L452.94000000000005 4894.839999999999L453.1000000000001 4894.839999999999C453.88000000000005 4893.61 455.0200000000001 4892.999999999999 456.5100000000001 4892.999999999999C458.0100000000001 4892.999999999999 459.1600000000001 4893.5599999999995 459.98000000000013 4894.689999999999C460.8000000000001 4895.809999999999 461.21000000000015 4897.369999999999 461.21000000000015 4899.369999999999C461.21000000000015 4900.679999999999 461.01000000000016 4901.809999999999 460.63000000000017 4902.769999999999C460.25000000000017 4903.739999999999 459.70000000000016 4904.469999999998 458.9900000000002 4904.979999999999C458.2800000000002 4905.479999999999 457.45000000000016 4905.729999999999 456.4900000000002 4905.729999999999ZM470.42 4883.73C468.98 4883.73 467.85 4883.209999999999 467.03000000000003 4882.169999999999L466.85 4882.169999999999C466.97 4883.19 467.03000000000003 4883.789999999999 467.03000000000003 4883.949999999999L467.03000000000003 4888.919999999999L463.68 4888.919999999999L463.68 4871.23L466.40000000000003 4871.23L466.88000000000005 4872.839999999999L467.03000000000003 4872.839999999999C467.81 4871.61 468.95000000000005 4870.999999999999 470.44000000000005 4870.999999999999C471.94000000000005 4870.999999999999 473.09000000000003 4871.5599999999995 473.9100000000001 4872.689999999999C474.7300000000001 4873.809999999999 475.1400000000001 4875.369999999999 475.1400000000001 4877.369999999999C475.1400000000001 4878.679999999999 474.9400000000001 4879.809999999999 474.5600000000001 4880.769999999999C474.1800000000001 4881.739999999999 473.6300000000001 4882.469999999998 472.92000000000013 4882.979999999999C472.21000000000015 4883.479999999999 471.3800000000001 4883.729999999999 470.42000000000013 4883.729999999999ZM494.79 4891.28C494.12 4891.0599999999995 493.49 4890.96 492.92 4890.96C492.02000000000004 4890.96 491.57 4891.46 491.57 4892.46L491.57 4893.2300000000005L494.46999999999997 4893.2300000000005L494.46999999999997 4895.93L491.57 4895.93L491.57 4905.51L488.21999999999997 4905.51L488.21999999999997 4895.93L486.38 4895.93L486.38 4894.200000000001L488.21999999999997 4893.2300000000005L488.21999999999997 4892.320000000001C488.21999999999997 4890.910000000001 488.57 4889.880000000001 489.24999999999994 4889.2300000000005C489.93999999999994 4888.580000000001 490.9599999999999 4888.250000000001 492.28999999999996 4888.250000000001C493.62999999999994 4888.250000000001 494.74999999999994 4888.430000000001 495.65 4888.780000000001ZM451.8 4882.96C450.90000000000003 4882.44 450.21000000000004 4881.7 449.72 4880.7300000000005C449.24 4879.76 449 4878.64 449 4877.35C449 4875.34 449.52 4873.780000000001 450.57 4872.67C451.62 4871.56 453.09 4871 454.98 4871C456.16 4871 457.20000000000005 4871.26 458.09000000000003 4871.77C458.99 4872.280000000001 459.68 4873.02 460.16 4873.9800000000005C460.65000000000003 4874.93 460.89000000000004 4876.06 460.89000000000004 4877.35C460.89000000000004 4879.35 460.36000000000007 4880.910000000001 459.31000000000006 4882.04C458.26000000000005 4883.17 456.7900000000001 4883.73 454.9200000000001 4883.73C453.74000000000007 4883.73 452.70000000000005 4883.48 451.80000000000007 4882.959999999999ZM484.17 4895.98C484.65000000000003 4896.929999999999 484.89000000000004 4898.0599999999995 484.89000000000004 4899.349999999999C484.89000000000004 4901.349999999999 484.37000000000006 4902.91 483.31000000000006 4904.039999999999C482.26000000000005 4905.169999999999 480.80000000000007 4905.729999999999 478.9200000000001 4905.729999999999C477.74000000000007 4905.729999999999 476.70000000000005 4905.479999999999 475.80000000000007 4904.959999999998C474.9000000000001 4904.439999999998 474.2100000000001 4903.699999999998 473.7300000000001 4902.729999999999C473.25000000000006 4901.759999999998 473.01000000000005 4900.6399999999985 473.01000000000005 4899.3499999999985C473.01000000000005 4897.339999999998 473.53000000000003 4895.779999999999 474.57000000000005 4894.669999999998C475.62000000000006 4893.559999999999 477.09000000000003 4892.999999999998 478.99000000000007 4892.999999999998C480.1600000000001 4892.999999999998 481.20000000000005 4893.259999999998 482.1000000000001 4893.769999999999C483.00000000000006 4894.279999999999 483.69000000000005 4895.019999999999 484.1700000000001 4895.979999999999ZM540.98 4904.96C540.08 4904.44 539.38 4903.7 538.9 4902.7300000000005C538.42 4901.76 538.18 4900.64 538.18 4899.35C538.18 4897.34 538.6999999999999 4895.780000000001 539.75 4894.67C540.79 4893.56 542.26 4893 544.16 4893C545.3299999999999 4893 546.37 4893.26 547.27 4893.77C548.17 4894.280000000001 548.86 4895.02 549.34 4895.9800000000005C549.82 4896.93 550.0600000000001 4898.06 550.0600000000001 4899.35C550.0600000000001 4901.35 549.5400000000001 4902.910000000001 548.49 4904.04C547.4300000000001 4905.17 545.97 4905.73 544.09 4905.73C542.9100000000001 4905.73 541.88 4905.48 540.98 4904.959999999999ZM502.11 4903.03C503.49 4903.03 504.85 4902.73 506.19 4902.13L506.19 4904.79C505.07 4905.42 503.59 4905.73 501.75 4905.73C499.92 4905.73 498.44 4905.16 497.32 4904.0199999999995C496.2 4902.879999999999 495.65 4901.3099999999995 495.65 4899.339999999999C495.65 4897.36 496.15999999999997 4895.8099999999995 497.2 4894.69C498.22999999999996 4893.5599999999995 499.63 4893 501.4 4893C503.16999999999996 4893 504.52 4893.5 505.46 4894.48C506.4 4895.469999999999 506.85999999999996 4896.839999999999 506.85999999999996 4898.58L506.85999999999996 4900.21L499.04999999999995 4900.21C499.09 4901.09 499.36999999999995 4901.79 499.9 4902.28C500.41999999999996 4902.78 501.15999999999997 4903.03 502.10999999999996 4903.03ZM483.63 4881.03C485.01 4881.03 486.37 4880.73 487.71 4880.13L487.71 4882.79C486.59 4883.42 485.10999999999996 4883.73 483.28 4883.73C481.44 4883.73 479.96 4883.16 478.84 4882.0199999999995C477.72999999999996 4880.879999999999 477.16999999999996 4879.3099999999995 477.16999999999996 4877.339999999999C477.16999999999996 4875.36 477.67999999999995 4873.8099999999995 478.71999999999997 4872.69C479.74999999999994 4871.5599999999995 481.15 4871 482.91999999999996 4871C484.68999999999994 4871 486.03999999999996 4871.5 486.97999999999996 4872.48C487.91999999999996 4873.469999999999 488.37999999999994 4874.839999999999 488.37999999999994 4876.58L488.37999999999994 4878.21L480.56999999999994 4878.21C480.60999999999996 4879.09 480.88999999999993 4879.79 481.41999999999996 4880.28C481.93999999999994 4880.78 482.67999999999995 4881.03 483.62999999999994 4881.03ZM499.2 4876.35C499.2 4875.47 499.03999999999996 4874.81 498.71999999999997 4874.370000000001C498.40999999999997 4873.920000000001 497.90999999999997 4873.700000000001 497.21999999999997 4873.700000000001C496.28 4873.700000000001 495.59999999999997 4874.02 495.19 4874.64C494.77 4875.27 494.56 4876.3 494.56 4877.75L494.56 4883.51L491.21 4883.51L491.21 4871.2300000000005L493.77 4871.2300000000005L494.21999999999997 4872.81L494.40999999999997 4872.81C495.15999999999997 4871.6 496.41999999999996 4871 498.17999999999995 4871C499.60999999999996 4871 500.69999999999993 4871.39 501.43999999999994 4872.16C502.17999999999995 4872.93 502.54999999999995 4874.05 502.54999999999995 4875.51L502.54999999999995 4883.51L499.19999999999993 4883.51ZM560.84 4898.36C560.84 4897.469999999999 560.6800000000001 4896.8099999999995 560.37 4896.37C560.05 4895.92 559.55 4895.7 558.86 4895.7C557.9300000000001 4895.7 557.25 4896.0199999999995 556.83 4896.639999999999C556.4100000000001 4897.2699999999995 556.2 4898.299999999999 556.2 4899.749999999999L556.2 4905.509999999999L552.85 4905.509999999999L552.85 4893.23L555.41 4893.23L555.86 4894.8099999999995L556.0500000000001 4894.8099999999995C556.8100000000001 4893.599999999999 558.07 4892.999999999999 559.83 4892.999999999999C561.26 4892.999999999999 562.34 4893.389999999999 563.08 4894.159999999999C563.82 4894.929999999999 564.19 4896.049999999999 564.19 4897.509999999999L564.19 4905.509999999999L560.84 4905.509999999999ZM528.17 4899.13C529.05 4899.75 529.5 4900.64 529.5 4901.81C529.5 4902.97 529.05 4903.92 528.17 4904.64C527.28 4905.37 526 4905.7300000000005 524.3299999999999 4905.7300000000005C522.66 4905.7300000000005 521.27 4905.47 520.15 4904.950000000001L520.15 4902.06C520.77 4902.34 521.48 4902.570000000001 522.26 4902.75C523.04 4902.94 523.73 4903.03 524.33 4903.03C525.5400000000001 4903.03 526.1500000000001 4902.7 526.1500000000001 4902.04C526.1500000000001 4901.79 526.0600000000001 4901.59 525.9000000000001 4901.43C525.6000000000001 4901.150000000001 524.8900000000001 4900.780000000001 523.7600000000001 4900.34C522.6400000000001 4899.89 521.8500000000001 4899.51 521.4100000000001 4899.1900000000005C520.5500000000001 4898.59 520.1300000000001 4897.7300000000005 520.1300000000001 4896.620000000001C520.1300000000001 4895.510000000001 520.5500000000001 4894.630000000001 521.4000000000001 4893.9800000000005C522.2500000000001 4893.330000000001 523.44 4893.000000000001 524.96 4893.000000000001C526.48 4893.000000000001 527.94 4893.350000000001 529.36 4894.050000000001L528.34 4896.550000000001C527.72 4896.300000000001 527.14 4896.100000000001 526.6 4895.940000000001C526.0600000000001 4895.780000000002 525.51 4895.700000000002 524.95 4895.700000000002C523.97 4895.700000000002 523.48 4895.950000000002 523.48 4896.460000000002C523.48 4896.740000000002 523.64 4896.980000000002 523.95 4897.190000000001C524.2700000000001 4897.4000000000015 524.94 4897.690000000001 525.96 4898.080000000002C526.98 4898.460000000002 527.72 4898.810000000001 528.1700000000001 4899.130000000002ZM516.99 4899.13C517.87 4899.75 518.3100000000001 4900.64 518.3100000000001 4901.81C518.3100000000001 4902.97 517.87 4903.92 516.98 4904.64C516.1 4905.37 514.82 4905.7300000000005 513.15 4905.7300000000005C511.47999999999996 4905.7300000000005 510.08 4905.47 508.96 4904.950000000001L508.96 4902.06C509.59 4902.34 510.28999999999996 4902.570000000001 511.08 4902.75C511.85999999999996 4902.94 512.55 4903.03 513.15 4903.03C514.36 4903.03 514.9599999999999 4902.7 514.9599999999999 4902.04C514.9599999999999 4901.79 514.8799999999999 4901.59 514.7199999999999 4901.43C514.42 4901.150000000001 513.6999999999999 4900.780000000001 512.5799999999999 4900.34C511.44999999999993 4899.89 510.6699999999999 4899.51 510.2199999999999 4899.1900000000005C509.3699999999999 4898.59 508.93999999999994 4897.7300000000005 508.93999999999994 4896.620000000001C508.93999999999994 4895.510000000001 509.36999999999995 4894.630000000001 510.2199999999999 4893.9800000000005C511.06999999999994 4893.330000000001 512.2599999999999 4893.000000000001 513.7699999999999 4893.000000000001C515.2899999999998 4893.000000000001 516.7599999999999 4893.350000000001 518.1799999999998 4894.050000000001L517.1599999999999 4896.550000000001C516.5399999999998 4896.300000000001 515.9499999999998 4896.100000000001 515.4199999999998 4895.940000000001C514.8799999999999 4895.780000000002 514.3299999999998 4895.700000000002 513.7699999999999 4895.700000000002C512.7799999999999 4895.700000000002 512.2899999999998 4895.950000000002 512.2899999999998 4896.460000000002C512.2899999999998 4896.740000000002 512.4499999999998 4896.980000000002 512.7699999999999 4897.190000000001C513.0899999999999 4897.4000000000015 513.7599999999999 4897.690000000001 514.7799999999999 4898.080000000002C515.7999999999998 4898.460000000002 516.5399999999998 4898.810000000001 516.9899999999999 4899.130000000002ZM467.02 4895.09L467.18 4895.09C467.56 4894.46 468.08 4893.96 468.73 4893.58C469.37 4893.19 470 4893 470.61 4893C471.22 4893 471.67 4893.03 471.97 4893.1L471.72 4895.93C471.45000000000005 4895.860000000001 471.12 4895.820000000001 470.73 4895.820000000001C469.66 4895.820000000001 468.83000000000004 4896.110000000001 468.23 4896.670000000001C467.63 4897.240000000001 467.34000000000003 4898.030000000001 467.34000000000003 4899.060000000001L467.34000000000003 4905.510000000001L463.99 4905.510000000001L463.99 4893.230000000001L466.52 4893.230000000001ZM532.06 4893.23L535.41 4893.23L535.41 4905.509999999999L532.06 4905.509999999999ZM454.94 4873.7C454.04 4873.7 453.4 4874.01 453 4874.61C452.6 4875.21 452.4 4876.12 452.4 4877.339999999999C452.4 4878.5599999999995 452.59999999999997 4879.48 453 4880.099999999999C453.4 4880.719999999999 454.05 4881.03 454.95 4881.03C455.84999999999997 4881.03 456.5 4880.719999999999 456.89 4880.099999999999C457.28 4879.49 457.47999999999996 4878.57 457.47999999999996 4877.349999999999C457.47999999999996 4876.129999999999 457.28 4875.219999999999 456.89 4874.61C456.49 4874.009999999999 455.84 4873.7 454.94 4873.7ZM476.41 4899.34C476.41 4900.56 476.61 4901.4800000000005 477.01000000000005 4902.1C477.41 4902.72 478.06000000000006 4903.030000000001 478.96000000000004 4903.030000000001C479.86 4903.030000000001 480.50000000000006 4902.72 480.90000000000003 4902.1C481.29 4901.490000000001 481.49 4900.570000000001 481.49 4899.35C481.49 4898.13 481.29 4897.22 480.89 4896.610000000001C480.49 4896.01 479.84999999999997 4895.700000000001 478.95 4895.700000000001C478.05 4895.700000000001 477.4 4896.010000000001 477 4896.610000000001C476.61 4897.210000000001 476.41 4898.120000000001 476.41 4899.34ZM544.12 4895.7C543.22 4895.7 542.57 4896.01 542.17 4896.61C541.78 4897.21 541.5799999999999 4898.12 541.5799999999999 4899.339999999999C541.5799999999999 4900.5599999999995 541.78 4901.48 542.18 4902.099999999999C542.5799999999999 4902.719999999999 543.2299999999999 4903.03 544.13 4903.03C545.03 4903.03 545.67 4902.719999999999 546.07 4902.099999999999C546.46 4901.49 546.6600000000001 4900.57 546.6600000000001 4899.349999999999C546.6600000000001 4898.129999999999 546.46 4897.219999999999 546.0600000000001 4896.61C545.6700000000001 4896.009999999999 545.0200000000001 4895.7 544.12 4895.7ZM469.41 4873.7C468.6 4873.7 468 4873.96 467.62 4874.47C467.24 4874.97 467.04 4875.81 467.03000000000003 4876.9800000000005L467.03000000000003 4877.35C467.03000000000003 4878.660000000001 467.22 4879.610000000001 467.62 4880.18C468.01 4880.75 468.63 4881.030000000001 469.48 4881.030000000001C470.98 4881.030000000001 471.73 4879.800000000001 471.73 4877.320000000001C471.73 4876.120000000001 471.54 4875.210000000001 471.17 4874.610000000001C470.81 4874.01 470.22 4873.700000000001 469.41 4873.700000000001ZM455.48 4895.7C454.67 4895.7 454.07 4895.96 453.69 4896.47C453.31 4896.97 453.11 4897.81 453.1 4898.9800000000005L453.1 4899.35C453.1 4900.660000000001 453.29 4901.610000000001 453.68 4902.18C454.08 4902.75 454.7 4903.030000000001 455.55 4903.030000000001C457.05 4903.030000000001 457.8 4901.800000000001 457.8 4899.320000000001C457.8 4898.120000000001 457.61 4897.210000000001 457.24 4896.610000000001C456.87 4896.01 456.28000000000003 4895.700000000001 455.48 4895.700000000001ZM485.34 4875.98C485.33 4875.15 485.10999999999996 4874.509999999999 484.7 4874.0599999999995C484.28 4873.61 483.71999999999997 4873.379999999999 483.01 4873.379999999999C482.3 4873.379999999999 481.74 4873.609999999999 481.34 4874.0599999999995C480.94 4874.509999999999 480.71 4875.15 480.65 4875.98ZM503.82 4897.98C503.81 4897.15 503.59 4896.509999999999 503.18 4896.0599999999995C502.76 4895.61 502.2 4895.379999999999 501.49 4895.379999999999C500.78000000000003 4895.379999999999 500.22 4895.609999999999 499.82 4896.0599999999995C499.42 4896.509999999999 499.19 4897.15 499.13 4897.98ZM531.91 4890.06C531.91 4888.97 532.52 4888.42 533.74 4888.42C534.95 4888.42 535.5600000000001 4888.97 535.5600000000001 4890.06C535.5600000000001 4890.580000000001 535.4100000000001 4890.9800000000005 535.1 4891.27C534.8000000000001 4891.56 534.34 4891.700000000001 533.74 4891.700000000001C532.52 4891.700000000001 531.91 4891.160000000001 531.91 4890.06ZM570.51 4905.31C570.84 4904.9800000000005 571.01 4904.51 571.01 4903.93C571.01 4903.34 570.85 4902.88 570.51 4902.56C570.18 4902.2300000000005 569.71 4902.080000000001 569.1 4902.080000000001C567.8100000000001 4902.080000000001 567.1700000000001 4902.700000000001 567.1700000000001 4903.9400000000005C567.1700000000001 4904.540000000001 567.34 4905.000000000001 567.6700000000001 4905.320000000001C568.0100000000001 4905.650000000001 568.48 4905.81 569.09 4905.81C569.7 4905.81 570.1700000000001 4905.64 570.51 4905.31Z " fill="#ffffff" fill-opacity="1" transform="matrix(1,0,0,1,-390,-4865)"></path><path id="SvgjsPath1063" d="M424.17 4878.14C424.49 4878.38 424.8 4878.64 425.09000000000003 4878.900000000001L431.82000000000005 4871.51C431.33000000000004 4871.06 430.81000000000006 4870.64 430.2900000000001 4870.2300000000005ZM404.91 4878.9C405.20000000000005 4878.639999999999 405.51000000000005 4878.379999999999 405.83000000000004 4878.139999999999L399.71000000000004 4870.23C399.18000000000006 4870.639999999999 398.67 4871.0599999999995 398.18000000000006 4871.509999999999ZM405.83 4901.87C405.51 4901.62 405.2 4901.37 404.90999999999997 4901.099999999999L398.17999999999995 4908.49C398.66999999999996 4908.94 399.17999999999995 4909.37 399.7099999999999 4909.7699999999995ZM425.09 4901.1C424.79999999999995 4901.370000000001 424.48999999999995 4901.620000000001 424.16999999999996 4901.870000000001L430.28999999999996 4909.77C430.80999999999995 4909.370000000001 431.33 4908.9400000000005 431.81999999999994 4908.490000000001ZM403.9 4900.09C403.63 4899.8 403.38 4899.49 403.13 4899.17L395.23 4905.29C395.63 4905.81 396.06 4906.33 396.51 4906.82ZM426.86 4899.17C426.62 4899.49 426.36 4899.8 426.1 4900.09L433.49 4906.82C433.94 4906.33 434.36 4905.8099999999995 434.77 4905.29ZM403.13 4880.83C403.38 4880.51 403.63 4880.2 403.9 4879.91L396.51 4873.18C396.06 4873.67 395.63 4874.18 395.23 4874.71ZM426.1 4879.91C426.36 4880.2 426.62 4880.51 426.86 4880.83L434.77000000000004 4874.71C434.36 4874.18 433.94000000000005 4873.67 433.49000000000007 4873.18ZM423.01 4902.68C422.67 4902.89 422.33 4903.09 421.96999999999997 4903.280000000001L426.61999999999995 4912.130000000001C427.2099999999999 4911.820000000001 427.78999999999996 4911.490000000001 428.34999999999997 4911.130000000001ZM421.97 4876.72C422.33000000000004 4876.91 422.67 4877.110000000001 423.01000000000005 4877.320000000001L428.35 4868.870000000001C427.79 4868.510000000001 427.21000000000004 4868.180000000001 426.62 4867.870000000001ZM408.03 4903.28C407.66999999999996 4903.09 407.32 4902.889999999999 406.98999999999995 4902.679999999999L401.65 4911.129999999999C402.21 4911.489999999999 402.78999999999996 4911.819999999999 403.37 4912.129999999999ZM406.99 4877.32C407.32 4877.11 407.67 4876.91 408.03000000000003 4876.719999999999L403.37 4867.869999999999C402.79 4868.179999999999 402.21 4868.509999999999 401.65 4868.869999999999ZM401.72 4883.02C401.91 4882.67 402.11 4882.330000000001 402.32000000000005 4881.990000000001L393.87000000000006 4876.650000000001C393.51000000000005 4877.210000000001 393.18000000000006 4877.790000000001 392.87000000000006 4878.38ZM402.32 4898.01C402.11 4897.68 401.90999999999997 4897.33 401.71999999999997 4896.9800000000005L392.86999999999995 4901.63C393.17999999999995 4902.22 393.50999999999993 4902.79 393.86999999999995 4903.35ZM427.68 4881.99C427.89 4882.33 428.09000000000003 4882.67 428.28000000000003 4883.0199999999995L437.13000000000005 4878.379999999999C436.82000000000005 4877.789999999999 436.49000000000007 4877.209999999999 436.13000000000005 4876.65ZM428.28 4896.98C428.09 4897.33 427.89 4897.679999999999 427.67999999999995 4898.009999999999L436.12999999999994 4903.349999999999C436.48999999999995 4902.789999999999 436.81999999999994 4902.219999999999 437.12999999999994 4901.629999999999ZM419.56 4875.71C419.95 4875.83 420.32 4875.97 420.69 4876.12L424.48 4866.87C424.27000000000004 4866.78 424.05 4866.69 423.83000000000004 4866.61L423.32000000000005 4866.42C423.08000000000004 4866.34 422.84000000000003 4866.26 422.61000000000007 4866.18ZM409.31 4876.12C409.68 4875.97 410.05 4875.83 410.44 4875.71L407.39 4866.18C407.15 4866.26 406.91999999999996 4866.34 406.68 4866.42L406.17 4866.61C405.95 4866.69 405.73 4866.78 405.52000000000004 4866.87ZM410.44 4904.29C410.05 4904.17 409.68 4904.03 409.31 4903.88L405.52 4913.13C405.72999999999996 4913.22 405.95 4913.31 406.16999999999996 4913.39L406.67999999999995 4913.58C406.91999999999996 4913.66 407.15 4913.74 407.38999999999993 4913.82ZM420.69 4903.88C420.32 4904.03 419.95 4904.17 419.56 4904.29L422.61 4913.82C422.84000000000003 4913.74 423.08000000000004 4913.66 423.32 4913.58L423.83 4913.39C424.05 4913.31 424.27 4913.22 424.47999999999996 4913.13ZM400.71 4885.44C400.83 4885.049999999999 400.96999999999997 4884.679999999999 401.12 4884.3099999999995L391.87 4880.5199999999995C391.78000000000003 4880.73 391.69 4880.95 391.61 4881.169999999999L391.42 4881.679999999999C391.34000000000003 4881.919999999999 391.26 4882.159999999999 391.18 4882.389999999999ZM429.29 4894.56C429.17 4894.950000000001 429.03000000000003 4895.320000000001 428.88 4895.6900000000005L438.13 4899.4800000000005C438.21999999999997 4899.27 438.31 4899.05 438.39 4898.830000000001L438.58 4898.320000000001C438.65999999999997 4898.080000000001 438.74 4897.840000000001 438.82 4897.610000000001ZM401.12 4895.69C400.97 4895.32 400.83 4894.95 400.71 4894.5599999999995L391.18 4897.61C391.26 4897.839999999999 391.34000000000003 4898.08 391.42 4898.32L391.61 4898.83C391.69 4899.05 391.78000000000003 4899.2699999999995 391.87 4899.48ZM428.88 4884.31C429.03 4884.68 429.17 4885.05 429.29 4885.4400000000005L438.82 4882.39C438.74 4882.160000000001 438.65999999999997 4881.92 438.58 4881.68L438.39 4881.17C438.31 4880.95 438.21999999999997 4880.7300000000005 438.13 4880.52ZM417.01 4875.14C417.40999999999997 4875.1900000000005 417.8 4875.26 418.19 4875.34L420.32 4865.57C419.67 4865.429999999999 419.02 4865.32 418.34999999999997 4865.23ZM409.68 4914.43C410.32 4914.570000000001 410.98 4914.68 411.65000000000003 4914.77L412.99 4904.860000000001C412.59000000000003 4904.81 412.19 4904.740000000001 411.81 4904.660000000001ZM409.68 4865.57L411.81 4875.34C412.19 4875.26 412.59 4875.1900000000005 412.99 4875.14L411.65000000000003 4865.2300000000005C410.98 4865.320000000001 410.32000000000005 4865.43 409.68 4865.570000000001ZM420.32 4914.43L418.19 4904.66C417.8 4904.74 417.41 4904.8099999999995 417.01 4904.86L418.34999999999997 4914.7699999999995C419.02 4914.679999999999 419.66999999999996 4914.57 420.32 4914.429999999999ZM400.34 4893.19C400.26 4892.799999999999 400.19 4892.41 400.14 4892.009999999999L390.22999999999996 4893.349999999999C390.31999999999994 4894.0199999999995 390.42999999999995 4894.679999999999 390.56999999999994 4895.32ZM429.66 4886.81C429.74 4887.200000000001 429.81 4887.59 429.86 4887.990000000001L439.77000000000004 4886.650000000001C439.68000000000006 4885.9800000000005 439.57000000000005 4885.330000000001 439.43000000000006 4884.68ZM400.14 4887.99C400.19 4887.59 400.26 4887.2 400.34 4886.8099999999995L390.57 4884.679999999999C390.43 4885.329999999999 390.32 4885.98 390.23 4886.65ZM414 4914.97C414.33 4914.990000000001 414.67 4915 415 4915C415.33 4915 415.67 4914.99 416 4914.97L415.6 4904.9800000000005C415.40000000000003 4904.990000000001 415.20000000000005 4905.000000000001 415 4905.000000000001C414.8 4905.000000000001 414.6 4904.990000000001 414.4 4904.9800000000005ZM415 4875C415.2 4875 415.4 4875.01 415.6 4875.02L416 4865.02C415.67 4865.01 415.33 4865 415 4865C414.67 4865 414.33 4865.01 414 4865.02L414.4 4875.02C414.59999999999997 4875.01 414.79999999999995 4875 415 4875ZM400 4890C400 4889.8 400.01 4889.6 400.02 4889.4L390.03 4889C390.01 4889.33 390 4889.67 390 4890C390 4890.34 390.01 4890.67 390.03 4891L400.02 4890.6C400.01 4890.400000000001 400 4890.200000000001 400 4890ZM429.99 4890.6L439.98 4891C439.99 4890.67 440 4890.34 440 4890C440 4889.67 439.99 4889.33 439.98 4889L429.99 4889.4C429.99 4889.599999999999 430 4889.799999999999 430 4890C430 4890.2 429.99 4890.4 429.99 4890.6ZM439.77 4893.35C439.68 4894.02 439.57 4894.68 439.43 4895.320000000001L429.66 4893.1900000000005C429.74 4892.8 429.81 4892.410000000001 429.86 4892.01Z " fill="#ffffff" fill-opacity="1" transform="matrix(1,0,0,1,-390,-4865)"></path></svg>