<svg id="SvgjsSvg1023" xmlns="http://www.w3.org/2000/svg" version="1.1" xmlns:xlink="http://www.w3.org/1999/xlink" xmlns:svgjs="http://svgjs.com/svgjs" width="20" height="24"><defs id="SvgjsDefs1024"></defs><path id="SvgjsPath1025" d="M606.789 2842.14L604.9499999999999 2840.33L605.3209999999999 2837.84C605.377 2837.46 605.1059999999999 2837.1000000000004 604.7079999999999 2837.04L602.1049999999999 2836.6L600.8649999999999 2834.38C600.6759999999999 2834.04 600.2369999999999 2833.9 599.8739999999999 2834.07L597.4999999999999 2835.1800000000003L595.1249999999999 2834.07C594.7609999999999 2833.9 594.3229999999999 2834.04 594.1339999999999 2834.38L592.8949999999999 2836.6L590.2909999999998 2837.04C589.8929999999998 2837.1 589.6209999999999 2837.46 589.6779999999998 2837.84L590.0479999999998 2840.33L588.2099999999998 2842.14C587.9289999999999 2842.41 587.9289999999999 2842.85 588.2099999999998 2843.1299999999997L590.0479999999998 2844.93L589.6779999999998 2847.43C589.6219999999997 2847.81 589.8929999999998 2848.16 590.2909999999998 2848.23L592.3749999999998 2848.58L592.3749999999998 2856.29C592.3749999999998 2856.5299999999997 592.5089999999998 2856.7599999999998 592.7299999999998 2856.89C592.8499999999998 2856.96 592.9869999999997 2857 593.1239999999998 2857C593.2389999999998 2857 593.3529999999998 2856.97 593.4589999999998 2856.92L597.4999999999999 2855L601.5399999999998 2856.92C601.7719999999998 2857.04 602.0479999999999 2857.02 602.2689999999999 2856.89C602.4899999999999 2856.7599999999998 602.6239999999999 2856.5299999999997 602.6239999999999 2856.29L602.6239999999999 2848.58L604.7079999999999 2848.23C605.1059999999999 2848.16 605.3769999999998 2847.81 605.3209999999999 2847.43L604.9509999999999 2844.93L606.7889999999999 2843.1299999999997C607.0699999999998 2842.8499999999995 607.0699999999998 2842.41 606.7889999999999 2842.14ZM603.619 2844.19C603.4580000000001 2844.35 603.383 2844.57 603.4150000000001 2844.79L603.7350000000001 2846.94L601.4850000000001 2847.32C601.2570000000002 2847.36 601.0610000000001 2847.4900000000002 600.9520000000001 2847.69L599.8810000000001 2849.61L597.8290000000001 2848.65C597.725 2848.6 597.6120000000001 2848.58 597.5000000000001 2848.58C597.3870000000001 2848.58 597.2740000000001 2848.6 597.1700000000001 2848.65L595.118 2849.61L594.047 2847.69C593.9390000000001 2847.4900000000002 593.7420000000001 2847.36 593.514 2847.32L591.264 2846.94L591.5840000000001 2844.79C591.6160000000001 2844.57 591.541 2844.35 591.3800000000001 2844.19L589.791 2842.63L591.3800000000001 2841.07C591.541 2840.9100000000003 591.6160000000001 2840.69 591.5840000000001 2840.4700000000003L591.264 2838.32L593.514 2837.9500000000003C593.742 2837.9100000000003 593.939 2837.7700000000004 594.047 2837.5800000000004L595.118 2835.6600000000003L597.171 2836.61C597.378 2836.71 597.6210000000001 2836.71 597.8290000000001 2836.61L599.8810000000001 2835.6600000000003L600.9520000000001 2837.5800000000004C601.0610000000001 2837.7700000000004 601.2570000000001 2837.9100000000003 601.4850000000001 2837.9500000000003L603.7350000000001 2838.32L603.4150000000001 2840.4700000000003C603.383 2840.69 603.4580000000001 2840.9100000000003 603.618 2841.07L605.2070000000001 2842.63ZM597.5 2837.76C594.674 2837.76 592.375 2839.94 592.375 2842.63C592.375 2845.32 594.674 2847.51 597.5 2847.51C600.325 2847.51 602.624 2845.32 602.624 2842.63C602.624 2839.94 600.325 2837.76 597.5 2837.76ZM597.5 2846.08C595.5 2846.08 593.873 2844.5299999999997 593.873 2842.63C593.873 2840.73 595.5 2839.1800000000003 597.5 2839.1800000000003C599.499 2839.1800000000003 601.125 2840.7300000000005 601.125 2842.63C601.125 2844.53 599.499 2846.08 597.5 2846.08ZM597.835 2853.57C597.624 2853.4700000000003 597.3760000000001 2853.4700000000003 597.1650000000001 2853.57L593.874 2855.13L593.874 2850.42L594.134 2850.88C594.323 2851.2200000000003 594.7620000000001 2851.36 595.125 2851.19L597.5 2850.09L599.874 2851.19C599.98 2851.2400000000002 600.092 2851.26 600.203 2851.26C600.472 2851.26 600.731 2851.1200000000003 600.865 2850.88L601.126 2850.42L601.126 2855.13ZM599.027 2840.82L596.8140000000001 2842.9300000000003L595.9710000000001 2842.13C595.6780000000001 2841.85 595.2040000000001 2841.85 594.9110000000002 2842.13C594.6190000000001 2842.4100000000003 594.6190000000001 2842.86 594.9120000000001 2843.1400000000003L596.2840000000001 2844.4400000000005C596.4310000000002 2844.5800000000004 596.6220000000001 2844.6500000000005 596.8140000000001 2844.6500000000005C597.0060000000001 2844.6500000000005 597.1970000000001 2844.5800000000004 597.344 2844.4400000000005L600.0870000000001 2841.8300000000004C600.3800000000001 2841.55 600.3800000000001 2841.1000000000004 600.0870000000001 2840.82C599.7940000000001 2840.54 599.32 2840.54 599.0270000000002 2840.82Z " fill="#4a72f5" transform="matrix(1,0,0,1,-587,-2833)"></path></svg>